<svg width="18" height="18" viewBox="0 0 18 18" fill="none" xmlns="http://www.w3.org/2000/svg">
<g id="Frame" clip-path="url(#clip0_8263_726)">
<path id="Vector" d="M15 8.24996C14.8166 6.93013 14.2043 5.70721 13.2575 4.76958C12.3107 3.83196 11.0818 3.23165 9.76025 3.06113C8.43869 2.8906 7.09772 3.15932 5.9439 3.8259C4.79009 4.49247 3.88744 5.51991 3.375 6.74996M3 3.74996V6.74996H6" stroke="#701CF9" stroke-width="1.25" stroke-linecap="round" stroke-linejoin="round"/>
<path id="Vector_2" d="M3 9.74994C3.18342 11.0698 3.7957 12.2927 4.74252 13.2303C5.68934 14.1679 6.91818 14.7683 8.23975 14.9388C9.56131 15.1093 10.9023 14.8406 12.0561 14.174C13.2099 13.5074 14.1126 12.48 14.625 11.2499M15 14.2499V11.2499H12" stroke="#701CF9" stroke-width="1.25" stroke-linecap="round" stroke-linejoin="round"/>
</g>
<defs>
<clipPath id="clip0_8263_726">
<rect width="18" height="18" fill="white"/>
</clipPath>
</defs>
</svg>
