<svg width="163" height="58" viewBox="0 0 163 58" fill="none" xmlns="http://www.w3.org/2000/svg">
<g id="clique">
<path id="Vector" d="M141.205 44.2334L141.205 44.2335L141.214 44.2383C143.665 45.5096 146.562 46.135 149.887 46.135C151.644 46.135 153.458 45.9042 155.328 45.4457L155.328 45.4458L155.338 45.4431C157.22 44.9399 158.883 44.203 160.321 43.2275C160.981 42.7863 161.48 42.2765 161.774 41.6861L161.778 41.6791L161.781 41.6721C162.06 41.0658 162.165 40.4532 162.065 39.8473C161.965 39.2501 161.689 38.7412 161.242 38.3386C160.813 37.9143 160.245 37.6985 159.589 37.6514C158.917 37.6 158.202 37.8359 157.463 38.2715L157.456 38.2757L157.449 38.2801C156.272 39.0279 155.019 39.5579 153.687 39.872L153.684 39.8728C152.372 40.1919 151.127 40.3495 149.948 40.3495C146.823 40.3495 144.504 39.4801 142.912 37.8095C141.673 36.4434 140.901 34.5294 140.638 32.024H159.552C160.422 32.024 161.166 31.8518 161.701 31.4232L161.712 31.4141L161.723 31.4043C162.262 30.9175 162.5 30.2347 162.5 29.438C162.5 27.1054 162.188 24.987 161.558 23.0886C160.968 21.1891 160.058 19.5704 158.823 18.2437C157.63 16.8791 156.182 15.8542 154.483 15.1717C152.781 14.4473 150.858 14.0908 148.724 14.0908C145.83 14.0908 143.232 14.765 140.944 16.1243C138.662 17.4808 136.866 19.3684 135.56 21.7761C134.25 24.1923 133.604 26.9969 133.604 30.1742C133.604 33.431 134.249 36.2771 135.56 38.6951L135.56 38.6952L135.566 38.7043C136.917 41.0758 138.799 42.9212 141.205 44.2334ZM156.25 27.2202H140.706C140.868 26.13 141.146 25.1369 141.536 24.2383C142.195 22.7215 143.137 21.5518 144.356 20.7102C145.605 19.8762 147.134 19.4468 148.969 19.4468C150.606 19.4468 151.929 19.8174 152.97 20.5259L152.979 20.5316L152.987 20.537C154.07 21.2109 154.882 22.2058 155.418 23.5494L155.417 23.5495L155.422 23.5606C155.864 24.5947 156.143 25.8121 156.25 27.2202Z" fill="#040F16" stroke="#040F16"/>
<path id="Vector_2" d="M105.393 44.7203L105.393 44.7203L105.397 44.7229C107.121 45.6737 109.229 46.1348 111.695 46.1348C114.23 46.1348 116.452 45.4979 118.34 44.207C119.237 43.5933 120.016 42.8545 120.677 41.9936V42.3832C120.677 43.4569 120.97 44.3671 121.606 45.0542L121.612 45.061L121.619 45.0676C122.265 45.7156 123.139 46.0121 124.175 46.0121C125.257 46.0121 126.159 45.7287 126.784 45.0758C127.406 44.4269 127.673 43.498 127.673 42.3832V17.8423C127.673 16.71 127.392 15.7735 126.724 15.1509C126.075 14.5039 125.18 14.2134 124.114 14.2134C123.014 14.2134 122.095 14.5003 121.442 15.1509C120.775 15.7735 120.494 16.71 120.494 17.8423V32.076C120.494 34.5524 119.791 36.5094 118.424 37.9953L118.423 37.9957C117.101 39.4358 115.364 40.1653 113.163 40.1653C111.127 40.1653 109.744 39.617 108.894 38.6226C108.028 37.6086 107.546 35.9713 107.546 33.6098V17.8423C107.546 16.7032 107.241 15.7646 106.53 15.1444C105.881 14.502 104.988 14.2134 103.926 14.2134C102.86 14.2134 101.965 14.5039 101.315 15.1509C100.648 15.7736 100.367 16.71 100.367 17.8423V33.5485C100.367 36.2919 100.76 38.614 101.57 40.4949L101.57 40.495L101.576 40.5076C102.433 42.355 103.705 43.7658 105.393 44.7203Z" fill="#040F16" stroke="#040F16"/>
<path id="Vector_3" d="M85.7591 17.8425V18.4555C85.1064 17.6009 84.3079 16.8505 83.365 16.206C81.3928 14.7887 79.0249 14.0908 76.2875 14.0908C73.5926 14.0908 71.1934 14.7466 69.1068 16.0705L69.1068 16.0705L69.1028 16.0731C67.0612 17.3954 65.4732 19.2481 64.3359 21.6137C63.1946 23.9876 62.6348 26.8264 62.6348 30.1129C62.6348 33.3204 63.1956 36.1556 64.333 38.606L64.3344 38.609C65.471 41.0153 67.059 42.8903 69.1028 44.2141L69.1028 44.2142L69.113 44.2205C71.1988 45.5012 73.5957 46.135 76.2875 46.135C78.9841 46.135 81.3298 45.4576 83.3008 44.0832C84.2446 43.4385 85.0442 42.692 85.6979 41.8452V53.4267C85.6979 54.5325 85.9858 55.4559 86.6391 56.1111C87.2891 56.763 88.187 57.0556 89.2567 57.0556C90.3227 57.0556 91.2182 56.765 91.8676 56.1177C92.5645 55.4647 92.8766 54.5391 92.8766 53.4267V17.8425C92.8766 16.7367 92.5888 15.8133 91.9354 15.1581C91.2854 14.5062 90.3875 14.2135 89.3178 14.2135C88.2482 14.2135 87.3503 14.5062 86.7003 15.1581C86.0469 15.8133 85.7591 16.7367 85.7591 17.8425ZM84.7649 35.7937L84.7648 35.7936L84.7605 35.8034C84.1002 37.3226 83.1804 38.4461 82.0111 39.2027C80.8365 39.9627 79.4648 40.3495 77.878 40.3495C75.4448 40.3495 73.5295 39.4859 72.0818 37.7666C70.6355 36.0489 69.8747 33.523 69.8747 30.1129C69.8747 27.8305 70.2141 25.9412 70.8711 24.4273C71.5714 22.9076 72.5096 21.8064 73.6741 21.0906L73.6741 21.0908L73.6839 21.0845C74.8565 20.3257 76.2479 19.9376 77.878 19.9376C80.2718 19.9376 82.1687 20.7819 83.6167 22.4634C85.0583 24.1374 85.8203 26.6591 85.8203 30.1129C85.8203 32.3946 85.4606 34.2818 84.7649 35.7937Z" fill="#040F16" stroke="#040F16"/>
<path id="Vector_4" d="M50.4388 44.9191L50.4444 44.9256L50.4502 44.9319C51.098 45.6315 52.0004 45.9511 53.0806 45.9511C54.1945 45.9511 55.1206 45.6356 55.7722 44.9319L55.778 44.9256L55.7836 44.9191C56.414 44.1896 56.7006 43.2222 56.7006 42.0767V18.1494C56.7006 17.0005 56.3912 16.0414 55.7047 15.3488C55.0574 14.654 54.1574 14.3364 53.0806 14.3364C52.0003 14.3364 51.098 14.656 50.4502 15.3557C49.8075 16.0498 49.5218 17.0063 49.5218 18.1494V42.0767C49.5218 43.2222 49.8084 44.1896 50.4388 44.9191ZM49.8629 7.8998L49.8684 7.90497L49.874 7.90997C50.6848 8.62744 51.775 8.95581 53.0806 8.95581C54.381 8.95581 55.4573 8.62979 56.2317 7.90498C57.0491 7.1786 57.4347 6.17329 57.4347 4.95874C57.4347 3.71472 57.0554 2.69907 56.2255 2.00672C55.4516 1.28595 54.3776 0.96167 53.0806 0.96167C51.7754 0.96167 50.6855 1.28983 49.8748 2.00682C49.0828 2.70232 48.7266 3.71863 48.7266 4.95874C48.7266 6.16659 49.0872 7.17053 49.8629 7.8998Z" fill="#040F16" stroke="#040F16"/>
<path id="Vector_5" d="M33.3321 43.1972L33.332 43.1973L33.3398 43.206C35.0921 45.1831 37.6532 46.1352 40.9327 46.1352C41.3106 46.1352 41.7065 46.1146 42.12 46.0739C42.5354 46.073 42.9331 46.0518 43.3127 46.0095L43.3222 46.0084L43.3317 46.007C44.2188 45.8735 44.9456 45.5498 45.4188 44.9697L45.4255 44.9615L45.4318 44.9531C45.8849 44.3472 46.082 43.5536 46.082 42.629C46.082 42.1436 46.0559 41.7252 45.9988 41.3813C45.9445 41.0547 45.8546 40.7454 45.6923 40.511C45.3598 39.9889 44.8052 39.8097 44.1945 39.8607L44.1798 39.8619L44.1652 39.864L43.737 39.9254L43.3443 39.9817H43.3441H43.3427H43.341H43.3393H43.3376H43.3359H43.3342H43.3325H43.3308H43.3291H43.3274H43.3257H43.324H43.3223H43.3206H43.3189H43.3172H43.3154H43.3137H43.312H43.3103H43.3086H43.3069H43.3052H43.3035H43.3017H43.3H43.2983H43.2966H43.2949H43.2932H43.2914H43.2897H43.288H43.2863H43.2845H43.2828H43.2811H43.2794H43.2776H43.2759H43.2742H43.2724H43.2707H43.269H43.2672H43.2655H43.2638H43.262H43.2603H43.2586H43.2568H43.2551H43.2533H43.2516H43.2499H43.2481H43.2464H43.2446H43.2429H43.2411H43.2394H43.2376H43.2359H43.2341H43.2324H43.2306H43.2289H43.2271H43.2254H43.2236H43.2218H43.2201H43.2183H43.2166H43.2148H43.213H43.2113H43.2095H43.2077H43.206H43.2042H43.2024H43.2007H43.1989H43.1971H43.1954H43.1936H43.1918H43.19H43.1883H43.1865H43.1847H43.1829H43.1811H43.1794H43.1776H43.1758H43.174H43.1722H43.1704H43.1687H43.1669H43.1651H43.1633H43.1615H43.1597H43.1579H43.1561H43.1543H43.1525H43.1507H43.1489H43.1472H43.1454H43.1436H43.1418H43.14H43.1382H43.1363H43.1345H43.1327H43.1309H43.1291H43.1273H43.1255H43.1237H43.1219H43.1201H43.1183H43.1165H43.1146H43.1128H43.111H43.1092H43.1074H43.1056H43.1037H43.1019H43.1001H43.0983H43.0964H43.0946H43.0928H43.091H43.0891H43.0873H43.0855H43.0837H43.0818H43.08H43.0782H43.0763H43.0745H43.0727H43.0708H43.069H43.0671H43.0653H43.0635H43.0616H43.0598H43.0579H43.0561H43.0542H43.0524H43.0506H43.0487H43.0469H43.045H43.0432H43.0413H43.0395H43.0376H43.0357H43.0339H43.032H43.0302H43.0283H43.0265H43.0246H43.0227H43.0209H43.019H43.0172H43.0153H43.0134H43.0116H43.0097H43.0078H43.0059H43.0041H43.0022H43.0003H42.9985H42.9966H42.9947H42.9928H42.991H42.9891H42.9872H42.9853H42.9834H42.9816H42.9797H42.9778H42.9759H42.974H42.9721H42.9703H42.9684H42.9665H42.9646H42.9627H42.9608H42.9589H42.957H42.9551H42.9532H42.9513H42.9494H42.9475H42.9456H42.9437H42.9418H42.9399H42.938H42.9361H42.9342H42.9323H42.9304H42.9285H42.9266H42.9247H42.9228H42.9209H42.919H42.917H42.9151H42.9132H42.9113H42.9094H42.9075H42.9055H42.9036H42.9017H42.8998H42.8979H42.8959H42.894H42.8921H42.8902H42.8882H42.8863H42.8844H42.8824H42.8805H42.8786H42.8767H42.8747H42.8728H42.8708H42.8689H42.867H42.865H42.8631H42.8612H42.8592H42.8573H42.8553H42.8534H42.8514H42.8495H42.8475H42.8456H42.8437H42.8417H42.8398H42.8378H42.8358H42.8339H42.8319H42.83H42.828H42.8261H42.8241H42.8222H42.8202H42.8182H42.8163H42.8143H42.8123H42.8104H42.8084H42.8065H42.8045H42.8025H42.8005H42.7986H42.7966H42.7946H42.7927H42.7907H42.7887H42.7867H42.7848H42.7828H42.7808H42.7788H42.7768H42.7749H42.7729H42.7709H42.7689H42.7669H42.7649H42.763H42.761H42.759H42.757H42.755H42.753H42.751H42.749H42.747H42.745H42.743H42.741H42.739H42.737H42.735H42.733H42.731H42.729H42.727H42.725H42.723H42.721H42.719H42.717H42.715H42.713H42.711H42.709H42.7069H42.7049H42.7029H42.7009H42.6989H42.6969H42.6948H42.6928H42.6908H42.6888H42.6868H42.6847H42.6827H42.6807H42.6787H42.6766H42.6746H42.6726H42.6706H42.6685H42.6665H42.6645H42.6624H42.6604H42.6584H42.6563H42.6543H42.6522H42.6502H42.6482H42.6461H42.6441H42.642H42.64H42.6379H42.6359H42.6339H42.6318H42.6298H42.6277H42.6257H42.6236H42.6216H42.6195H42.6174H42.6154H42.6133H42.6113H42.6092H42.6072H42.6051H42.603H42.601H42.5989H42.5969H42.5948H42.5927H42.5907H42.5886H42.5865H42.5845H42.5824H42.5803H42.5782H42.5762H42.5741H42.572H42.5699H42.5679H42.5658H42.5637H42.5616H42.5596H42.5575H42.5554H42.5533H42.5512H42.5491H42.5471H42.545H42.5429H42.5408H42.5387H42.5366H42.5345H42.5324H42.5303H42.5282H42.5261H42.524H42.522H42.5199H42.5178H42.5157H42.5136H42.5115H42.5093H42.5072H42.5051H42.503H42.5009H42.4988H42.4967H42.4946H42.4925H42.4904H42.4883H42.4862H42.484H42.4819H42.4798H42.4777H42.4756H42.4735H42.4713H42.4692H42.4671H42.465H42.4629H42.4607H42.4586H42.4565H42.4544H42.4522H42.4501H42.448H42.4458H42.4437H42.4416H42.4394H42.4373H42.4352H42.433H42.4309H42.4288H42.4266H42.4245H42.4223H42.4202H42.4181H42.4159H42.4138H42.4116H42.4095H42.4073H42.4052H42.403H42.4009C40.9249 39.9817 39.855 39.5326 39.1144 38.6888C38.4037 37.7922 38.0068 36.3934 38.0068 34.4078V4.52935C38.0068 3.41693 37.6947 2.49133 36.9979 1.83837C36.3484 1.19109 35.453 0.900391 34.3869 0.900391C33.3172 0.900391 32.4193 1.19305 31.7693 1.84492L31.7693 1.84492C31.116 2.50018 30.8281 3.42353 30.8281 4.52935V34.7759C30.8281 38.3619 31.6384 41.1937 33.3321 43.1972Z" fill="#040F16" stroke="#040F16"/>
<path id="Vector_6" d="M7.71855 44.1626L7.71849 44.1627L7.72795 44.1681C10.059 45.4858 12.798 46.1347 15.9268 46.1347C17.4019 46.1347 18.9136 45.9234 20.4606 45.5042C22.0636 45.081 23.5416 44.3832 24.8919 43.4124C25.4925 43.0379 25.9226 42.5457 26.1282 41.9273C26.316 41.3621 26.3474 40.7992 26.2039 40.2518C26.1057 39.6876 25.8659 39.1974 25.4789 38.8004C25.1128 38.3408 24.6172 38.0627 24.0232 37.9634C23.3874 37.8571 22.7399 38.0251 22.1016 38.3908L22.0805 38.4029L22.0607 38.417C21.1225 39.0835 20.1749 39.5469 19.2175 39.8157C18.2363 40.0912 17.3031 40.2266 16.4162 40.2266C13.6415 40.2266 11.5508 39.332 10.0725 37.586C8.61873 35.7801 7.86225 33.2676 7.86225 29.99C7.86225 28.3514 8.04134 26.9076 8.39232 25.6532C8.78249 24.4038 9.34112 23.3893 10.0582 22.5945L10.0583 22.5946L10.0658 22.5859C10.789 21.746 11.662 21.1179 12.6901 20.6978L12.6901 20.6979L12.6984 20.6943C13.7677 20.2347 15.0038 19.9987 16.4162 19.9987C17.2956 19.9987 18.2228 20.1521 19.1998 20.4656L19.2086 20.4685L19.2175 20.4709C20.1749 20.7398 21.1225 21.2032 22.0607 21.8696L22.0805 21.8837L22.1016 21.8958C22.7312 22.2566 23.3628 22.4415 23.9824 22.3897L24.0029 22.388L24.0232 22.3846C24.6075 22.287 25.1128 22.0377 25.5184 21.631C25.9506 21.1976 26.2249 20.6813 26.3271 20.0913C26.4648 19.5249 26.4436 18.9675 26.2547 18.432C26.0906 17.8046 25.6736 17.3092 25.0767 16.9364C23.6867 15.9254 22.1685 15.2068 20.5246 14.7831C18.938 14.3232 17.4048 14.0906 15.9268 14.0906C13.5898 14.0906 11.4478 14.4672 9.50702 15.2284C7.61067 15.9473 5.97999 16.9866 4.62234 18.3481L4.6223 18.3481L4.61678 18.3538C3.29811 19.7189 2.28451 21.3968 1.57023 23.3767C0.853549 25.3222 0.5 27.5085 0.5 29.9286C0.5 33.1832 1.12434 36.0459 2.39087 38.5017L2.39253 38.5048C3.65775 40.9157 5.43446 42.8052 7.71855 44.1626Z" fill="#040F16" stroke="#040F16"/>
</g>
</svg>
