<svg width="98" height="102" viewBox="0 0 98 102" fill="none" xmlns="http://www.w3.org/2000/svg">
<g id="Hearts">
<path id="Vector" d="M47.5554 8.95475C43.1278 11.0052 42.7655 16.7476 39.8698 18.8285C37.6544 20.4086 32.3071 16.2187 27.8299 18.6871C20.4821 22.7634 19.0575 30.5884 25.3169 36.5624C31.9275 42.855 40.385 44.4463 49.0832 45.02C49.8896 45.0564 50.6917 44.8962 51.421 44.5531C52.1503 44.21 52.7852 43.6942 53.2716 43.0497C59.0307 35.6697 63.4577 27.7086 62.5019 17.8296C62.3675 16.1245 61.8252 14.475 60.9213 13.0215C60.0174 11.5681 58.7787 10.3538 57.3107 9.4821C55.8427 8.61044 54.1889 8.10725 52.4903 8.01543C50.7917 7.92361 49.0987 8.24587 47.5554 8.95475ZM48.3611 11.2348C54.1867 8.82582 59.7967 12.371 60.1633 18.6333C60.6719 27.5372 56.2358 34.6843 51.4757 41.6327C51.2208 42.0567 50.8468 42.3951 50.4004 42.6056C49.954 42.8161 49.455 42.8893 48.9659 42.8161C41.1906 41.9634 33.4801 40.8444 27.3972 35.2668C23.0258 31.3285 22.6879 26.9533 25.9386 23.1707C29.6882 18.8625 34.0511 18.754 38.7427 22.8531C39.5757 23.5774 40.1354 25.0698 41.5812 24.4657C43.0269 23.8616 42.7193 22.4944 42.81 21.3457C43.1491 16.9331 44.5495 13.1694 48.3611 11.2348Z" fill="white" stroke="white"/>
<path id="Vector_2" d="M25.1643 77.2155C28.7585 80.9622 34.2162 81.8148 39.9023 81.4259C57.2461 80.3236 55.1036 81.7394 51.8685 65.5976C51.1975 61.4232 49.3702 57.5167 46.5964 54.3266C43.9673 51.443 40.7416 49.8945 36.9874 51.5497C35.483 52.1566 34.2562 53.2997 33.5405 54.7614C32.8248 56.2232 32.6701 57.9016 33.1058 59.4774C33.9176 63.2808 31.9087 63.4932 29.1731 64.2762C21.7755 66.3226 19.9508 71.3908 25.1643 77.2155ZM37.7114 68.7918C38.5149 66.9554 39.0318 65.4974 37.254 63.5653C34.4788 60.5215 34.1694 56.452 37.562 54.0983C41.3908 51.4413 44.312 54.6453 46.2945 57.7966C49.6945 63.1954 50.1152 69.5361 51.353 75.583C51.6233 76.8565 51.4823 78.034 49.8322 78.178C43.1131 78.7484 36.3521 80.1432 29.8261 77.2129C27.0468 75.9409 24.1144 74.0568 24.926 70.5596C25.7375 67.0624 29.4663 66.6582 32.6098 66.0562C35.0609 65.6005 35.6224 68.4722 37.7114 68.7918Z" fill="white" stroke="white"/>
<path id="Vector_3" d="M77.8024 58.2961C75.51 55.9647 73.1073 52.5374 69.5704 55.6544C66.0334 58.7714 67.3715 62.6523 69.5942 65.9225C72.2374 69.8201 74.6708 76.1605 78.873 75.9469C83.0753 75.7333 84.5445 69.0698 86.6901 64.8885C86.9757 64.3677 87.211 63.8204 87.3927 63.2539C88.4853 59.3938 90.2585 54.6936 86.0982 52.3433C81.2425 49.5934 80.5622 55.6939 77.8024 58.2961ZM86.0166 58.446C85.3576 63.4152 82.6854 67.6548 80.2168 71.9674C79.227 73.6852 78.0288 73.3318 76.9121 71.9555C74.3307 68.9007 71.546 65.9776 70.2318 62.0607C69.6169 60.2168 69.5167 58.3265 71.418 57.25C73.81 56.0548 74.4376 58.2359 75.4108 59.6718C76.2638 60.8787 76.1736 63.2858 78.1846 63.0643C79.9802 62.8782 79.9272 60.6631 80.5705 59.2811C80.852 58.5366 81.1782 57.8102 81.5473 57.1059C82.3348 55.9049 82.7368 53.6915 84.774 54.4331C86.2362 55.0643 85.9771 56.9051 86.0166 58.446Z" fill="white" stroke="white"/>
</g>
</svg>
