<svg width="132" height="132" viewBox="0 0 132 132" fill="none" xmlns="http://www.w3.org/2000/svg">
<g id="Frame 13207">
<path id="Polygon 9" d="M58.6818 128.911C58.6818 128.911 118.708 104.004 118.999 73.9065C119.291 43.809 87.7924 32.6545 70.0637 48.6623C52.3349 64.6702 58.6818 128.911 58.6818 128.911Z" fill="#904EFA"/>
<path id="Polygon 8" d="M58.592 128.915C58.592 128.915 5.70132 78.4836 11.2512 50.7327C16.801 22.9818 53.2564 20.5991 66.7559 42.4058C80.2553 64.2125 58.592 128.915 58.592 128.915Z" fill="#FCEEFF"/>
<ellipse id="Ellipse 1246" cx="12.1762" cy="12.1762" rx="12.1762" ry="12.1762" transform="matrix(1 -5.66428e-09 1.78739e-06 1 11.2441 3.55664)" fill="#FCEEFF"/>
<ellipse id="Ellipse 1247" cx="12.1762" cy="12.1762" rx="12.1762" ry="12.1762" transform="matrix(1 -5.66428e-09 1.78739e-06 1 105.605 20.2058)" fill="#904EFA"/>
</g>
</svg>
