<svg width="1280" height="214" viewBox="0 0 1280 214" fill="none" xmlns="http://www.w3.org/2000/svg">
<g style="mix-blend-mode:soft-light" opacity="0.9">
<rect width="657.742" height="355.573" transform="translate(0 -70.5009)" fill="#011627"/>
<rect width="88.8933" height="88.8925" transform="matrix(0 -1 -1 0 124.387 18.3925)" fill="#011627"/>
<path d="M35.4943 18.3925V-70.5008L124.387 18.3925L35.4943 18.3925Z" fill="#011627"/>
<rect width="88.8933" height="88.8925" transform="matrix(0 1 1 0 124.387 -70.5006)" fill="#011627"/>
<path d="M124.387 -70.5008C124.387 -58.8272 126.686 -47.2679 131.153 -36.4828C135.621 -25.6978 142.168 -15.8983 150.423 -7.64379C158.677 0.61072 168.477 7.15855 179.262 11.6259C190.047 16.0932 201.606 18.3925 213.279 18.3925L213.279 -70.5008H124.387Z" fill="#8C8C8C"/>
<rect x="302.176" y="-70.5006" width="88.8933" height="88.8925" transform="rotate(90 302.176 -70.5006)" fill="#011627"/>
<path d="M302.172 -70.5008C302.172 -58.8272 299.872 -47.2679 295.405 -36.4828C290.938 -25.6978 284.39 -15.8983 276.136 -7.64379C267.881 0.61072 258.082 7.15855 247.297 11.6259C236.512 16.0932 224.953 18.3925 213.279 18.3925L213.279 -70.5008H302.172Z" fill="#1D1D1D"/>
<rect x="302.178" y="-70.5007" width="88.8925" height="88.8933" fill="#011627"/>
<path d="M346.621 18.3923C346.621 -6.15488 366.52 -26.0543 391.067 -26.0543V18.3923H346.621Z" fill="#011627"/>
<path d="M346.621 18.3923C346.621 -6.15488 326.722 -26.0543 302.175 -26.0543V18.3923H346.621Z" fill="#1D1D1D"/>
<rect width="88.8925" height="88.8933" transform="matrix(1 0 0 -1 391.072 18.3925)" fill="#011627"/>
<path d="M391.07 -26.054C391.07 -50.6012 410.97 -70.5006 435.517 -70.5006V18.3927C410.97 18.3927 391.07 -1.50676 391.07 -26.054Z" fill="#1D1D1D"/>
<path d="M479.961 -26.054C479.961 -50.6012 460.062 -70.5006 435.515 -70.5006V18.3927C460.062 18.3927 479.961 -1.50676 479.961 -26.054Z" fill="#1D1D1D"/>
<rect x="479.963" y="-70.5007" width="88.8925" height="88.8933" fill="#8C8C8C"/>
<rect x="479.963" y="-70.5007" width="44.4462" height="88.8933" fill="#8C8C8C"/>
<path d="M524.408 18.3922C524.408 -6.155 544.307 -26.0544 568.854 -26.0544V18.3922H524.408Z" fill="#011627"/>
<rect width="88.8925" height="88.8933" transform="matrix(-1 0 0 1 657.748 -70.5007)" fill="#011627"/>
<path d="M657.748 18.3926H568.856L657.748 -70.5007V18.3926Z" fill="#011627"/>
<rect width="88.8925" height="88.8933" transform="matrix(-1 0 0 1 124.387 18.3928)" fill="#011627"/>
<path d="M124.389 62.8397C124.389 87.3869 104.489 107.286 79.9424 107.286V18.3931C104.489 18.3931 124.389 38.2925 124.389 62.8397Z" fill="#1D1D1D"/>
<path d="M35.4941 62.8395C35.4941 87.3867 55.3934 107.286 79.9404 107.286L79.9404 18.3928C55.3934 18.3928 35.4941 38.2923 35.4941 62.8395Z" fill="#8C8C8C"/>
<rect width="88.8933" height="88.8925" transform="matrix(0 -1 -1 0 213.281 107.286)" fill="#011627"/>
<path d="M124.388 107.286V96.1745L135.5 107.286H124.388Z" fill="#011627"/>
<path d="M135.498 107.286V96.1745L146.609 107.286H135.498Z" fill="#011627"/>
<path d="M146.611 107.286V96.1745L157.723 107.286H146.611Z" fill="#011627"/>
<path d="M157.72 107.286V96.1745L168.832 107.286H157.72Z" fill="#011627"/>
<path d="M168.834 107.286V96.1745L179.945 107.286H168.834Z" fill="#011627"/>
<path d="M179.943 107.286V96.1745L191.055 107.286H179.943Z" fill="#011627"/>
<path d="M191.056 107.286V96.1745L202.168 107.286H191.056Z" fill="#011627"/>
<path d="M202.17 107.286V96.1745L213.281 107.286H202.17Z" fill="#011627"/>
<path d="M124.388 96.175V85.0634L135.5 96.175H124.388Z" fill="#011627"/>
<path d="M135.498 96.175V85.0634L146.609 96.175H135.498Z" fill="#011627"/>
<path d="M146.611 96.175V85.0634L157.723 96.175H146.611Z" fill="#011627"/>
<path d="M157.72 96.175V85.0634L168.832 96.175H157.72Z" fill="#011627"/>
<path d="M168.834 96.175V85.0634L179.945 96.175H168.834Z" fill="#011627"/>
<path d="M179.943 96.175V85.0634L191.055 96.175H179.943Z" fill="#011627"/>
<path d="M191.056 96.175V85.0634L202.168 96.175H191.056Z" fill="#011627"/>
<path d="M124.388 85.0632V73.9516L135.5 85.0632H124.388Z" fill="#011627"/>
<path d="M135.498 85.0632V73.9516L146.609 85.0632H135.498Z" fill="#011627"/>
<path d="M146.611 85.0632V73.9516L157.723 85.0632H146.611Z" fill="#011627"/>
<path d="M157.72 85.0632V73.9516L168.832 85.0632H157.72Z" fill="#011627"/>
<path d="M168.834 85.0632V73.9516L179.945 85.0632H168.834Z" fill="#011627"/>
<path d="M179.943 85.0632V73.9516L191.055 85.0632H179.943Z" fill="#011627"/>
<path d="M124.388 73.9515V62.8399L135.5 73.9515H124.388Z" fill="#011627"/>
<path d="M135.498 73.9515V62.8399L146.609 73.9515H135.498Z" fill="#011627"/>
<path d="M146.611 73.9515V62.8399L157.723 73.9515H146.611Z" fill="#011627"/>
<path d="M157.72 73.9515V62.8399L168.832 73.9515H157.72Z" fill="#011627"/>
<path d="M168.834 73.9515V62.8399L179.945 73.9515H168.834Z" fill="#011627"/>
<path d="M124.388 62.84V51.7283L135.5 62.84H124.388Z" fill="#011627"/>
<path d="M135.498 62.84V51.7283L146.609 62.84H135.498Z" fill="#011627"/>
<path d="M146.611 62.84V51.7283L157.723 62.84H146.611Z" fill="#011627"/>
<path d="M157.72 62.84V51.7283L168.832 62.84H157.72Z" fill="#011627"/>
<path d="M124.388 51.7281V40.6165L135.5 51.7281H124.388Z" fill="#011627"/>
<path d="M135.498 51.7281V40.6165L146.609 51.7281H135.498Z" fill="#011627"/>
<path d="M146.611 51.7281V40.6165L157.723 51.7281H146.611Z" fill="#011627"/>
<path d="M124.388 40.6167V29.505L135.5 40.6167H124.388Z" fill="#011627"/>
<path d="M135.498 40.6167V29.505L146.609 40.6167H135.498Z" fill="#011627"/>
<path d="M124.388 29.5048V18.3931L135.5 29.5048H124.388Z" fill="#011627"/>
<rect x="213.281" y="107.286" width="88.8933" height="88.8925" transform="rotate(-90 213.281 107.286)" fill="#011627"/>
<rect x="302.174" y="107.286" width="88.8933" height="88.8925" transform="rotate(-90 302.174 107.286)" fill="#011627"/>
<path d="M391.067 107.286V96.1745L379.955 107.286H391.067Z" fill="#011627"/>
<path d="M379.957 107.286V96.1745L368.846 107.286H379.957Z" fill="#011627"/>
<path d="M368.844 107.286V96.1745L357.732 107.286H368.844Z" fill="#011627"/>
<path d="M357.735 107.286V96.1745L346.623 107.286H357.735Z" fill="#011627"/>
<path d="M346.621 107.286V96.1745L335.51 107.286H346.621Z" fill="#011627"/>
<path d="M335.512 107.286V96.1745L324.4 107.286H335.512Z" fill="#011627"/>
<path d="M324.399 107.286V96.1745L313.287 107.286H324.399Z" fill="#011627"/>
<path d="M313.285 107.286V96.1745L302.174 107.286H313.285Z" fill="#011627"/>
<path d="M391.067 96.1747V85.063L379.955 96.1747H391.067Z" fill="#011627"/>
<path d="M379.957 96.1747V85.063L368.846 96.1747H379.957Z" fill="#011627"/>
<path d="M368.844 96.1747V85.063L357.732 96.1747H368.844Z" fill="#011627"/>
<path d="M357.735 96.1747V85.063L346.623 96.1747H357.735Z" fill="#011627"/>
<path d="M346.621 96.1747V85.063L335.51 96.1747H346.621Z" fill="#011627"/>
<path d="M335.512 96.1747V85.063L324.4 96.1747H335.512Z" fill="#011627"/>
<path d="M324.399 96.1747V85.063L313.287 96.1747H324.399Z" fill="#011627"/>
<path d="M391.067 85.0629V73.9512L379.955 85.0629H391.067Z" fill="#011627"/>
<path d="M379.957 85.0629V73.9512L368.846 85.0629H379.957Z" fill="#011627"/>
<path d="M368.844 85.0629V73.9512L357.732 85.0629H368.844Z" fill="#011627"/>
<path d="M357.735 85.0629V73.9512L346.623 85.0629H357.735Z" fill="#011627"/>
<path d="M346.621 85.0629V73.9512L335.51 85.0629H346.621Z" fill="#011627"/>
<path d="M335.512 85.0629V73.9512L324.4 85.0629H335.512Z" fill="#011627"/>
<path d="M391.067 73.9513V62.8396L379.955 73.9513H391.067Z" fill="#011627"/>
<path d="M379.957 73.9513V62.8396L368.846 73.9513H379.957Z" fill="#011627"/>
<path d="M368.844 73.9513V62.8396L357.732 73.9513H368.844Z" fill="#011627"/>
<path d="M357.735 73.9513V62.8396L346.623 73.9513H357.735Z" fill="#011627"/>
<path d="M346.621 73.9513V62.8396L335.51 73.9513H346.621Z" fill="#011627"/>
<path d="M391.067 62.8396V51.7279L379.955 62.8396H391.067Z" fill="#011627"/>
<path d="M379.957 62.8396V51.7279L368.846 62.8396H379.957Z" fill="#011627"/>
<path d="M368.844 62.8396V51.7279L357.732 62.8396H368.844Z" fill="#011627"/>
<path d="M357.735 62.8396V51.7279L346.623 62.8396H357.735Z" fill="#011627"/>
<path d="M391.067 51.7279V40.6162L379.955 51.7279H391.067Z" fill="#011627"/>
<path d="M379.957 51.7279V40.6162L368.846 51.7279H379.957Z" fill="#011627"/>
<path d="M368.844 51.7279V40.6162L357.732 51.7279H368.844Z" fill="#011627"/>
<path d="M391.067 40.6165V29.5048L379.955 40.6165H391.067Z" fill="#011627"/>
<path d="M379.957 40.6165V29.5048L368.846 40.6165H379.957Z" fill="#011627"/>
<path d="M391.067 29.5045V18.3929L379.955 29.5045H391.067Z" fill="#011627"/>
<rect x="391.066" y="107.286" width="88.8933" height="88.8925" transform="rotate(-90 391.066 107.286)" fill="#8C8C8C"/>
<rect x="479.957" y="107.286" width="88.8933" height="88.8925" transform="rotate(-90 479.957 107.286)" fill="#011627"/>
<rect x="479.957" y="107.286" width="44.4466" height="88.8925" transform="rotate(-90 479.957 107.286)" fill="#011627"/>
<path d="M568.852 62.8397C544.306 62.8397 524.406 42.9403 524.406 18.3931H568.852V62.8397Z" fill="#1D1D1D"/>
<rect x="657.744" y="18.3928" width="88.8933" height="88.8925" transform="rotate(90 657.744 18.3928)" fill="#011627"/>
<path d="M657.744 107.286C657.744 95.6126 655.445 84.0533 650.977 73.2682C646.51 62.4832 639.962 52.6837 631.708 44.4292C623.454 36.1747 613.654 29.6268 602.869 25.1595C592.084 20.6922 580.525 18.3929 568.852 18.3929L568.852 107.286H657.744Z" fill="#8C8C8C"/>
<path d="M613.298 107.286C613.298 101.449 612.148 95.6698 609.915 90.2773C607.681 84.8847 604.407 79.985 600.28 75.8577C596.153 71.7305 591.253 68.4566 585.86 66.2229C580.468 63.9892 574.688 62.8396 568.852 62.8396L568.852 107.286H613.298Z" fill="#1D1D1D"/>
<rect x="35.4941" y="196.18" width="88.8933" height="88.8925" transform="rotate(-90 35.4941 196.18)" fill="#011627"/>
<path d="M35.4971 151.733C60.0441 151.733 79.9434 131.833 79.9434 107.286H35.4971V151.733Z" fill="#8C8C8C"/>
<path d="M124.39 151.733C99.8426 151.733 79.9434 131.833 79.9434 107.286H124.39V151.733Z" fill="#1D1D1D"/>
<path d="M35.4971 151.733C60.0441 151.733 79.9434 171.632 79.9434 196.179H35.4971V151.733Z" fill="#8C8C8C"/>
<path d="M124.39 151.733C99.8426 151.733 79.9434 171.632 79.9434 196.179H124.39V151.733Z" fill="#1D1D1D"/>
<rect width="88.8933" height="88.8925" transform="matrix(0 -1 -1 0 213.283 196.18)" fill="#011627"/>
<path d="M213.281 107.287C213.281 118.96 210.982 130.519 206.515 141.305C202.047 152.09 195.5 161.889 187.245 170.144C178.991 178.398 169.191 184.946 158.406 189.413C147.621 193.881 136.062 196.18 124.389 196.18L124.389 107.287H213.281Z" fill="#011627"/>
<path d="M168.835 107.286C168.835 113.123 167.685 118.903 165.452 124.295C163.218 129.688 159.944 134.588 155.817 138.715C151.69 142.842 146.79 146.116 141.398 148.35C136.005 150.583 130.225 151.733 124.389 151.733L124.389 107.286H168.835Z" fill="#1D1D1D"/>
<rect x="213.283" y="196.18" width="88.8933" height="88.8925" transform="rotate(-90 213.283 196.18)" fill="#011627"/>
<path d="M213.285 107.286C213.285 118.96 215.585 130.519 220.052 141.304C224.519 152.089 231.067 161.889 239.321 170.143C247.576 178.398 257.375 184.946 268.16 189.413C278.945 193.88 290.504 196.18 302.178 196.18L302.178 107.286H213.285Z" fill="#8C8C8C"/>
<rect width="88.8933" height="88.8925" transform="matrix(0 -1 -1 0 391.07 196.18)" fill="#011627"/>
<path d="M302.178 196.18V107.286L391.07 196.18H302.178Z" fill="#011627"/>
<rect width="88.8933" height="88.8925" transform="matrix(0 1 1 0 391.07 107.286)" fill="#011627"/>
<path d="M435.519 151.733C460.066 151.733 479.965 171.633 479.965 196.18H391.072C391.072 171.633 410.972 151.733 435.519 151.733Z" fill="#1D1D1D"/>
<path d="M435.519 151.733C460.066 151.733 479.965 131.834 479.965 107.287L391.072 107.287C391.072 131.834 410.972 151.733 435.519 151.733Z" fill="#8C8C8C"/>
<rect x="479.965" y="196.18" width="88.8933" height="88.8925" transform="rotate(-90 479.965 196.18)" fill="#011627"/>
<path d="M524.413 151.733C548.96 151.733 568.859 131.834 568.859 107.287H479.967C479.967 131.834 499.866 151.733 524.413 151.733Z" fill="#1D1D1D"/>
<rect width="88.8933" height="88.8925" transform="matrix(0 -1 -1 0 657.752 196.18)" fill="#011627"/>
<path d="M568.863 196.18V185.068L579.975 196.18H568.863Z" fill="#011627"/>
<path d="M579.972 196.18V185.068L591.084 196.18H579.972Z" fill="#011627"/>
<path d="M591.086 196.18V185.068L602.197 196.18H591.086Z" fill="#011627"/>
<path d="M602.195 196.18V185.068L613.307 196.18H602.195Z" fill="#011627"/>
<path d="M613.308 196.18V185.068L624.42 196.18H613.308Z" fill="#011627"/>
<path d="M624.418 196.18V185.068L635.529 196.18H624.418Z" fill="#011627"/>
<path d="M635.531 196.18V185.068L646.643 196.18H635.531Z" fill="#011627"/>
<path d="M646.64 196.18V185.068L657.752 196.18H646.64Z" fill="#011627"/>
<path d="M568.863 185.068V173.956L579.975 185.068H568.863Z" fill="#011627"/>
<path d="M579.972 185.068V173.956L591.084 185.068H579.972Z" fill="#011627"/>
<path d="M591.086 185.068V173.956L602.197 185.068H591.086Z" fill="#011627"/>
<path d="M602.195 185.068V173.956L613.307 185.068H602.195Z" fill="#011627"/>
<path d="M613.308 185.068V173.956L624.42 185.068H613.308Z" fill="#011627"/>
<path d="M624.418 185.068V173.956L635.529 185.068H624.418Z" fill="#011627"/>
<path d="M635.531 185.068V173.956L646.643 185.068H635.531Z" fill="#011627"/>
<path d="M646.64 185.068V173.956L657.752 185.068H646.64Z" fill="#011627"/>
<path d="M568.863 173.956V162.845L579.975 173.956H568.863Z" fill="#011627"/>
<path d="M579.972 173.956V162.845L591.084 173.956H579.972Z" fill="#011627"/>
<path d="M591.086 173.956V162.845L602.197 173.956H591.086Z" fill="#011627"/>
<path d="M602.195 173.956V162.845L613.307 173.956H602.195Z" fill="#011627"/>
<path d="M613.308 173.956V162.845L624.42 173.956H613.308Z" fill="#011627"/>
<path d="M624.418 173.956V162.845L635.529 173.956H624.418Z" fill="#011627"/>
<path d="M635.531 173.956V162.845L646.643 173.956H635.531Z" fill="#011627"/>
<path d="M646.64 173.956V162.845L657.752 173.956H646.64Z" fill="#011627"/>
<path d="M568.863 162.845V151.733L579.975 162.845H568.863Z" fill="#011627"/>
<path d="M579.972 162.845V151.733L591.084 162.845H579.972Z" fill="#011627"/>
<path d="M591.086 162.845V151.733L602.197 162.845H591.086Z" fill="#011627"/>
<path d="M602.195 162.845V151.733L613.307 162.845H602.195Z" fill="#011627"/>
<path d="M613.308 162.845V151.733L624.42 162.845H613.308Z" fill="#011627"/>
<path d="M624.418 162.845V151.733L635.529 162.845H624.418Z" fill="#011627"/>
<path d="M635.531 162.845V151.733L646.643 162.845H635.531Z" fill="#011627"/>
<path d="M646.64 162.845V151.733L657.752 162.845H646.64Z" fill="#011627"/>
<path d="M568.863 151.733V140.621L579.975 151.733H568.863Z" fill="#011627"/>
<path d="M579.972 151.733V140.621L591.084 151.733H579.972Z" fill="#011627"/>
<path d="M591.086 151.733V140.621L602.197 151.733H591.086Z" fill="#011627"/>
<path d="M602.195 151.733V140.621L613.307 151.733H602.195Z" fill="#011627"/>
<path d="M613.308 151.733V140.621L624.42 151.733H613.308Z" fill="#011627"/>
<path d="M624.418 151.733V140.621L635.529 151.733H624.418Z" fill="#011627"/>
<path d="M635.531 151.733V140.621L646.643 151.733H635.531Z" fill="#011627"/>
<path d="M646.64 151.733V140.621L657.752 151.733H646.64Z" fill="#011627"/>
<path d="M568.863 140.621V129.51L579.975 140.621H568.863Z" fill="#011627"/>
<path d="M579.972 140.621V129.51L591.084 140.621H579.972Z" fill="#011627"/>
<path d="M591.086 140.621V129.51L602.197 140.621H591.086Z" fill="#011627"/>
<path d="M602.195 140.621V129.51L613.307 140.621H602.195Z" fill="#011627"/>
<path d="M613.308 140.621V129.51L624.42 140.621H613.308Z" fill="#011627"/>
<path d="M624.418 140.621V129.51L635.529 140.621H624.418Z" fill="#011627"/>
<path d="M635.531 140.621V129.51L646.643 140.621H635.531Z" fill="#011627"/>
<path d="M646.64 140.621V129.51L657.752 140.621H646.64Z" fill="#011627"/>
<path d="M568.863 129.51V118.398L579.975 129.51H568.863Z" fill="#011627"/>
<path d="M579.972 129.51V118.398L591.084 129.51H579.972Z" fill="#011627"/>
<path d="M591.086 129.51V118.398L602.197 129.51H591.086Z" fill="#011627"/>
<path d="M602.195 129.51V118.398L613.307 129.51H602.195Z" fill="#011627"/>
<path d="M613.308 129.51V118.398L624.42 129.51H613.308Z" fill="#011627"/>
<path d="M624.418 129.51V118.398L635.529 129.51H624.418Z" fill="#011627"/>
<path d="M635.531 129.51V118.398L646.643 129.51H635.531Z" fill="#011627"/>
<path d="M646.64 129.51V118.398L657.752 129.51H646.64Z" fill="#011627"/>
<path d="M568.863 118.398V107.286L579.975 118.398H568.863Z" fill="#011627"/>
<path d="M579.972 118.398V107.286L591.084 118.398H579.972Z" fill="#011627"/>
<path d="M591.086 118.398V107.286L602.197 118.398H591.086Z" fill="#011627"/>
<path d="M602.195 118.398V107.286L613.307 118.398H602.195Z" fill="#011627"/>
<path d="M613.308 118.398V107.286L624.42 118.398H613.308Z" fill="#011627"/>
<path d="M624.418 118.398V107.286L635.529 118.398H624.418Z" fill="#011627"/>
<path d="M635.531 118.398V107.286L646.643 118.398H635.531Z" fill="#011627"/>
<path d="M646.64 118.398V107.286L657.752 118.398H646.64Z" fill="#011627"/>
<rect width="88.8925" height="88.8933" transform="matrix(-1 0 0 1 124.387 196.18)" fill="#011627"/>
<path d="M124.389 240.626C124.389 265.174 104.489 285.073 79.9424 285.073V196.18C104.489 196.18 124.389 216.079 124.389 240.626Z" fill="#1D1D1D"/>
<path d="M35.4941 240.626C35.4941 265.173 55.3934 285.073 79.9404 285.073L79.9404 196.18C55.3934 196.18 35.4941 216.079 35.4941 240.626Z" fill="#8C8C8C"/>
<rect width="88.8933" height="88.8925" transform="matrix(0 -1 -1 0 213.281 285.073)" fill="#011627"/>
<path d="M124.388 218.403V207.292L135.5 218.403H124.388Z" fill="#011627"/>
<path d="M135.498 218.403V207.292L146.609 218.403H135.498Z" fill="#011627"/>
<path d="M146.611 218.403V207.292L157.723 218.403H146.611Z" fill="#011627"/>
<path d="M157.72 218.403V207.292L168.832 218.403H157.72Z" fill="#011627"/>
<path d="M168.834 218.403V207.292L179.945 218.403H168.834Z" fill="#011627"/>
<path d="M179.943 218.403V207.292L191.055 218.403H179.943Z" fill="#011627"/>
<path d="M191.056 218.403V207.292L202.168 218.403H191.056Z" fill="#011627"/>
<path d="M202.17 218.403V207.292L213.281 218.403H202.17Z" fill="#011627"/>
<path d="M124.388 207.292V196.18L135.5 207.292H124.388Z" fill="#011627"/>
<path d="M135.498 207.292V196.18L146.609 207.292H135.498Z" fill="#011627"/>
<path d="M146.611 207.292V196.18L157.723 207.292H146.611Z" fill="#011627"/>
<path d="M157.72 207.292V196.18L168.832 207.292H157.72Z" fill="#011627"/>
<path d="M168.834 207.292V196.18L179.945 207.292H168.834Z" fill="#011627"/>
<path d="M179.943 207.292V196.18L191.055 207.292H179.943Z" fill="#011627"/>
<path d="M191.056 207.292V196.18L202.168 207.292H191.056Z" fill="#011627"/>
<path d="M202.17 207.292V196.18L213.281 207.292H202.17Z" fill="#011627"/>
<rect x="213.281" y="285.073" width="88.8933" height="88.8925" transform="rotate(-90 213.281 285.073)" fill="#8C8C8C"/>
<path d="M302.174 285.073V196.18L213.281 285.073H302.174Z" fill="#011627"/>
<rect x="302.174" y="285.073" width="88.8933" height="88.8925" transform="rotate(-90 302.174 285.073)" fill="#011627"/>
<path d="M302.176 285.073C302.176 273.4 304.475 261.84 308.942 251.055C313.41 240.27 319.957 230.471 328.212 222.216C336.466 213.962 346.266 207.414 357.051 202.947C367.836 198.479 379.395 196.18 391.068 196.18L391.068 285.073H302.176Z" fill="#1D1D1D"/>
<rect x="391.068" y="285.073" width="88.8933" height="88.8925" transform="rotate(-90 391.068 285.073)" fill="#8C8C8C"/>
<rect width="88.8933" height="88.8925" transform="matrix(0 1 1 0 479.961 196.18)" fill="#011627"/>
<rect x="568.859" y="196.18" width="88.8925" height="88.8933" fill="#011627"/>
</g>
<g style="mix-blend-mode:soft-light" opacity="0.9">
<rect x="746.635" y="196.179" width="88.8933" height="88.8925" transform="rotate(90 746.635 196.179)" fill="#011627"/>
<path d="M657.742 196.179V285.072L746.635 196.179H657.742Z" fill="#212121"/>
<rect x="746.635" y="285.072" width="88.8933" height="88.8925" transform="rotate(-90 746.635 285.072)" fill="#011627"/>
<path d="M746.637 285.072C746.637 273.399 748.936 261.839 753.403 251.054C757.871 240.269 764.418 230.47 772.673 222.215C780.927 213.961 790.727 207.413 801.512 202.946C812.297 198.478 823.856 196.179 835.529 196.179L835.529 285.072H746.637Z" fill="#8C8C8C"/>
<rect width="88.8933" height="88.8925" transform="matrix(0 -1 -1 0 924.424 285.072)" fill="#011627"/>
<path d="M924.422 285.072C924.422 273.399 922.122 261.839 917.655 251.054C913.188 240.269 906.64 230.47 898.386 222.215C890.131 213.961 880.332 207.413 869.547 202.946C858.762 198.478 847.203 196.179 835.529 196.179L835.529 285.072H924.422Z" fill="#1D1D1D"/>
<rect width="88.8925" height="88.8933" transform="matrix(1 0 0 -1 924.424 285.072)" fill="#011627"/>
<path d="M968.869 196.179C968.869 220.726 988.768 240.625 1013.32 240.625V196.179H968.869Z" fill="#212121"/>
<path d="M968.869 196.179C968.869 220.726 948.97 240.625 924.423 240.625V196.179H968.869Z" fill="#1D1D1D"/>
<rect x="1013.32" y="196.179" width="88.8925" height="88.8933" fill="#011627"/>
<path d="M1013.32 240.625C1013.32 265.172 1033.22 285.072 1057.76 285.072V196.179C1033.22 196.179 1013.32 216.078 1013.32 240.625Z" fill="#1D1D1D"/>
<path d="M1102.21 240.625C1102.21 265.172 1082.31 285.072 1057.76 285.072V196.179C1082.31 196.179 1102.21 216.078 1102.21 240.625Z" fill="#1D1D1D"/>
<rect width="88.8925" height="88.8933" transform="matrix(1 0 0 -1 1102.21 285.072)" fill="#8C8C8C"/>
<rect width="44.4462" height="88.8933" transform="matrix(1 0 0 -1 1102.21 285.072)" fill="#8C8C8C"/>
<path d="M1146.66 196.179C1146.66 220.726 1166.56 240.625 1191.1 240.625V196.179H1146.66Z" fill="#011627"/>
<rect x="1279.99" y="285.072" width="88.8925" height="88.8933" transform="rotate(180 1279.99 285.072)" fill="#011627"/>
<path d="M1279.99 196.179H1191.1L1279.99 285.072V196.179Z" fill="#212121"/>
<rect x="746.637" y="196.178" width="88.8925" height="88.8933" transform="rotate(-180 746.637 196.178)" fill="#011627"/>
<path d="M746.637 151.732C746.637 127.184 726.737 107.285 702.19 107.285V196.178C726.737 196.178 746.637 176.279 746.637 151.732Z" fill="#1D1D1D"/>
<path d="M657.742 151.732C657.742 127.185 677.641 107.285 702.188 107.285V196.178C677.641 196.178 657.742 176.279 657.742 151.732Z" fill="#8C8C8C"/>
<rect x="835.529" y="107.285" width="88.8933" height="88.8925" transform="rotate(90 835.529 107.285)" fill="#011627"/>
<path d="M746.636 107.285V118.397L757.748 107.285H746.636Z" fill="#212121"/>
<path d="M757.746 107.285V118.397L768.857 107.285H757.746Z" fill="#212121"/>
<path d="M768.859 107.285V118.397L779.971 107.285H768.859Z" fill="#212121"/>
<path d="M779.969 107.285V118.397L791.08 107.285H779.969Z" fill="#212121"/>
<path d="M791.082 107.285V118.397L802.193 107.285H791.082Z" fill="#212121"/>
<path d="M802.191 107.285V118.397L813.303 107.285H802.191Z" fill="#212121"/>
<path d="M813.304 107.285V118.397L824.416 107.285H813.304Z" fill="#212121"/>
<path d="M824.418 107.285V118.397L835.529 107.285H824.418Z" fill="#212121"/>
<path d="M746.636 118.396V129.508L757.748 118.396H746.636Z" fill="#212121"/>
<path d="M757.746 118.396V129.508L768.857 118.396H757.746Z" fill="#212121"/>
<path d="M768.859 118.396V129.508L779.971 118.396H768.859Z" fill="#212121"/>
<path d="M779.969 118.396V129.508L791.08 118.396H779.969Z" fill="#212121"/>
<path d="M791.082 118.396V129.508L802.193 118.396H791.082Z" fill="#212121"/>
<path d="M802.191 118.396V129.508L813.303 118.396H802.191Z" fill="#212121"/>
<path d="M813.304 118.396V129.508L824.416 118.396H813.304Z" fill="#212121"/>
<path d="M746.636 129.508V140.62L757.748 129.508H746.636Z" fill="#212121"/>
<path d="M757.746 129.508V140.62L768.857 129.508H757.746Z" fill="#212121"/>
<path d="M768.859 129.508V140.62L779.971 129.508H768.859Z" fill="#212121"/>
<path d="M779.969 129.508V140.62L791.08 129.508H779.969Z" fill="#212121"/>
<path d="M791.082 129.508V140.62L802.193 129.508H791.082Z" fill="#212121"/>
<path d="M802.191 129.508V140.62L813.303 129.508H802.191Z" fill="#212121"/>
<path d="M746.636 140.62V151.731L757.748 140.62H746.636Z" fill="#212121"/>
<path d="M757.746 140.62V151.731L768.857 140.62H757.746Z" fill="#212121"/>
<path d="M768.859 140.62V151.731L779.971 140.62H768.859Z" fill="#212121"/>
<path d="M779.969 140.62V151.731L791.08 140.62H779.969Z" fill="#212121"/>
<path d="M791.082 140.62V151.731L802.193 140.62H791.082Z" fill="#212121"/>
<path d="M746.636 151.731V162.843L757.748 151.731H746.636Z" fill="#212121"/>
<path d="M757.746 151.731V162.843L768.857 151.731H757.746Z" fill="#212121"/>
<path d="M768.859 151.731V162.843L779.971 151.731H768.859Z" fill="#212121"/>
<path d="M779.969 151.731V162.843L791.08 151.731H779.969Z" fill="#212121"/>
<path d="M746.636 162.843V173.955L757.748 162.843H746.636Z" fill="#212121"/>
<path d="M757.746 162.843V173.955L768.857 162.843H757.746Z" fill="#212121"/>
<path d="M768.859 162.843V173.955L779.971 162.843H768.859Z" fill="#212121"/>
<path d="M746.636 173.955V185.066L757.748 173.955H746.636Z" fill="#212121"/>
<path d="M757.746 173.955V185.066L768.857 173.955H757.746Z" fill="#212121"/>
<path d="M746.636 185.067V196.178L757.748 185.067H746.636Z" fill="#212121"/>
<rect width="88.8933" height="88.8925" transform="matrix(0 1 1 0 835.529 107.285)" fill="#011627"/>
<rect width="88.8933" height="88.8925" transform="matrix(0 1 1 0 924.422 107.285)" fill="#011627"/>
<path d="M1013.31 107.285V118.397L1002.2 107.285H1013.31Z" fill="#212121"/>
<path d="M1002.21 107.285V118.397L991.094 107.285H1002.21Z" fill="#212121"/>
<path d="M991.092 107.285V118.397L979.98 107.285H991.092Z" fill="#212121"/>
<path d="M979.983 107.285V118.397L968.871 107.285H979.983Z" fill="#212121"/>
<path d="M968.869 107.285V118.397L957.758 107.285H968.869Z" fill="#212121"/>
<path d="M957.76 107.285V118.397L946.648 107.285H957.76Z" fill="#212121"/>
<path d="M946.647 107.285V118.397L935.535 107.285H946.647Z" fill="#212121"/>
<path d="M935.533 107.285V118.397L924.422 107.285H935.533Z" fill="#212121"/>
<path d="M1013.31 118.397V129.508L1002.2 118.397H1013.31Z" fill="#212121"/>
<path d="M1002.21 118.397V129.508L991.094 118.397H1002.21Z" fill="#212121"/>
<path d="M991.092 118.397V129.508L979.98 118.397H991.092Z" fill="#212121"/>
<path d="M979.983 118.397V129.508L968.871 118.397H979.983Z" fill="#212121"/>
<path d="M968.869 118.397V129.508L957.758 118.397H968.869Z" fill="#212121"/>
<path d="M957.76 118.397V129.508L946.648 118.397H957.76Z" fill="#212121"/>
<path d="M946.647 118.397V129.508L935.535 118.397H946.647Z" fill="#212121"/>
<path d="M1013.31 129.508V140.62L1002.2 129.508H1013.31Z" fill="#212121"/>
<path d="M1002.21 129.508V140.62L991.094 129.508H1002.21Z" fill="#212121"/>
<path d="M991.092 129.508V140.62L979.98 129.508H991.092Z" fill="#212121"/>
<path d="M979.983 129.508V140.62L968.871 129.508H979.983Z" fill="#212121"/>
<path d="M968.869 129.508V140.62L957.758 129.508H968.869Z" fill="#212121"/>
<path d="M957.76 129.508V140.62L946.648 129.508H957.76Z" fill="#212121"/>
<path d="M1013.31 140.62V151.732L1002.2 140.62H1013.31Z" fill="#212121"/>
<path d="M1002.21 140.62V151.732L991.094 140.62H1002.21Z" fill="#212121"/>
<path d="M991.092 140.62V151.732L979.98 140.62H991.092Z" fill="#212121"/>
<path d="M979.983 140.62V151.732L968.871 140.62H979.983Z" fill="#212121"/>
<path d="M968.869 140.62V151.732L957.758 140.62H968.869Z" fill="#212121"/>
<path d="M1013.31 151.732V162.843L1002.2 151.732H1013.31Z" fill="#212121"/>
<path d="M1002.21 151.732V162.843L991.094 151.732H1002.21Z" fill="#212121"/>
<path d="M991.092 151.732V162.843L979.98 151.732H991.092Z" fill="#212121"/>
<path d="M979.983 151.732V162.843L968.871 151.732H979.983Z" fill="#212121"/>
<path d="M1013.31 162.843V173.955L1002.2 162.843H1013.31Z" fill="#212121"/>
<path d="M1002.21 162.843V173.955L991.094 162.843H1002.21Z" fill="#212121"/>
<path d="M991.092 162.843V173.955L979.98 162.843H991.092Z" fill="#212121"/>
<path d="M1013.31 173.955V185.066L1002.2 173.955H1013.31Z" fill="#212121"/>
<path d="M1002.21 173.955V185.066L991.094 173.955H1002.21Z" fill="#212121"/>
<path d="M1013.31 185.067V196.178L1002.2 185.067H1013.31Z" fill="#212121"/>
<rect width="88.8933" height="88.8925" transform="matrix(0 1 1 0 1013.31 107.285)" fill="#8C8C8C"/>
<rect width="88.8933" height="88.8925" transform="matrix(0 1 1 0 1102.21 107.285)" fill="#011627"/>
<rect width="44.4466" height="88.8925" transform="matrix(0 1 1 0 1102.21 107.285)" fill="#212121"/>
<path d="M1191.1 151.732C1166.56 151.732 1146.66 171.631 1146.66 196.178H1191.1V151.732Z" fill="#1D1D1D"/>
<rect width="88.8933" height="88.8925" transform="matrix(0 -1 -1 0 1280 196.178)" fill="#011627"/>
<path d="M1280 107.285C1280 118.959 1277.7 130.518 1273.23 141.303C1268.76 152.088 1262.22 161.888 1253.96 170.142C1245.71 178.397 1235.91 184.944 1225.12 189.412C1214.34 193.879 1202.78 196.178 1191.11 196.178L1191.11 107.285H1280Z" fill="#8C8C8C"/>
<path d="M1235.55 107.285C1235.55 113.122 1234.4 118.902 1232.17 124.294C1229.93 129.687 1226.66 134.586 1222.53 138.714C1218.41 142.841 1213.51 146.115 1208.11 148.349C1202.72 150.582 1196.94 151.732 1191.11 151.732L1191.11 107.285H1235.55Z" fill="#1D1D1D"/>
<rect width="88.8933" height="88.8925" transform="matrix(0 1 1 0 657.742 18.3915)" fill="#011627"/>
<path d="M657.747 62.8384C682.294 62.8384 702.193 82.7378 702.193 107.285H657.747V62.8384Z" fill="#8C8C8C"/>
<path d="M746.64 62.8384C722.093 62.8384 702.193 82.7378 702.193 107.285H746.64V62.8384Z" fill="#1D1D1D"/>
<path d="M657.747 62.8384C682.294 62.8384 702.193 42.9389 702.193 18.3917H657.747V62.8384Z" fill="#8C8C8C"/>
<path d="M746.64 62.8384C722.093 62.8384 702.193 42.9389 702.193 18.3917H746.64V62.8384Z" fill="#1D1D1D"/>
<rect x="835.531" y="18.3914" width="88.8933" height="88.8925" transform="rotate(90 835.531 18.3914)" fill="#011627"/>
<path d="M835.531 107.285C835.531 95.6111 833.232 84.0518 828.765 73.2668C824.297 62.4818 817.75 52.6822 809.495 44.4277C801.241 36.1732 791.441 29.6254 780.656 25.1581C769.871 20.6908 758.312 18.3915 746.639 18.3915L746.639 107.285H835.531Z" fill="#212121"/>
<path d="M791.085 107.285C791.085 101.448 789.935 95.6684 787.702 90.2759C785.468 84.8834 782.194 79.9836 778.067 75.8564C773.94 71.7291 769.04 68.4552 763.648 66.2216C758.255 63.9879 752.475 62.8383 746.639 62.8383L746.639 107.285H791.085Z" fill="#1D1D1D"/>
<rect width="88.8933" height="88.8925" transform="matrix(0 1 1 0 835.531 18.3915)" fill="#011627"/>
<path d="M835.535 107.285C835.535 95.6113 837.835 84.0519 842.302 73.2669C846.769 62.4819 853.317 52.6823 861.571 44.4278C869.826 36.1733 879.625 29.6255 890.41 25.1582C901.195 20.6909 912.754 18.3916 924.428 18.3916L924.428 107.285H835.535Z" fill="#8C8C8C"/>
<rect x="1013.32" y="18.3916" width="88.8933" height="88.8925" transform="rotate(90 1013.32 18.3916)" fill="#212121"/>
<path d="M924.428 18.3916V107.285L1013.32 18.3916L924.428 18.3916Z" fill="#212121"/>
<rect x="1013.32" y="107.285" width="88.8933" height="88.8925" transform="rotate(-90 1013.32 107.285)" fill="#011627"/>
<path d="M1057.77 62.8383C1082.31 62.8383 1102.21 42.9388 1102.21 18.3916L1013.32 18.3916C1013.32 42.9388 1033.22 62.8383 1057.77 62.8383Z" fill="#1D1D1D"/>
<path d="M1057.77 62.8383C1082.31 62.8383 1102.21 82.7377 1102.21 107.285L1013.32 107.285C1013.32 82.7377 1033.22 62.8383 1057.77 62.8383Z" fill="#8C8C8C"/>
<rect width="88.8933" height="88.8925" transform="matrix(0 1 1 0 1102.21 18.3914)" fill="#011627"/>
<path d="M1146.66 62.8383C1171.21 62.8383 1191.11 82.7377 1191.11 107.285H1102.21C1102.21 82.7377 1122.11 62.8383 1146.66 62.8383Z" fill="#1D1D1D"/>
<rect x="1280" y="18.3916" width="88.8933" height="88.8925" transform="rotate(90 1280 18.3916)" fill="#011627"/>
<path d="M1191.11 18.3916V29.5033L1202.22 18.3916H1191.11Z" fill="#212121"/>
<path d="M1202.22 18.3916V29.5033L1213.33 18.3916H1202.22Z" fill="#212121"/>
<path d="M1213.33 18.3916V29.5033L1224.44 18.3916H1213.33Z" fill="#212121"/>
<path d="M1224.44 18.3916V29.5033L1235.55 18.3916H1224.44Z" fill="#212121"/>
<path d="M1235.55 18.3916V29.5033L1246.67 18.3916H1235.55Z" fill="#212121"/>
<path d="M1246.66 18.3916V29.5033L1257.78 18.3916H1246.66Z" fill="#212121"/>
<path d="M1257.78 18.3916V29.5033L1268.89 18.3916H1257.78Z" fill="#212121"/>
<path d="M1268.89 18.3916V29.5033L1280 18.3916H1268.89Z" fill="#212121"/>
<path d="M1191.11 29.5037V40.6153L1202.22 29.5037H1191.11Z" fill="#212121"/>
<path d="M1202.22 29.5037V40.6153L1213.33 29.5037H1202.22Z" fill="#212121"/>
<path d="M1213.33 29.5037V40.6153L1224.44 29.5037H1213.33Z" fill="#212121"/>
<path d="M1224.44 29.5037V40.6153L1235.55 29.5037H1224.44Z" fill="#212121"/>
<path d="M1235.55 29.5037V40.6153L1246.67 29.5037H1235.55Z" fill="#212121"/>
<path d="M1246.66 29.5037V40.6153L1257.78 29.5037H1246.66Z" fill="#212121"/>
<path d="M1257.78 29.5037V40.6153L1268.89 29.5037H1257.78Z" fill="#212121"/>
<path d="M1268.89 29.5037V40.6153L1280 29.5037H1268.89Z" fill="#212121"/>
<path d="M1191.11 40.6151V51.7268L1202.22 40.6151H1191.11Z" fill="#212121"/>
<path d="M1202.22 40.6151V51.7268L1213.33 40.6151H1202.22Z" fill="#212121"/>
<path d="M1213.33 40.6151V51.7268L1224.44 40.6151H1213.33Z" fill="#212121"/>
<path d="M1224.44 40.6151V51.7268L1235.55 40.6151H1224.44Z" fill="#212121"/>
<path d="M1235.55 40.6151V51.7268L1246.67 40.6151H1235.55Z" fill="#212121"/>
<path d="M1246.66 40.6151V51.7268L1257.78 40.6151H1246.66Z" fill="#212121"/>
<path d="M1257.78 40.6151V51.7268L1268.89 40.6151H1257.78Z" fill="#212121"/>
<path d="M1268.89 40.6151V51.7268L1280 40.6151H1268.89Z" fill="#212121"/>
<path d="M1191.11 51.7264V62.8381L1202.22 51.7264H1191.11Z" fill="#212121"/>
<path d="M1202.22 51.7266V62.8382L1213.33 51.7266H1202.22Z" fill="#212121"/>
<path d="M1213.33 51.7264V62.8381L1224.44 51.7264H1213.33Z" fill="#212121"/>
<path d="M1224.44 51.7264V62.8381L1235.55 51.7264H1224.44Z" fill="#212121"/>
<path d="M1235.55 51.7264V62.8381L1246.67 51.7264H1235.55Z" fill="#212121"/>
<path d="M1246.66 51.7264V62.8381L1257.78 51.7264H1246.66Z" fill="#212121"/>
<path d="M1257.78 51.7264V62.8381L1268.89 51.7264H1257.78Z" fill="#212121"/>
<path d="M1268.89 51.7264V62.8381L1280 51.7264H1268.89Z" fill="#212121"/>
<path d="M1191.11 62.8385V73.9502L1202.22 62.8385H1191.11Z" fill="#212121"/>
<path d="M1202.22 62.8385V73.9502L1213.33 62.8385H1202.22Z" fill="#212121"/>
<path d="M1213.33 62.8385V73.9502L1224.44 62.8385H1213.33Z" fill="#212121"/>
<path d="M1224.44 62.8385V73.9502L1235.55 62.8385H1224.44Z" fill="#212121"/>
<path d="M1235.55 62.8385V73.9502L1246.67 62.8385H1235.55Z" fill="#212121"/>
<path d="M1246.66 62.8385V73.9502L1257.78 62.8385H1246.66Z" fill="#212121"/>
<path d="M1257.78 62.8385V73.9502L1268.89 62.8385H1257.78Z" fill="#212121"/>
<path d="M1268.89 62.8385V73.9502L1280 62.8385H1268.89Z" fill="#212121"/>
<path d="M1191.11 73.9501V85.0617L1202.22 73.9501H1191.11Z" fill="#212121"/>
<path d="M1202.22 73.9501V85.0617L1213.33 73.9501H1202.22Z" fill="#212121"/>
<path d="M1213.33 73.9501V85.0617L1224.44 73.9501H1213.33Z" fill="#212121"/>
<path d="M1224.44 73.9501V85.0617L1235.55 73.9501H1224.44Z" fill="#212121"/>
<path d="M1235.55 73.9501V85.0617L1246.67 73.9501H1235.55Z" fill="#212121"/>
<path d="M1246.66 73.9501V85.0617L1257.78 73.9501H1246.66Z" fill="#212121"/>
<path d="M1257.78 73.9501V85.0617L1268.89 73.9501H1257.78Z" fill="#212121"/>
<path d="M1268.89 73.9501V85.0617L1280 73.9501H1268.89Z" fill="#212121"/>
<path d="M1191.11 85.0618V96.1734L1202.22 85.0618H1191.11Z" fill="#212121"/>
<path d="M1202.22 85.0618V96.1734L1213.33 85.0618H1202.22Z" fill="#212121"/>
<path d="M1213.33 85.0618V96.1734L1224.44 85.0618H1213.33Z" fill="#212121"/>
<path d="M1224.44 85.0618V96.1734L1235.55 85.0618H1224.44Z" fill="#212121"/>
<path d="M1235.55 85.0618V96.1734L1246.67 85.0618H1235.55Z" fill="#212121"/>
<path d="M1246.66 85.0618V96.1734L1257.78 85.0618H1246.66Z" fill="#212121"/>
<path d="M1257.78 85.0618V96.1734L1268.89 85.0618H1257.78Z" fill="#212121"/>
<path d="M1268.89 85.0618V96.1734L1280 85.0618H1268.89Z" fill="#212121"/>
<path d="M1191.11 96.1732V107.285L1202.22 96.1732H1191.11Z" fill="#212121"/>
<path d="M1202.22 96.1733V107.285L1213.33 96.1733H1202.22Z" fill="#212121"/>
<path d="M1213.33 96.1732V107.285L1224.44 96.1732H1213.33Z" fill="#212121"/>
<path d="M1224.44 96.1732V107.285L1235.55 96.1732H1224.44Z" fill="#212121"/>
<path d="M1235.55 96.1732V107.285L1246.67 96.1732H1235.55Z" fill="#212121"/>
<path d="M1246.66 96.1732V107.285L1257.78 96.1732H1246.66Z" fill="#212121"/>
<path d="M1257.78 96.1732V107.285L1268.89 96.1732H1257.78Z" fill="#212121"/>
<path d="M1268.89 96.1732V107.285L1280 96.1732H1268.89Z" fill="#212121"/>
<rect x="746.637" y="18.3911" width="88.8925" height="88.8933" transform="rotate(-180 746.637 18.3911)" fill="#011627"/>
<path d="M746.637 -26.0554C746.637 -50.6026 726.737 -70.5021 702.19 -70.5021V18.3912C726.737 18.3912 746.637 -1.50822 746.637 -26.0554Z" fill="#1D1D1D"/>
<path d="M657.742 -26.0553C657.742 -50.6025 677.641 -70.502 702.188 -70.502V18.3913C677.641 18.3913 657.742 -1.5081 657.742 -26.0553Z" fill="#8C8C8C"/>
<rect x="835.529" y="-70.502" width="88.8933" height="88.8925" transform="rotate(90 835.529 -70.502)" fill="#011627"/>
<path d="M746.636 -3.83228V7.27939L757.748 -3.83228L746.636 -3.83228Z" fill="#212121"/>
<path d="M757.746 -3.83228V7.27939L768.857 -3.83228L757.746 -3.83228Z" fill="#212121"/>
<path d="M768.859 -3.83228V7.27939L779.971 -3.83228L768.859 -3.83228Z" fill="#212121"/>
<path d="M779.969 -3.83228V7.27939L791.08 -3.83228L779.969 -3.83228Z" fill="#212121"/>
<path d="M791.082 -3.83228V7.27939L802.193 -3.83228L791.082 -3.83228Z" fill="#212121"/>
<path d="M802.191 -3.83228V7.27939L813.303 -3.83228L802.191 -3.83228Z" fill="#212121"/>
<path d="M813.304 -3.83228V7.27939L824.416 -3.83228L813.304 -3.83228Z" fill="#212121"/>
<path d="M824.418 -3.83228V7.27939L835.529 -3.83228L824.418 -3.83228Z" fill="#212121"/>
<path d="M746.636 7.27954V18.3912L757.748 7.27954L746.636 7.27954Z" fill="#212121"/>
<path d="M757.746 7.27954V18.3912L768.857 7.27954L757.746 7.27954Z" fill="#212121"/>
<path d="M768.859 7.27954V18.3912L779.971 7.27954L768.859 7.27954Z" fill="#212121"/>
<path d="M779.969 7.27954V18.3912L791.08 7.27954L779.969 7.27954Z" fill="#212121"/>
<path d="M791.082 7.27954V18.3912L802.193 7.27954L791.082 7.27954Z" fill="#212121"/>
<path d="M802.191 7.27954V18.3912L813.303 7.27954L802.191 7.27954Z" fill="#212121"/>
<path d="M813.304 7.27954V18.3912L824.416 7.27954L813.304 7.27954Z" fill="#212121"/>
<path d="M824.418 7.27954V18.3912L835.529 7.27954L824.418 7.27954Z" fill="#212121"/>
<rect width="88.8933" height="88.8925" transform="matrix(0 1 1 0 835.529 -70.502)" fill="#8C8C8C"/>
<path d="M924.422 -70.502V18.3913L835.529 -70.502H924.422Z" fill="#212121"/>
<rect width="88.8933" height="88.8925" transform="matrix(0 1 1 0 924.422 -70.5018)" fill="#212121"/>
<path d="M924.422 -70.5022C924.422 -58.8285 926.721 -47.2692 931.189 -36.4842C935.656 -25.6992 942.204 -15.8996 950.458 -7.64513C958.712 0.609377 968.512 7.15721 979.297 11.6245C990.082 16.0918 1001.64 18.3911 1013.31 18.3911L1013.31 -70.5022H924.422Z" fill="#1D1D1D"/>
<rect width="88.8933" height="88.8925" transform="matrix(0 1 1 0 1013.31 -70.502)" fill="#8C8C8C"/>
<rect x="1102.21" y="18.3914" width="88.8933" height="88.8925" transform="rotate(-90 1102.21 18.3914)" fill="#011627"/>
<rect width="88.8925" height="88.8933" transform="matrix(1 0 0 -1 1191.11 18.3914)" fill="#011627"/>
</g>
</svg>
