<svg width="83" height="83" viewBox="0 0 83 83" fill="none" xmlns="http://www.w3.org/2000/svg">
<g id="game">
<path id="Vector" d="M22.7861 80.1125C22.7861 80.2288 22.7238 80.3584 22.5698 80.4949C22.416 80.6313 22.1845 80.7612 21.8849 80.8736C21.287 81.0978 20.4503 81.2397 19.5185 81.2397C18.5866 81.2397 17.75 81.0978 17.152 80.8736C16.8524 80.7612 16.6209 80.6313 16.4671 80.4949C16.3131 80.3584 16.2508 80.2288 16.2508 80.1125C16.2508 79.9962 16.3131 79.8667 16.4671 79.7301C16.6209 79.5938 16.8524 79.4638 17.152 79.3515C17.75 79.1272 18.5866 78.9853 19.5185 78.9853C20.4503 78.9853 21.287 79.1272 21.8849 79.3515C22.1845 79.4638 22.416 79.5938 22.5698 79.7301C22.7238 79.8667 22.7861 79.9962 22.7861 80.1125Z" fill="black" stroke="black" stroke-width="0.314103"/>
<path id="Vector_2" d="M31.0029 79.9412C31.0029 80.0575 30.9406 80.1871 30.7866 80.3236C30.6328 80.46 30.4013 80.59 30.1017 80.7023C29.5038 80.9266 28.6671 81.0685 27.7353 81.0685C26.8034 81.0685 25.9667 80.9266 25.3688 80.7023C25.0692 80.59 24.8377 80.46 24.6839 80.3236C24.5299 80.1871 24.4676 80.0575 24.4676 79.9412C24.4676 79.825 24.5299 79.6954 24.6839 79.5589C24.8377 79.4225 25.0692 79.2925 25.3688 79.1802C25.9667 78.9559 26.8034 78.814 27.7353 78.814C28.6671 78.814 29.5038 78.9559 30.1017 79.1802C30.4013 79.2925 30.6328 79.4225 30.7866 79.5589C30.9406 79.6954 31.0029 79.825 31.0029 79.9412Z" fill="black" stroke="black" stroke-width="0.314103"/>
<path id="Vector_3" d="M43.3101 54.5003C43.4201 54.6911 43.4157 54.9688 43.2543 55.3408C43.0944 55.7094 42.7923 56.1402 42.3641 56.6057C41.5091 57.5352 40.1766 58.5763 38.5684 59.5034C36.9601 60.4305 35.3915 61.0619 34.1586 61.336C33.5412 61.4733 33.017 61.5189 32.6179 61.4725C32.2151 61.4258 31.9726 61.2903 31.8626 61.0995C31.7525 60.9087 31.7569 60.631 31.9183 60.259C32.0782 59.8903 32.3803 59.4596 32.8085 58.9941C33.6635 58.0645 34.996 57.0235 36.6043 56.0964C38.2125 55.1693 39.7812 54.5379 41.014 54.2638C41.6314 54.1265 42.1556 54.0809 42.5547 54.1272C42.9576 54.174 43.2001 54.3094 43.3101 54.5003Z" fill="black" stroke="black" stroke-width="0.314103"/>
<path id="Vector_4" d="M24.3998 48.8495C31.6888 50.0324 36.6388 56.9001 35.4559 64.1891C34.2731 71.4781 27.4053 76.4281 20.1163 75.2453C12.8274 74.0624 7.87734 67.1946 9.06018 59.9057C10.243 52.6167 17.1108 47.6667 24.3998 48.8495Z" fill="black" stroke="black" stroke-width="0.314103"/>
<path id="Vector_5" d="M16.2508 79.87V72.821H20.0463V79.87H16.2508Z" fill="black" stroke="black" stroke-width="0.314103"/>
<path id="Vector_6" d="M24.4676 79.8699V72.8209H28.2631V79.8699H24.4676Z" fill="black" stroke="black" stroke-width="0.314103"/>
<path id="Vector_7" d="M22.598 63.246C25.1514 63.246 27.2213 61.176 27.2213 58.6226C27.2213 56.0692 25.1514 53.9993 22.598 53.9993C20.0446 53.9993 17.9746 56.0692 17.9746 58.6226C17.9746 61.176 20.0446 63.246 22.598 63.246Z" fill="white"/>
<path id="Vector_8" d="M23.9838 58.6225C23.9838 59.3869 23.3641 60.0066 22.5997 60.0066C21.8353 60.0066 21.2156 59.3869 21.2156 58.6225C21.2156 57.8581 21.8353 57.2385 22.5997 57.2385C23.3641 57.2385 23.9838 57.8581 23.9838 58.6225Z" fill="black" stroke="black" stroke-width="0.314103"/>
<path id="Vector_9" d="M9.13749 49.4671C8.0452 44.5753 11.5368 39.6324 16.9362 38.4267C22.3356 37.2211 27.5982 40.2093 28.6905 45.1011C29.7828 49.9928 26.2044 51.797 20.805 53.0026C15.4056 54.2082 10.2298 54.3589 9.13749 49.4671Z" fill="#E6E6E6"/>
<path id="Vector_10" d="M7.86379 53.9938C9.54105 54.7893 10.9526 55.7204 11.8792 56.5785C12.3432 57.0083 12.6789 57.4135 12.8678 57.7681C13.0584 58.126 13.0849 58.4025 12.9905 58.6015C12.8962 58.8006 12.6653 58.955 12.2675 59.0338C11.8733 59.1119 11.3472 59.1084 10.7208 59.021C9.46995 58.8464 7.85581 58.3425 6.17855 57.547C4.50129 56.7515 3.0898 55.8204 2.16316 54.9622C1.69913 54.5325 1.3635 54.1272 1.1746 53.7726C0.983964 53.4147 0.957427 53.1382 1.05182 52.9392C1.14621 52.7402 1.37711 52.5858 1.77488 52.507C2.16903 52.4288 2.69518 52.4324 3.32156 52.5198C4.5724 52.6944 6.18653 53.1983 7.86379 53.9938Z" fill="black" stroke="black" stroke-width="0.314103"/>
<path id="Vector_11" d="M15.6172 66.9278C15.6172 68.2518 19.0262 70.8662 22.809 70.8662C26.5919 70.8662 30.1387 67.1387 30.1387 65.8148C30.1387 64.4908 26.5918 66.0716 22.809 66.0716C19.0262 66.0716 15.6172 65.6038 15.6172 66.9278Z" fill="white"/>
<path id="Vector_12" d="M72.6963 80.1128C72.6963 80.229 72.634 80.3586 72.48 80.4951C72.3262 80.6315 72.0947 80.7615 71.7951 80.8738C71.1971 81.0981 70.3605 81.24 69.4286 81.24C68.4968 81.24 67.6601 81.0981 67.0621 80.8738C66.7626 80.7615 66.531 80.6315 66.3772 80.4951C66.2232 80.3586 66.161 80.229 66.161 80.1128C66.161 79.9965 66.2232 79.8669 66.3772 79.7304C66.531 79.594 66.7626 79.464 67.0621 79.3517C67.6601 79.1275 68.4968 78.9855 69.4286 78.9855C70.3605 78.9855 71.1971 79.1275 71.7951 79.3517C72.0947 79.464 72.3262 79.594 72.48 79.7304C72.634 79.8669 72.6963 79.9965 72.6963 80.1128Z" fill="black" stroke="black" stroke-width="0.314103"/>
<path id="Vector_13" d="M64.4756 79.9414C64.4756 80.0576 64.4133 80.1872 64.2593 80.3237C64.1055 80.4601 63.874 80.5901 63.5744 80.7024C62.9764 80.9267 62.1398 81.0686 61.2079 81.0686C60.276 81.0686 59.4394 80.9267 58.8414 80.7024C58.5418 80.5901 58.3103 80.4601 58.1565 80.3237C58.0025 80.1872 57.9403 80.0576 57.9403 79.9414C57.9403 79.8251 58.0025 79.6955 58.1565 79.559C58.3103 79.4226 58.5418 79.2926 58.8414 79.1803C59.4394 78.9561 60.276 78.8142 61.2079 78.8142C62.1398 78.8142 62.9764 78.9561 63.5744 79.1803C63.874 79.2926 64.1055 79.4226 64.2593 79.559C64.4133 79.6955 64.4756 79.8251 64.4756 79.9414Z" fill="black" stroke="black" stroke-width="0.314103"/>
<path id="Vector_14" d="M52.3359 56.0963C53.9442 57.0235 55.2767 58.0645 56.1317 58.9941C56.5599 59.4595 56.862 59.8903 57.0219 60.2589C57.1833 60.6309 57.1877 60.9087 57.0776 61.0995C56.9676 61.2903 56.7251 61.4257 56.3223 61.4725C55.9232 61.5188 55.399 61.4732 54.7816 61.336C53.5487 61.0619 51.9801 60.4305 50.3719 59.5034C48.7636 58.5762 47.4311 57.5352 46.5761 56.6056C46.1479 56.1402 45.8458 55.7094 45.6858 55.3408C45.5245 54.9688 45.5201 54.6911 45.6301 54.5002C45.7401 54.3094 45.9826 54.174 46.3855 54.1272C46.7846 54.0809 47.3088 54.1265 47.9262 54.2637C49.159 54.5378 50.7277 55.1692 52.3359 56.0963Z" fill="black" stroke="black" stroke-width="0.314103"/>
<path id="Vector_15" d="M80.0602 62.0472C80.0602 69.4315 74.074 75.4177 66.6897 75.4177C59.3053 75.4177 53.3192 69.4315 53.3192 62.0472C53.3192 54.6629 59.3053 48.6767 66.6897 48.6767C74.074 48.6767 80.0602 54.6629 80.0602 62.0472Z" fill="black" stroke="black" stroke-width="0.314103"/>
<path id="Vector_16" d="M68.8973 79.8697V72.8207H72.6928V79.8697H68.8973Z" fill="black" stroke="black" stroke-width="0.314103"/>
<path id="Vector_17" d="M60.6805 79.8697V72.8207H64.476V79.8697H60.6805Z" fill="black" stroke="black" stroke-width="0.314103"/>
<path id="Vector_18" d="M63.5218 63.246C66.0752 63.246 68.1451 61.176 68.1451 58.6226C68.1451 56.0692 66.0752 53.9993 63.5218 53.9993C60.9684 53.9993 58.8984 56.0692 58.8984 58.6226C58.8984 61.176 60.9684 63.246 63.5218 63.246Z" fill="white"/>
<path id="Vector_19" d="M62.3009 57.013C62.838 57.5505 62.8356 58.4262 62.2924 58.969C61.7491 59.5117 60.8734 59.5133 60.3364 58.9758C59.7994 58.4383 59.8018 57.5626 60.345 57.0198C60.8882 56.4771 61.7639 56.4755 62.3009 57.013Z" fill="black" stroke="black" stroke-width="0.314103"/>
<path id="Vector_20" d="M68.1424 53.0026C62.743 51.797 59.1647 49.9928 60.2569 45.1011C61.3492 40.2093 66.6118 37.2211 72.0112 38.4267C77.4106 39.6324 80.9022 44.5753 79.8099 49.4671C78.7176 54.3588 73.5419 54.2082 68.1424 53.0026Z" fill="#7F95D1"/>
<path id="Vector_21" d="M80.9936 65.3169C81.4701 67.111 81.6714 68.79 81.6152 70.0517C81.587 70.6835 81.4945 71.2015 81.3459 71.5748C81.1959 71.9515 81.002 72.1504 80.7892 72.207C80.5763 72.2635 80.3092 72.187 79.9921 71.9344C79.6778 71.684 79.3405 71.2802 79.0025 70.7456C78.3276 69.6781 77.6693 68.1205 77.1928 66.3264C76.7162 64.5323 76.5149 62.8533 76.5712 61.5916C76.5994 60.9598 76.6918 60.4418 76.8404 60.0685C76.9904 59.6917 77.1843 59.4928 77.3972 59.4363C77.6101 59.3798 77.8771 59.4562 78.1943 59.7089C78.5086 59.9593 78.8458 60.3631 79.1838 60.8977C79.8588 61.9652 80.5171 63.5228 80.9936 65.3169Z" fill="black" stroke="black" stroke-width="0.314103"/>
<path id="Vector_22" d="M63.6207 66.0716C61.1372 66.0716 58.8086 64.4908 58.8086 65.8148C58.8086 67.1387 61.1372 70.8662 63.6207 70.8662C66.1042 70.8662 68.3423 68.2518 68.3423 66.9278C68.3423 65.6038 66.1042 66.0716 63.6207 66.0716Z" fill="white"/>
<path id="Vector_23" d="M46.1367 39.618H44.9354C43.8592 39.6168 42.8275 39.1887 42.0665 38.4277C41.3055 37.6668 40.8775 36.635 40.8763 35.5589V34.5503C40.8763 32.0522 41.3496 29.9605 42.2831 28.3334C43.4145 26.4408 44.7344 24.6674 46.2226 23.0403C47.2106 22.0467 48.1071 20.9662 48.9012 19.8117C49.471 18.9148 49.7651 17.8705 49.7472 16.8081C49.7472 14.3022 48.1146 13.084 44.7559 13.084C42.8928 13.105 41.0415 13.3829 39.2544 13.9097C38.5651 14.1065 37.8397 14.1405 37.135 14.0093C36.4304 13.8781 35.7658 13.5851 35.1937 13.1534C34.6215 12.7217 34.1573 12.1631 33.8377 11.5216C33.518 10.88 33.3516 10.1731 33.3516 9.4563V7.41463C33.3477 6.53572 33.5987 5.67454 34.0744 4.93548C34.5501 4.19641 35.23 3.6112 36.0316 3.25078C39.1879 1.90377 42.5918 1.23414 46.0232 1.28518C49.6179 1.28518 52.8629 1.889 55.6684 3.07962C58.4789 4.27299 60.6994 5.95577 62.268 8.08133C63.832 10.1918 64.6633 12.7557 64.6352 15.3824C64.6352 18.203 63.8651 20.6597 62.3464 22.6842C60.8443 24.6881 58.691 26.8819 55.9463 29.205C54.5001 30.4077 53.1297 31.6987 51.843 33.0706C51.0119 33.9658 50.4245 35.0593 50.137 36.2466C49.9769 37.191 49.4871 38.048 48.7546 38.6653C48.0222 39.2826 47.0946 39.6201 46.1367 39.618Z" fill="#7F95D1"/>
<path id="Vector_24" d="M45.4697 58.7067H45.3112C43.3168 58.7054 41.4045 57.9122 39.9947 56.5015C38.5849 55.0907 37.793 53.1779 37.793 51.1835C37.793 49.1891 38.5849 47.2763 39.9947 45.8656C41.4045 44.4549 43.3168 43.6617 45.3112 43.6604H45.4697C46.458 43.6598 47.4368 43.8539 48.3501 44.2317C49.2634 44.6095 50.0934 45.1635 50.7925 45.8622C51.4916 46.5608 52.0461 47.3904 52.4245 48.3034C52.8029 49.2165 52.9977 50.1952 52.9977 51.1835C52.9977 52.1719 52.8029 53.1506 52.4245 54.0636C52.0461 54.9767 51.4916 55.8063 50.7925 56.5049C50.0934 57.2036 49.2634 57.7576 48.3501 58.1354C47.4368 58.5132 46.458 58.7073 45.4697 58.7067Z" fill="#7F95D1"/>
<path id="Vector_25" d="M17.468 26.3101C17.468 27.3452 16.6289 28.1843 15.5938 28.1843C14.5587 28.1843 13.7196 27.3452 13.7196 26.3101C13.7196 25.275 14.5587 24.4359 15.5938 24.4359C16.6289 24.4359 17.468 25.275 17.468 26.3101Z" fill="black" stroke="black" stroke-width="0.314103"/>
</g>
</svg>
