<svg width="100" height="80" viewBox="0 0 100 80" fill="none" xmlns="http://www.w3.org/2000/svg">
<g id="love" clip-path="url(#clip0_8347_2848)">
<g id="Group">
<path id="Vector" d="M14.1075 10.0007L14.1283 9.96112L14.1166 9.91798C13.9294 9.23233 14.1626 8.56322 14.666 7.97073C15.1701 7.37726 15.9379 6.87131 16.7887 6.52629C17.6392 6.1814 18.5629 6.00124 19.3737 6.05052C20.1855 6.09986 20.8679 6.37737 21.2644 6.92963L21.3575 7.05931L21.4493 6.92866C21.4938 6.86527 21.5751 6.79986 21.6885 6.73923C21.8004 6.67946 21.9354 6.62858 22.0777 6.59026C22.3647 6.51294 22.658 6.49268 22.8309 6.53586C23.2063 6.66166 23.5533 6.86078 23.8519 7.12182L23.8517 7.12198L23.8572 7.12621C24.3119 7.4771 24.7588 7.82372 25.0221 8.29994L25.0224 8.30042C25.2872 8.77382 25.3151 9.39728 24.9824 9.7809L24.9822 9.78106C24.9207 9.85222 24.8237 9.9228 24.6984 9.99034C24.5743 10.0573 24.4287 10.1179 24.2759 10.1716C23.9705 10.2791 23.645 10.3561 23.4244 10.4009L23.4242 10.4009C23.146 10.4579 22.9085 10.5048 22.7019 10.5403C22.5394 10.2779 22.466 9.96871 22.4941 9.65956L22.5158 9.42112L22.3176 9.55544C21.9823 9.78269 21.7658 10.1485 21.7273 10.5527L21.7271 10.5544C21.7263 10.5646 21.7271 10.5729 21.7273 10.5751C21.7276 10.5787 21.728 10.5818 21.7284 10.5838C21.729 10.5881 21.7298 10.5923 21.7305 10.5959C21.732 10.6032 21.734 10.6124 21.7364 10.6227C21.7412 10.6436 21.7483 10.6728 21.7574 10.7092C21.7757 10.7823 21.8027 10.8869 21.8369 11.0183C21.9054 11.2811 22.0036 11.6521 22.1216 12.095C22.3574 12.9809 22.6725 14.1548 22.9877 15.3263C23.303 16.4977 23.6184 17.6668 23.855 18.543L24.141 19.6014L24.2211 19.8978L24.2264 19.9173C23.978 20.054 23.7193 20.1709 23.4527 20.2668C22.8286 19.2927 22.3489 18.2322 22.029 17.1188L21.8072 17.139C21.7303 17.918 21.74 18.7033 21.8362 19.4801C21.8828 19.8769 21.9478 20.2713 22.031 20.6619C20.562 20.9662 18.7481 21.0613 17.0591 20.754C15.3382 20.441 13.7618 19.7133 12.8017 18.3807C12.7963 18.0594 12.5329 17.802 12.2116 17.8065C11.978 17.8098 11.7697 17.9528 11.6814 18.1685C11.2861 16.2333 12.0387 13.9278 14.1075 10.0007Z" fill="black" stroke="black" stroke-width="0.226757"/>
<path id="Vector_2" d="M22.3799 62.9426L22.2672 62.9297L22.2672 62.93L22.2671 62.9309L22.2666 62.9348L22.2649 62.9499L22.258 63.0099L22.2309 63.2434C22.2071 63.4478 22.1721 63.7469 22.1272 64.1261C22.0375 64.8845 21.9083 65.9633 21.7506 67.2444C21.4352 69.8066 21.0056 73.178 20.5488 76.4154L22.3799 62.9426ZM22.3799 62.9426L22.2672 62.9297L22.4924 62.9286L24.0819 75.7269L24.0819 75.7271L24.1233 76.056M22.3799 62.9426L24.1233 76.056M34.7336 73.4926L34.6204 73.4996C34.4143 70.1591 34.2184 66.639 34.0449 63.5215C33.7981 59.0886 33.5967 55.4697 33.4757 54.3388L33.4744 54.3267H33.4747C33.4366 53.9679 33.4069 53.6847 33.3867 53.4908L33.3635 53.2671L33.3579 53.2133L27.0622 41.889L26.9975 41.8904C26.9107 41.8922 26.7832 41.8949 26.6203 41.8986C26.2946 41.9058 25.8276 41.9168 25.2625 41.9314C24.1323 41.9606 22.61 42.0045 21.0411 42.0633C19.4721 42.1221 17.8573 42.1957 16.542 42.2844C15.8843 42.3287 15.3024 42.3767 14.8391 42.4283C14.4269 42.4743 14.1161 42.5224 13.929 42.5713C13.5923 45.0395 13.271 46.7667 13.0525 47.6381C12.9974 47.8579 12.948 48.0266 12.9056 48.14C12.8848 48.1957 12.8635 48.244 12.8414 48.2793C12.8307 48.2962 12.8153 48.3177 12.7938 48.3348C12.7779 48.3475 12.7487 48.3649 12.7116 48.3657L11.774 56.9401L10.5134 78.5793L10.5134 78.5794L10.4948 78.9031L20.492 76.815L20.5488 76.4155L12.7248 48.2447C12.7389 48.2325 12.7553 48.2053 12.7739 48.1634C12.7858 48.1742 12.7907 48.1845 12.791 48.1852L12.791 48.1852C12.7915 48.1863 12.7918 48.1869 12.7918 48.1869C12.7918 48.1869 12.7906 48.1835 12.7889 48.175C12.7871 48.1659 12.7855 48.1542 12.784 48.1397C12.9791 47.6645 13.3903 45.6973 13.8266 42.4828C15.3186 42.0067 27.1282 41.7743 27.1282 41.7743L33.4683 53.1786C33.4683 53.1786 33.5114 53.5977 33.5885 54.3245V54.3267C33.7097 55.4603 33.9115 59.0859 34.1585 63.5235C34.332 66.64 34.5278 70.157 34.7336 73.4926ZM34.7336 73.4926C34.7381 73.5686 34.7432 73.6447 34.7483 73.7207C34.7534 73.7973 34.7585 73.8739 34.7631 73.9505M34.7336 73.4926L34.6204 73.4993C34.6249 73.5756 34.63 73.6518 34.6351 73.7276L34.6352 73.7291C34.6381 73.7727 34.641 73.8162 34.6438 73.8596M34.7631 73.9505L34.7399 73.8395L34.6438 73.8596M34.7631 73.9505L24.1375 76.1689L34.7631 73.9505ZM34.6438 73.8596L24.1233 76.056M34.6438 73.8596L24.1233 76.056M11.661 56.9306L12.6035 48.3114L10.3798 78.9271L10.4003 78.5728L11.661 56.9306ZM20.593 76.9098L10.488 79.0204L20.593 76.9098Z" fill="black" stroke="black" stroke-width="0.226757"/>
<path id="Vector_3" d="M2.51826 61.3274C3.2084 60.8502 3.39493 59.9077 2.93898 59.2016C2.89332 59.1333 2.84211 59.0689 2.78588 59.009L5.23537 54.1786L3.23297 52.0676L0.589588 59.0491C0.118867 59.5703 0.0568743 60.3448 0.438638 60.9348C0.889459 61.6172 1.80555 61.8033 2.48479 61.3504C2.49606 61.3429 2.5072 61.3352 2.51826 61.3274Z" fill="#FFB6B6"/>
<path id="Vector_4" d="M48.345 49.8246C47.5156 49.706 46.9309 48.9455 47.0263 48.1093C47.0369 48.0277 47.0542 47.9471 47.078 47.8684L42.7441 44.6387L43.6016 41.8528L49.0624 46.9219C49.7149 47.1781 50.1136 47.8438 50.0332 48.5429C49.932 49.3556 49.1941 49.9319 48.3852 49.8302C48.3718 49.8285 48.3584 49.8266 48.345 49.8246Z" fill="#FFB6B6"/>
<path id="Vector_5" d="M19.0225 18.5557C21.9259 18.5557 24.2795 16.1911 24.2795 13.2743C24.2795 10.3575 21.9259 7.99292 19.0225 7.99292C16.1192 7.99292 13.7656 10.3575 13.7656 13.2743C13.7656 16.1911 16.1192 18.5557 19.0225 18.5557Z" fill="#FFB6B6"/>
<g id="Vector_6">
<mask id="path-6-inside-1_8347_2848" fill="white">
<path d="M69.312 54.4543L69.2734 54.5044C69.2734 54.5044 69.4231 53.7298 69.312 54.4543Z"/>
</mask>
<path d="M69.312 54.4543L69.2734 54.5044C69.2734 54.5044 69.4231 53.7298 69.312 54.4543Z" fill="black"/>
<path d="M69.312 54.4543L69.4917 54.5925L69.5273 54.5463L69.5361 54.4886L69.312 54.4543ZM69.2734 54.5044L69.0508 54.4613L69.4532 54.6426L69.2734 54.5044ZM69.1322 54.316L69.0937 54.3661L69.4532 54.6426L69.4917 54.5925L69.1322 54.316ZM69.2734 54.5044C69.4961 54.5474 69.4961 54.5474 69.4961 54.5474C69.4961 54.5474 69.4961 54.5474 69.4961 54.5474C69.4961 54.5473 69.4961 54.5473 69.4961 54.5473C69.4961 54.5472 69.4961 54.5471 69.4962 54.5469C69.4962 54.5465 69.4963 54.546 69.4965 54.5453C69.4967 54.5439 69.4972 54.5418 69.4977 54.5391C69.4987 54.5337 69.5003 54.5259 69.5022 54.5161C69.506 54.4966 69.5113 54.4695 69.5174 54.4393C69.5297 54.378 69.5444 54.3064 69.5554 54.2581C69.5618 54.2302 69.5645 54.2212 69.5637 54.2236C69.5633 54.2248 69.5623 54.2276 69.5608 54.2314C69.5596 54.2345 69.5566 54.2421 69.5516 54.2516C69.549 54.2565 69.5448 54.2641 69.5387 54.273C69.5333 54.281 69.5222 54.2963 69.5047 54.3122C69.4893 54.3264 69.452 54.3568 69.3936 54.3677C69.3624 54.3735 69.3279 54.3731 69.2929 54.3637C69.2583 54.3543 69.2303 54.338 69.2091 54.3207C69.1699 54.2888 69.1519 54.2524 69.1449 54.2365C69.1368 54.218 69.133 54.2024 69.1311 54.194C69.1275 54.1771 69.1267 54.1639 69.1265 54.1597C69.1262 54.1538 69.1263 54.1495 69.1263 54.1477C69.1263 54.1456 69.1264 54.1443 69.1264 54.1441C69.1264 54.1438 69.1264 54.1452 69.126 54.149C69.1257 54.1526 69.1251 54.1576 69.1244 54.1641C69.1229 54.1771 69.1207 54.1947 69.1175 54.2179C69.1112 54.2642 69.1016 54.3299 69.0878 54.4199L69.5361 54.4886C69.5631 54.3128 69.5769 54.2119 69.5793 54.1688C69.5796 54.1626 69.5802 54.1505 69.5794 54.1366C69.5791 54.1305 69.5782 54.1158 69.5743 54.0978C69.5724 54.0889 69.5684 54.0728 69.5601 54.054C69.553 54.0377 69.5348 54.0011 69.4954 53.969C69.4476 53.9301 69.3808 53.9087 69.3103 53.9219C69.2518 53.9328 69.2142 53.9633 69.1985 53.9777C69.1678 54.0058 69.1527 54.0357 69.15 54.0408C69.1404 54.0591 69.135 54.0755 69.1335 54.0799C69.126 54.1023 69.1187 54.1336 69.1133 54.1572C69.1008 54.2119 69.0851 54.2887 69.0728 54.3501C69.0665 54.3811 69.0611 54.4089 69.0571 54.4289C69.0552 54.4389 69.0536 54.447 69.0525 54.4525C69.052 54.4553 69.0515 54.4575 69.0512 54.459C69.0511 54.4598 69.051 54.4603 69.0509 54.4607C69.0509 54.4609 69.0509 54.4611 69.0508 54.4612C69.0508 54.4612 69.0508 54.4613 69.0508 54.4613C69.0508 54.4613 69.0508 54.4613 69.0508 54.4613C69.0508 54.4613 69.0508 54.4613 69.2734 54.5044Z" fill="black" mask="url(#path-6-inside-1_8347_2848)"/>
</g>
<path id="Vector_7" d="M80.6645 13.5073C83.9504 13.5073 86.6141 10.8312 86.6141 7.53003C86.6141 4.22886 83.9504 1.55273 80.6645 1.55273C77.3786 1.55273 74.7148 4.22886 74.7148 7.53003C74.7148 10.8312 77.3786 13.5073 80.6645 13.5073Z" fill="#FFB6B6"/>
<path id="Vector_8" d="M74.434 4.09457C74.7917 4.10522 75.1407 4.21204 75.4444 4.40484L75.7587 4.60449L75.3864 4.6139C75.0305 4.62289 74.6861 4.74176 74.3999 4.95409C74.3915 5.02036 74.3838 5.08329 74.3765 5.14295C74.3627 5.25627 74.3503 5.35778 74.3367 5.44791C74.3139 5.5988 74.2861 5.72985 74.2372 5.85265C74.155 6.05929 74.0185 6.22917 73.7781 6.43632C74.0216 6.50376 74.2504 6.54745 74.459 6.53903C74.7177 6.52859 74.9437 6.43828 75.129 6.20354C75.2805 6.01156 75.3554 5.81376 75.432 5.61158C75.4543 5.55276 75.4767 5.49358 75.5012 5.43406C75.6087 5.17273 75.7527 4.92514 76.1035 4.78106L76.1103 4.77827L76.1104 4.7785C76.6551 4.59499 77.2484 4.62218 77.7742 4.85465C77.8431 4.8805 77.9105 4.90857 77.9758 4.93682C78.0083 4.90975 78.042 4.88316 78.0778 4.85726L78.0784 4.85687C78.4964 4.5582 79.0126 4.43192 79.5207 4.50414L79.8881 4.55637L79.5542 4.71839L79.5542 4.71839C79.5541 4.71845 79.5535 4.71876 79.5522 4.71993C79.5509 4.7212 79.5485 4.72374 79.5456 4.72838C79.5393 4.73811 79.5319 4.75469 79.5254 4.78095C79.5121 4.83429 79.5066 4.91068 79.5094 5.0091C79.515 5.20502 79.5524 5.45833 79.5964 5.72506C79.6059 5.78264 79.6157 5.84084 79.6255 5.89903C79.6605 6.10676 79.6955 6.31448 79.7165 6.49405C79.73 6.60926 79.7382 6.71695 79.7366 6.80872C79.7358 6.85372 79.7326 6.89943 79.7247 6.94249C79.8677 7.01371 80.0101 7.08248 80.1533 7.14247C80.5055 7.2871 80.8102 7.2929 81.0919 7.21218C81.3774 7.13039 81.6468 6.95765 81.922 6.73229C82.1147 6.57455 82.3042 6.39636 82.5022 6.21023C82.5886 6.12895 82.6767 6.04615 82.7673 5.96289C83.0623 5.69183 83.3795 5.42095 83.7372 5.20577L84.0172 5.03732L83.9017 5.343C83.5635 6.2379 83.5314 6.82881 83.6962 7.39537C83.8408 7.89257 84.137 8.37598 84.5406 9.03461C84.5802 9.09923 84.6209 9.16553 84.6625 9.2337C84.6921 9.19358 84.7267 9.15693 84.7627 9.12453C84.8862 9.01319 85.0566 8.92203 85.2274 8.86744C85.3959 8.81357 85.5826 8.78968 85.7353 8.83327C85.8137 8.85567 85.8876 8.89732 85.9415 8.96618C85.9957 9.03556 86.022 9.12277 86.022 9.22209V9.23224L86.0215 9.2322C85.9886 9.59962 85.9294 9.96379 85.8445 10.3219C86.8444 8.5568 87.3649 6.58956 86.9343 4.70093M74.434 4.09457L87.0447 4.67534M74.434 4.09457C74.4344 3.87489 74.4408 3.66352 74.4801 3.47254C74.5255 3.25166 74.6129 3.06899 74.7771 2.93826M86.9343 4.70093C86.9343 4.7008 86.9342 4.70068 86.9342 4.70055L87.0447 4.67534M86.9343 4.70093C86.9343 4.70093 86.9343 4.70094 86.9343 4.70094L87.0447 4.67534M86.9343 4.70093C86.9117 4.60339 86.8925 4.50913 86.8737 4.41648C86.8456 4.27825 86.8182 4.14362 86.7812 4.00714C86.7213 3.78604 86.6415 3.58485 86.5089 3.41421L86.5983 3.34438C86.8323 3.64549 86.9094 4.02404 86.9861 4.40037C87.0049 4.49255 87.0237 4.5846 87.0447 4.67534" fill="black" stroke="black" stroke-width="0.226757"/>
<path id="Vector_9" d="M39.1635 36.6317H39.2265L32.841 30.4059L27.8511 25.0578C27.8528 25.0018 27.8539 24.9699 27.8539 24.9699L27.7018 24.8977C27.7018 24.8977 22.6836 21.9052 22.5123 21.9218L21.742 20.0259L15.2985 18.6527L14.0191 21.2399L11.5209 22.693C10.943 22.8873 10.4102 23.1971 9.95468 23.6039L9.71067 23.7459L9.72875 23.8204C8.91159 24.6456 8.44288 25.7558 8.4203 26.9196L5.94554 35.9159L5.94333 35.9483L1.41406 56.1539L4.60345 56.313L12.6925 34.9651C12.9637 34.9039 10.8605 57.137 11.1052 57.0629C14.5321 56.0254 36.534 55.9464 33.9093 53.3094C32.8331 52.2282 28.2799 40.49 28.0217 36.6317C27.9872 36.1167 27.9575 35.5972 27.9324 35.0779C28.8284 35.5391 29.6986 36.0493 30.5389 36.6064L30.5753 36.6317L44.7376 46.4746L47.0049 44.2156L39.1635 36.6317Z" fill="#7F95D1"/>
<path id="Vector_10" d="M18.9671 19.892C19.0137 20.2887 19.0787 20.6831 19.1619 21.0738C17.6928 21.378 15.8789 21.4731 14.19 21.1658C12.4691 20.8528 10.8926 20.1251 9.9326 18.7925C9.92713 18.4712 9.66376 18.2138 9.34244 18.2183C9.10887 18.2216 8.90059 18.3646 8.81224 18.5803C8.41695 16.6452 9.16951 14.3396 11.2384 10.4125L11.2592 10.3729L11.2474 10.3298C11.0602 9.64416 11.2935 8.97504 11.7968 8.38255C12.301 7.78909 13.0688 7.28314 13.9196 6.93811C14.77 6.59322 15.6938 6.41307 16.5045 6.46234C17.3164 6.51168 17.9987 6.7892 18.3952 7.34145L18.4884 7.47114L18.5801 7.34048C18.6246 7.2771 18.7059 7.21169 18.8194 7.15105C18.9312 7.09128 19.0663 7.0404 19.2085 7.00209C19.4956 6.92476 19.7889 6.9045 19.9617 6.94767C20.3371 7.07348 20.6841 7.2726 20.9827 7.53364L20.9826 7.5338L20.9881 7.53803C21.4427 7.88892 21.8896 8.23555 22.153 8.71176L22.1532 8.71224C22.4181 9.18565 22.446 9.80911 22.1132 10.1927L22.1131 10.1929C22.0516 10.264 21.9545 10.3346 21.8293 10.4022C21.7051 10.4691 21.5595 10.5297 21.4068 10.5834C21.1013 10.6909 20.7759 10.768 20.5552 10.8127L20.555 10.8128C20.2769 10.8697 20.0393 10.9166 19.8327 10.9521C19.6702 10.6897 19.5969 10.3805 19.625 10.0714L19.6467 9.83294L19.4485 9.96726C19.1131 10.1945 18.8967 10.5604 18.8581 10.9645L18.858 10.9662C18.8572 10.9764 18.8579 10.9846 18.8582 10.9869L18.8582 10.9869C18.8585 10.9905 18.8589 10.9936 18.8592 10.9957C18.8595 10.9974 18.8598 10.999 18.8601 11.0007C18.8605 11.0032 18.8609 11.0055 18.8614 11.0077C18.8628 11.015 18.8649 11.0242 18.8672 11.0345C18.8721 11.0554 18.8792 11.0846 18.8883 11.121C18.9066 11.1942 18.9335 11.2988 18.9678 11.4301C19.0363 11.6929 19.1345 12.0639 19.2524 12.5068C19.4883 13.3927 19.8034 14.5666 20.1186 15.7381C20.4339 16.9096 20.7493 18.0786 20.9859 18.9548L21.2719 20.0132L21.352 20.3096L21.3573 20.3292C21.1089 20.4659 20.8502 20.5827 20.5836 20.6786C19.9594 19.7045 19.4798 18.644 19.1599 17.5306L18.9381 17.5508C18.8612 18.3299 18.8709 19.1151 18.9671 19.892ZM18.9671 19.892C18.9671 19.8918 18.967 19.8917 18.967 19.8915L19.0796 19.8783L18.9671 19.8922C18.9671 19.8921 18.9671 19.892 18.9671 19.892ZM8.81492 18.5934L8.91382 18.6317L8.81492 18.5934Z" fill="black" stroke="black" stroke-width="0.226757"/>
<path id="Vector_11" d="M52.8886 25.0741C52.8809 25.0816 52.8739 25.0894 52.8663 25.097C51.6844 23.9187 49.781 23.9083 48.5865 25.0736C47.3877 26.2436 47.3472 28.1641 48.4956 29.384L48.4948 29.3847L48.5234 29.4143L52.7523 33.7887L57.1359 29.5114L57.1237 29.4988C57.1311 29.4918 57.1387 29.4852 57.146 29.4781C58.3565 28.2969 58.3848 26.3536 57.2091 25.1374C56.0335 23.9213 54.0991 23.893 52.8886 25.0741Z" fill="#7F95D1"/>
<path id="Vector_12" d="M78.7816 63.3988L78.4121 64.3096L78.412 64.31L78.2264 64.762L66.192 67.2755L66.2107 66.9517L66.2107 66.9516L66.4525 62.6877L69.0468 54.5754L69.0468 54.5753L69.899 51.9137L88.0851 50.3772C89.6484 53.2879 90.2619 57.5572 90.3992 61.8504L90.3992 61.8517C90.4046 61.9743 90.4086 62.097 90.4111 62.2197L79.0446 64.5925L79.0317 64.264L79.0317 64.2639L78.9999 63.4371L78.7816 63.3988Z" fill="black" stroke="black" stroke-width="0.226757"/>
<path id="Vector_13" d="M77.5326 14.7725L84.2878 14.1908L85.4458 15.9359C85.4458 15.9359 92.008 20.0079 92.201 20.7835C92.394 21.5591 87.9549 50.2569 88.1479 50.2569C88.3409 50.2569 82.5507 53.5533 75.6025 54.135C68.6543 54.7167 68.4453 54.5068 68.4453 54.5068L71.3564 47.3484L72.0319 38.3318L71.4529 21.2683L76.664 17.3902L77.5326 14.7725Z" fill="#7F95D1"/>
<g id="Group_2">
<path id="Vector_14" d="M96.6886 59.3653C96.5679 58.7527 96.5949 58.1635 96.7377 57.6798L95.2207 51.917L97.9713 51.272L99.214 57.1872C99.5296 57.5797 99.778 58.1142 99.8987 58.7268C100.175 60.1262 99.6795 61.4037 98.7931 61.58C97.9066 61.7563 96.9644 60.7648 96.6886 59.3653Z" fill="#FFB6B6"/>
<path id="Vector_15" d="M88.252 20.269C88.252 20.269 91.6958 18.8444 93.3164 21.4902C94.9371 24.1359 99.1912 55.2748 99.1912 55.2748L95.6461 55.7836L88.6571 30.6486L88.252 20.269Z" fill="#7F95D1"/>
</g>
<g id="Group_3">
<path id="Vector_16" d="M50.9443 49.6969C51.3593 49.2319 51.6353 48.7114 51.7581 48.2221L55.9895 44.0435L53.9514 42.0788L49.8785 46.5292C49.4078 46.705 48.9227 47.0373 48.5078 47.5023C47.5598 48.5645 47.3368 49.9169 48.0097 50.5229C48.6825 51.129 49.9964 50.7591 50.9443 49.6969Z" fill="#FFB6B6"/>
<path id="Vector_17" d="M78.0553 20.397C78.0553 20.397 75.817 17.4064 73.0795 18.8512C70.342 20.296 50.8691 44.8961 50.8691 44.8961L53.6597 47.1509L72.4355 29.1162L78.0553 20.397Z" fill="#7F95D1"/>
</g>
</g>
</g>
<defs>
<clipPath id="clip0_8347_2848">
<rect width="100" height="80" fill="white"/>
</clipPath>
</defs>
</svg>
