<svg width="148" height="148" viewBox="0 0 148 148" fill="none" xmlns="http://www.w3.org/2000/svg">
<g id="step4">
<rect width="148" height="148" rx="74" fill="white"/>
<g id="chat">
<path id="Vector" d="M95.3931 69.2821C95.1718 69.3978 94.9467 69.5073 94.7178 69.6107C94.5094 69.705 94.2977 69.7935 94.0826 69.8764C94.004 69.9064 93.9242 69.9364 93.8442 69.9664C93.2122 70.1958 92.563 70.375 91.9028 70.5021C91.5759 70.5664 91.2447 70.6169 90.9092 70.6536C90.6323 70.685 90.3525 70.7074 90.0698 70.7207C89.8685 70.7307 89.6672 70.735 89.4645 70.735C88.6618 70.7353 87.8608 70.6603 87.072 70.5107C86.8664 70.4736 86.6652 70.4293 86.4639 70.3807C85.4903 70.1472 84.5477 69.799 83.656 69.3435C83.576 69.3035 83.4961 69.2606 83.4161 69.2192C83.2976 69.1564 83.182 69.0906 83.0664 69.0221C83.122 68.9449 83.182 68.8692 83.2434 68.7949C83.9114 67.9664 84.7463 67.2882 85.6937 66.8042C86.6412 66.3203 87.6799 66.0417 88.7422 65.9864C89.8044 65.9311 90.8664 66.1005 91.8589 66.4835C92.8514 66.8665 93.7521 67.4545 94.5023 68.2092C94.7627 68.4707 95.0041 68.7504 95.2246 69.0464C95.2831 69.1235 95.3388 69.2021 95.3931 69.2821Z" fill="#7F95D1"/>
<path id="Vector_2" d="M95.8728 56.7366C95.8728 60.1206 93.1317 62.8637 89.7506 62.8637C86.3696 62.8637 83.6285 60.1206 83.6285 56.7366C83.6285 53.3526 86.3696 50.6096 89.7506 50.6096C93.1317 50.6096 95.8728 53.3526 95.8728 56.7366Z" fill="black" stroke="black" stroke-width="0.292183"/>
<path id="Vector_3" d="M91.3581 63.0186C93.6189 61.7818 94.4498 58.9449 93.2139 56.6823C91.9781 54.4197 89.1434 53.5882 86.8826 54.825C84.6218 56.0619 83.7909 58.8987 85.0268 61.1613C86.2627 63.4239 89.0973 64.2554 91.3581 63.0186Z" fill="#A0616A"/>
<path id="Vector_4" d="M93.2897 54.7418C93.6138 55.1428 93.7349 55.7111 93.5646 56.1566C92.6298 56.6851 91.5707 56.9632 90.4908 56.9589L90.0207 56.957L90.4069 57.225C90.7044 57.4315 91.0275 57.5963 91.3671 57.7159C89.8648 57.959 88.3291 57.9291 86.8342 57.6257L86.8342 57.6256L86.8283 57.6247C86.4615 57.5658 86.1075 57.4442 85.782 57.2651C85.6304 57.1803 85.4984 57.0646 85.3944 56.9254C85.291 56.7871 85.2177 56.6287 85.1791 56.4603C85.1312 56.1805 85.2141 55.9058 85.3801 55.6461C85.5472 55.3847 85.793 55.1476 86.0497 54.9533C86.8444 54.3612 87.7606 53.9533 88.732 53.759C89.7035 53.5648 90.706 53.589 91.6669 53.8299C92.2967 53.9929 92.9024 54.2627 93.2897 54.7418Z" fill="black" stroke="black" stroke-width="0.292183"/>
<path id="Vector_5" d="M89.4981 45.0212C86.6962 45.0208 83.971 45.9372 81.7378 47.6308C79.5046 49.3244 77.886 51.7023 77.1286 54.402C76.3712 57.1017 76.5166 59.9753 77.5426 62.5847C78.5686 65.194 80.4189 67.3961 82.8116 68.8553L82.8944 68.9039C82.9629 68.9453 83.0314 68.9853 83.1 69.0239C83.2156 69.0925 83.3312 69.1582 83.4497 69.2211C83.5296 69.2625 83.6096 69.3054 83.6895 69.3454C84.5813 69.8009 85.5238 70.149 86.4974 70.3826C86.6987 70.4311 86.9 70.4754 87.1056 70.5126C87.8943 70.6621 88.6953 70.7372 89.4981 70.7369C89.7008 70.7369 89.9021 70.7326 90.1034 70.7226C90.3861 70.7097 90.6658 70.6873 90.9428 70.6554C91.2782 70.6183 91.6094 70.5678 91.9363 70.504C92.5966 70.3768 93.2457 70.1977 93.8778 69.9682C93.9577 69.9382 94.0376 69.9082 94.1162 69.8782C94.3317 69.7954 94.5434 69.7068 94.7514 69.6125C94.9798 69.5096 95.2049 69.4001 95.4267 69.2839C97.6489 68.1192 99.4857 66.334 100.714 64.1451C100.72 64.1336 100.727 64.1222 100.733 64.1108C101.388 62.9338 101.853 61.6603 102.11 60.3377C102.471 58.4758 102.417 56.557 101.95 54.7188C101.483 52.8805 100.617 51.1682 99.4113 49.7046C98.206 48.2409 96.6923 47.062 94.9785 46.2523C93.2647 45.4427 91.3933 45.0222 89.4981 45.0212ZM100.499 63.9436C100.487 63.9636 100.477 63.9836 100.466 64.0022C99.2619 66.1589 97.4509 67.9136 95.2582 69.0482C95.0397 69.1625 94.8175 69.2696 94.5915 69.3696C94.4045 69.4539 94.2132 69.5339 94.0205 69.6082C93.9391 69.6397 93.8564 69.6711 93.7736 69.6997C93.2275 69.8993 92.6679 70.0597 92.0991 70.1797C91.6771 70.2696 91.2506 70.3368 90.8214 70.3811C90.5573 70.4097 90.2889 70.4297 90.0191 70.4397C89.8464 70.4468 89.6723 70.4511 89.4981 70.4511C88.7212 70.4521 87.946 70.3798 87.1827 70.2354C86.7183 70.1497 86.2593 70.0371 85.8079 69.8982C85.1204 69.6857 84.4523 69.4147 83.8109 69.0882C83.7366 69.0496 83.6624 69.0111 83.5896 68.9711C83.4853 68.9153 83.3797 68.8582 83.2769 68.7968C83.1998 68.7539 83.1227 68.7082 83.0471 68.6625C83.0029 68.6367 82.9586 68.6096 82.9143 68.5825C80.8165 67.2931 79.1431 65.4158 78.1017 63.1834C77.0603 60.9509 76.6967 58.4616 77.0561 56.0242C77.4155 53.5869 78.482 51.3088 80.1233 49.4725C81.7646 47.6362 83.9085 46.3226 86.2889 45.6946C88.6694 45.0666 91.1818 45.1519 93.5143 45.9399C95.8468 46.7278 97.8968 48.1838 99.41 50.1272C100.923 52.0705 101.833 54.4157 102.027 56.8719C102.22 59.328 101.689 61.7869 100.499 63.9436Z" fill="black" stroke="black" stroke-width="0.3"/>
<path id="Vector_6" d="M86.4092 50.5662L86.6319 50.5888C86.7232 51.1125 86.7768 51.6269 86.6782 52.1259C86.5518 52.7662 86.1153 53.359 85.5204 53.4859L85.5509 53.6288L85.5204 53.4859C85.0003 53.5968 84.4257 53.3239 84.1093 52.8699C83.9576 52.6325 83.854 52.3676 83.8045 52.0902C83.7549 51.812 83.7606 51.5266 83.8213 51.2505L83.8214 51.2505L83.8221 51.2468C83.9507 50.5789 84.3719 49.9522 84.9829 49.7594C85.2799 49.6656 85.6257 49.7133 85.9058 49.8676C86.1853 50.0216 86.3811 50.2709 86.4092 50.5662Z" fill="black" stroke="black" stroke-width="0.292183"/>
<path id="Vector_7" d="M96.0264 51.5759L96.2491 51.5986C96.3404 52.1223 96.394 52.6366 96.2954 53.1357C96.169 53.776 95.7325 54.3687 95.1376 54.4956C94.6175 54.6066 94.0429 54.3337 93.7265 53.8796C93.5748 53.6423 93.4712 53.3774 93.4217 53.1C93.3721 52.8217 93.3778 52.5364 93.4385 52.2603L93.4386 52.2603L93.4393 52.2565C93.5679 51.5886 93.9891 50.9619 94.6001 50.7691C94.8971 50.6754 95.2429 50.723 95.5229 50.8773C95.8025 51.0314 95.9983 51.2807 96.0264 51.5759Z" fill="black" stroke="black" stroke-width="0.292183"/>
<path id="Vector_8" d="M67.8799 62.6545C67.7946 62.6544 67.7102 62.6363 67.6323 62.6012C67.5543 62.5661 67.4843 62.5149 67.427 62.4508L60.6301 54.9183C60.5529 54.833 60.4592 54.7649 60.3549 54.7183C60.2505 54.6716 60.1378 54.6475 60.0238 54.6474H24.1067C23.5616 54.6467 23.039 54.4265 22.6536 54.035C22.2682 53.6434 22.0514 53.1126 22.0508 52.5589V39.4008C22.0514 38.8471 22.2682 38.3163 22.6536 37.9247C23.039 37.5332 23.5616 37.313 24.1067 37.3124H70.64C71.185 37.313 71.7076 37.5332 72.093 37.9247C72.4784 38.3163 72.6952 38.8471 72.6959 39.4008V52.5589C72.6952 53.1126 72.4784 53.6434 72.093 54.035C71.7076 54.4265 71.185 54.6467 70.64 54.6474H69.3207C69.1027 54.6476 68.8936 54.7357 68.7394 54.8924C68.5852 55.049 68.4985 55.2614 68.4983 55.4829V62.0274C68.4988 62.1538 68.4615 62.2773 68.3913 62.3816C68.321 62.4858 68.2212 62.566 68.1051 62.6112C68.0334 62.6398 67.957 62.6544 67.8799 62.6545Z" fill="#F4EFFA"/>
<path id="Vector_9" d="M67.9966 63.0194C67.9109 63.0193 67.8263 63.0007 67.748 62.9647C67.6698 62.9286 67.5996 62.876 67.542 62.8102L60.7202 55.0765C60.6428 54.9889 60.5488 54.919 60.444 54.8711C60.3393 54.8232 60.2262 54.7984 60.1117 54.7983H24.0634C23.5163 54.7976 22.9919 54.5715 22.605 54.1695C22.2182 53.7675 22.0006 53.2225 22 52.654V39.1443C22.0006 38.5758 22.2182 38.0308 22.605 37.6288C22.9919 37.2268 23.5163 37.0006 24.0634 37H70.7667C71.3138 37.0006 71.8383 37.2268 72.2251 37.6288C72.6119 38.0308 72.8295 38.5758 72.8301 39.1443V52.654C72.8295 53.2225 72.6119 53.7675 72.2251 54.1695C71.8383 54.5715 71.3138 54.7976 70.7667 54.7983H69.4427C69.2238 54.7985 69.014 54.889 68.8592 55.0498C68.7045 55.2107 68.6174 55.4287 68.6172 55.6562V62.3755C68.6177 62.5053 68.5803 62.6321 68.5098 62.7392C68.4393 62.8462 68.3392 62.9285 68.2226 62.975C68.1506 63.0043 68.0739 63.0193 67.9966 63.0194ZM24.0634 37.2857C23.5892 37.2863 23.1346 37.4823 22.7994 37.8307C22.4641 38.1791 22.2755 38.6515 22.2749 39.1443V52.654C22.2755 53.1467 22.4641 53.6191 22.7994 53.9676C23.1346 54.316 23.5892 54.512 24.0634 54.5125H60.1117C60.2643 54.5127 60.4151 54.5458 60.5547 54.6096C60.6943 54.6734 60.8197 54.7666 60.9229 54.8834L67.7446 62.6171C67.7915 62.6702 67.8526 62.7074 67.9202 62.7237C67.9877 62.7401 68.0583 62.7348 68.1229 62.7087C68.1875 62.6826 68.243 62.6368 68.2822 62.5774C68.3213 62.5179 68.3422 62.4476 68.3423 62.3755V55.6562C68.3426 55.353 68.4586 55.0623 68.6649 54.8479C68.8712 54.6335 69.1509 54.5129 69.4427 54.5125H70.7667C71.2409 54.512 71.6955 54.316 72.0308 53.9676C72.366 53.6191 72.5546 53.1467 72.5552 52.654V39.1443C72.5546 38.6515 72.366 38.1791 72.0308 37.8307C71.6955 37.4823 71.2409 37.2863 70.7667 37.2857H24.0634Z" fill="black" stroke="black" stroke-width="0.3"/>
<path id="Vector_10" d="M27.2284 43.1902C28.2638 43.1902 29.1033 42.3501 29.1033 41.3138C29.1033 40.2775 28.2638 39.4375 27.2284 39.4375C26.1929 39.4375 25.3535 40.2775 25.3535 41.3138C25.3535 42.3501 26.1929 43.1902 27.2284 43.1902Z" fill="#7F95D1"/>
<path id="Vector_11" d="M26.2702 50.9233H66.6693C66.9119 50.9231 67.1445 50.8459 67.3159 50.7088L26.2702 50.9233ZM26.2702 50.9233C26.1498 50.9234 26.0307 50.9046 25.9195 50.8679C25.8083 50.8312 25.7072 50.7774 25.6221 50.7094C25.5369 50.6415 25.4694 50.5609 25.4233 50.4721C25.3772 50.3833 25.3535 50.2882 25.3535 50.1921C25.3535 50.096 25.3772 50.0008 25.4233 49.912C25.4694 49.8232 25.5369 49.7426 25.6221 49.6747C25.7072 49.6068 25.8083 49.5529 25.9195 49.5162C26.0307 49.4795 26.1498 49.4607 26.2702 49.4608V50.9233ZM67.2247 50.5947C67.0818 50.709 66.8823 50.777 66.6691 50.7772L26.2702 50.7772L26.27 50.7772C26.1649 50.7773 26.0612 50.7608 25.9652 50.7292C25.8692 50.6975 25.7838 50.6516 25.7132 50.5952C25.6426 50.5389 25.5888 50.4738 25.553 50.4048C25.5172 50.3359 25.4996 50.2638 25.4996 50.1921C25.4996 50.1203 25.5172 50.0482 25.553 49.9793C25.5888 49.9103 25.6426 49.8452 25.7132 49.7889C25.7838 49.7325 25.8692 49.6866 25.9652 49.6549C26.0612 49.6233 26.1649 49.6068 26.27 49.6069H26.2702H66.6692C66.8824 49.6071 67.0819 49.6752 67.2247 49.7894C67.3667 49.9029 67.4376 50.0489 67.4376 50.1921C67.4376 50.3352 67.3667 50.4812 67.2247 50.5947Z" fill="black" stroke="black" stroke-width="0.292183"/>
<path id="Vector_12" d="M26.2318 46.5305L26.2317 46.5305C26.1323 46.5306 26.0342 46.5144 25.9434 46.4831C25.8525 46.4518 25.7715 46.4064 25.7043 46.3505C25.6372 46.2946 25.5857 46.2297 25.5512 46.1604C25.5168 46.0911 25.4996 46.0182 25.4996 45.9454C25.4996 45.8726 25.5168 45.7996 25.5512 45.7304C25.5857 45.661 25.6372 45.5961 25.7043 45.5403C25.7715 45.4844 25.8525 45.439 25.9434 45.4077C26.0342 45.3764 26.1323 45.3601 26.2317 45.3602H26.2318H52.331C52.5327 45.3602 52.7219 45.4272 52.8578 45.5405C52.993 45.6532 53.0622 45.7997 53.0622 45.9454C53.0622 46.0911 52.993 46.2376 52.8578 46.3502C52.7219 46.4635 52.5327 46.5305 52.331 46.5305L26.2318 46.5305Z" fill="black" stroke="black" stroke-width="0.292183"/>
<path id="Vector_13" d="M81.5481 108.665C81.436 108.619 81.3397 108.537 81.2719 108.429C81.2042 108.322 81.1681 108.196 81.1687 108.066V101.346C81.1684 101.119 81.0847 100.901 80.9359 100.74C80.7871 100.579 80.5853 100.489 80.3748 100.489H79.1015C78.5754 100.488 78.071 100.262 77.699 99.8598C77.327 99.4578 77.1178 98.9128 77.1172 98.3443V84.8346C77.1178 84.2661 77.327 83.7211 77.699 83.3191C78.071 82.9171 78.5754 82.6909 79.1015 82.6903H124.015C124.541 82.6909 125.046 82.9171 125.418 83.3191C125.79 83.7211 125.999 84.2661 125.999 84.8346V98.3443C125.999 98.9128 125.79 99.4578 125.418 99.8598C125.046 100.262 124.541 100.488 124.015 100.489H89.3482C89.2381 100.489 89.1293 100.514 89.0286 100.561C88.9279 100.609 88.8374 100.679 88.763 100.767L82.2027 108.501C82.1473 108.566 82.0798 108.619 82.0045 108.655C81.9293 108.691 81.8478 108.71 81.7655 108.71C81.6911 108.71 81.6174 108.695 81.5481 108.665Z" fill="#F4EFFA"/>
<path id="Vector_14" d="M81.5481 108.665C81.436 108.619 81.3397 108.537 81.2719 108.429C81.2042 108.322 81.1681 108.196 81.1687 108.066V101.346C81.1684 101.119 81.0847 100.901 80.9359 100.74C80.7871 100.579 80.5853 100.489 80.3748 100.489H79.1015C78.5754 100.488 78.071 100.262 77.699 99.8598C77.327 99.4578 77.1178 98.9128 77.1172 98.3443V84.8346C77.1178 84.2661 77.327 83.7211 77.699 83.3191C78.071 82.9171 78.5754 82.6909 79.1015 82.6903H124.015C124.541 82.6909 125.046 82.9171 125.418 83.3191C125.79 83.7211 125.999 84.2661 125.999 84.8346V98.3443C125.999 98.9128 125.79 99.4578 125.418 99.8598C125.046 100.262 124.541 100.488 124.015 100.489H89.3482C89.2381 100.489 89.1293 100.514 89.0286 100.561C88.9279 100.609 88.8374 100.679 88.763 100.767L82.2027 108.501C82.1473 108.566 82.0798 108.619 82.0045 108.655C81.9293 108.691 81.8478 108.71 81.7655 108.71C81.6911 108.71 81.6174 108.695 81.5481 108.665ZM79.1015 82.976C78.6455 82.9766 78.2083 83.1726 77.8859 83.521C77.5635 83.8694 77.3821 84.3419 77.3816 84.8346V98.3443C77.3821 98.837 77.5635 99.3094 77.8859 99.6579C78.2083 100.006 78.6455 100.202 79.1015 100.203H80.3748C80.6554 100.203 80.9244 100.324 81.1228 100.538C81.3212 100.753 81.4328 101.043 81.4331 101.346V108.066C81.4331 108.138 81.4532 108.208 81.4909 108.268C81.5285 108.327 81.5819 108.373 81.644 108.399C81.7061 108.425 81.7741 108.43 81.839 108.414C81.9039 108.398 81.9628 108.361 82.0078 108.307L88.5681 100.574C88.6674 100.457 88.7879 100.364 88.9222 100.3C89.0564 100.236 89.2015 100.203 89.3482 100.203H124.015C124.471 100.202 124.908 100.006 125.231 99.6579C125.553 99.3094 125.734 98.837 125.735 98.3443V84.8346C125.734 84.3419 125.553 83.8694 125.231 83.521C124.908 83.1726 124.471 82.9766 124.015 82.976H79.1015Z" fill="black" stroke="black" stroke-width="0.3"/>
<path id="Vector_15" d="M66.3747 112.85C64.3859 114.124 62.0817 114.819 59.7205 114.857C57.3592 114.894 55.0341 114.273 53.0059 113.063C53.3627 112.398 53.8148 111.789 54.3478 111.255C55.1702 110.428 56.1711 109.801 57.2736 109.422C58.3761 109.042 59.5508 108.921 60.7075 109.066C61.8642 109.212 62.9721 109.622 63.9461 110.263C64.9201 110.904 65.7343 111.76 66.3261 112.765C66.3418 112.793 66.3589 112.821 66.3747 112.85Z" fill="#7F95D1"/>
<path id="Vector_16" d="M65.335 99.7043C65.335 103.111 62.5753 105.873 59.1712 105.873C55.7671 105.873 53.0074 103.111 53.0074 99.7043C53.0074 96.2972 55.7671 93.5355 59.1712 93.5355C62.5753 93.5355 65.335 96.2972 65.335 99.7043Z" fill="black" stroke="black" stroke-width="0.292183"/>
<path id="Vector_17" d="M63.7793 104.16C65.0234 101.882 64.187 99.0262 61.9112 97.7811C59.6353 96.5361 56.7819 97.3731 55.5378 99.6508C54.2937 101.928 55.1301 104.784 57.4059 106.029C59.6818 107.274 62.5352 106.437 63.7793 104.16Z" fill="#FFB8B8"/>
<path id="Vector_18" d="M58.4642 99.9322C57.3767 99.9366 56.3104 99.6565 55.3691 99.1243C55.1973 98.6754 55.3194 98.1028 55.6459 97.6988C56.0359 97.2162 56.6459 96.9446 57.2799 96.7806C58.2474 96.538 59.2567 96.5136 60.2348 96.7092C61.2128 96.9048 62.1352 97.3155 62.9353 97.9115C63.1938 98.1072 63.4413 98.3459 63.6096 98.6092C63.7768 98.8708 63.8603 99.1475 63.8121 99.4295C63.7732 99.5991 63.6993 99.7588 63.5952 99.8981C63.4904 100.038 63.3574 100.155 63.2047 100.24C62.8769 100.421 62.5205 100.543 62.1511 100.602L62.1511 100.602L62.1452 100.603C60.639 100.909 59.0917 100.939 57.578 100.694C57.9212 100.573 58.2476 100.407 58.548 100.198L58.9342 99.9303L58.4642 99.9322Z" fill="black" stroke="black" stroke-width="0.292183"/>
<path id="Vector_19" d="M59.5819 115C56.4917 114.999 53.5054 113.883 51.1709 111.857C48.8363 109.83 47.31 107.03 46.8719 103.968C46.4339 100.907 47.1134 97.7899 48.7859 95.1893C50.4584 92.5888 53.0117 90.6789 55.9775 89.81C58.9432 88.9411 62.1226 89.1715 64.9324 90.4588C67.7422 91.7462 69.9939 94.0043 71.2747 96.8189C72.5554 99.6334 72.7792 102.816 71.9051 105.782C71.0309 108.748 69.1174 111.3 66.5155 112.969C64.4465 114.296 62.0399 115.001 59.5819 115ZM59.5819 89.57C57.097 89.5698 54.6679 90.307 52.6017 91.6885C50.5354 93.07 48.925 95.0336 47.9739 97.3312C47.0229 99.6287 46.774 102.157 47.2587 104.596C47.7434 107.035 48.94 109.275 50.6971 111.034C52.4542 112.792 54.6929 113.99 57.1301 114.475C59.5672 114.96 62.0934 114.711 64.3891 113.759C66.6848 112.807 68.6469 111.196 70.0273 109.128C71.4077 107.06 72.1444 104.629 72.1442 102.142C72.1404 98.8089 70.8157 95.6134 68.4606 93.2564C66.1056 90.8995 62.9125 89.5738 59.5819 89.57Z" fill="black" stroke="black" stroke-width="0.3"/>
<path id="Vector_20" d="M82.203 89.0154C83.2385 89.0154 84.0779 88.1753 84.0779 87.139C84.0779 86.1028 83.2385 85.2627 82.203 85.2627C81.1675 85.2627 80.3281 86.1028 80.3281 87.139C80.3281 88.1753 81.1675 89.0154 82.203 89.0154Z" fill="#7F95D1"/>
<path id="Vector_21" d="M81.208 96.8165L81.2078 96.8165C81.1058 96.8166 81.0053 96.8003 80.9121 96.7688C80.819 96.7373 80.7359 96.6917 80.6672 96.6356C80.5986 96.5795 80.5461 96.5146 80.511 96.4453C80.476 96.3763 80.4586 96.3037 80.4586 96.2314C80.4586 96.1591 80.476 96.0865 80.511 96.0174C80.5461 95.9482 80.5986 95.8832 80.6672 95.8271C80.7359 95.7711 80.819 95.7254 80.9121 95.6939C81.0053 95.6625 81.1058 95.6461 81.2078 95.6462H81.208H120.674C120.881 95.6462 121.075 95.7137 121.214 95.8274C121.353 95.9405 121.423 96.0868 121.423 96.2314C121.423 96.376 121.353 96.5223 121.214 96.6353C121.075 96.7491 120.881 96.8165 120.674 96.8165L81.208 96.8165Z" fill="black" stroke="black" stroke-width="0.292183"/>
<path id="Vector_22" d="M81.2216 93.1955H108.234C108.475 93.1953 108.706 93.1182 108.876 92.981C109.046 92.8439 109.141 92.6581 109.141 92.4643C109.141 92.2705 109.046 92.0846 108.876 91.9475C108.706 91.8104 108.475 91.7333 108.234 91.733L81.2216 93.1955ZM81.2216 93.1955C81.1022 93.1956 80.9841 93.1768 80.8738 93.1401C80.7635 93.1034 80.6633 93.0496 80.5788 92.9817C80.4944 92.9137 80.4274 92.8331 80.3817 92.7443C80.336 92.6555 80.3125 92.5604 80.3125 92.4643C80.3125 92.3682 80.336 92.273 80.3817 92.1842C80.4274 92.0955 80.4944 92.0148 80.5788 91.9469C80.6633 91.879 80.7635 91.8251 80.8738 91.7884C80.9841 91.7518 81.1022 91.7329 81.2216 91.733V93.1955ZM108.234 91.8791C108.445 91.8793 108.643 91.9472 108.784 92.0612C108.925 92.1746 108.995 92.3207 108.995 92.4643C108.995 92.6079 108.925 92.754 108.784 92.8673C108.643 92.9814 108.445 93.0492 108.234 93.0494L81.2216 93.0494L81.2214 93.0494C81.1174 93.0495 81.0149 93.0331 80.9199 93.0015C80.8249 92.9699 80.7403 92.9241 80.6704 92.8678C80.6005 92.8116 80.5472 92.7466 80.5116 92.6775C80.4761 92.6085 80.4586 92.5362 80.4586 92.4643C80.4586 92.3924 80.4761 92.32 80.5116 92.2511C80.5472 92.182 80.6005 92.1169 80.6704 92.0607C80.7403 92.0045 80.8249 91.9587 80.9199 91.9271C81.0149 91.8955 81.1174 91.879 81.2214 91.8791H81.2216H108.234Z" fill="black" stroke="black" stroke-width="0.292183"/>
<path id="Vector_23" d="M89.873 109.949C91.8049 109.949 93.371 109.775 93.371 109.561C93.371 109.346 91.8049 109.172 89.873 109.172C87.9411 109.172 86.375 109.346 86.375 109.561C86.375 109.775 87.9411 109.949 89.873 109.949Z" fill="#F2F2F2"/>
<path id="Vector_24" d="M68.0214 64.3945C69.9533 64.3945 71.5194 64.2207 71.5194 64.0063C71.5194 63.7919 69.9533 63.618 68.0214 63.618C66.0895 63.618 64.5234 63.7919 64.5234 64.0063C64.5234 64.2207 66.0895 64.3945 68.0214 64.3945Z" fill="#F2F2F2"/>
</g>
</g>
</svg>
