<svg width="92" height="92" viewBox="0 0 92 92" fill="none" xmlns="http://www.w3.org/2000/svg">
<g id="undraw_fingerprint_login_re_t71l 1">
<g id="Group">
<path id="Vector" d="M45.8074 83.6309C68.6952 83.6309 87.2495 65.0767 87.2495 42.1888C87.2495 19.301 68.6952 0.746704 45.8074 0.746704C22.9195 0.746704 4.36523 19.301 4.36523 42.1888C4.36523 65.0767 22.9195 83.6309 45.8074 83.6309Z" fill="#7F95D1"/>
<g id="Group_2">
<path id="Vector_2" d="M35.3215 69.2256C37.8373 60.1507 40.3531 51.0757 42.8689 42.0008C43.4045 40.0688 43.8189 37.9231 45.0448 36.2834C45.9926 35.0158 47.4833 34.1865 49.061 34.7078C52.8226 35.9506 52.7617 41.3785 52.6949 44.5452C52.594 49.3256 51.515 54.0951 49.5286 58.4464C49.2562 59.0432 49.3583 59.7547 49.9646 60.1093C50.4871 60.4149 51.3536 60.2733 51.6275 59.6733C53.6165 55.3163 54.7987 50.6526 55.0738 45.8672C55.3111 41.7382 55.3289 36.293 51.7501 33.4788C50.001 32.1034 47.7684 31.6948 45.7176 32.6455C43.691 33.5849 42.4535 35.5301 41.6753 37.5441C40.81 39.7836 40.2946 42.1852 39.654 44.4959L37.5898 51.942C36.0524 57.4878 34.515 63.0336 32.9776 68.5794C32.559 70.0891 34.9035 70.7335 35.3215 69.2256Z" fill="white"/>
<path id="Vector_3" d="M46.0974 56.5872C47.6541 50.7441 48.4495 44.7018 48.4561 38.6548C48.4578 37.0906 46.027 37.0882 46.0253 38.6548C46.0189 44.4969 45.2574 50.2958 43.7534 55.941C43.3503 57.4542 45.6945 58.0998 46.0974 56.5872Z" fill="white"/>
<path id="Vector_4" d="M21.1081 56.517C22.7372 48.6621 24.5005 40.7821 26.7617 33.0817C28.5952 26.8378 31.7565 19.762 38.4287 17.4982C41.7424 16.3738 45.334 16.555 48.7257 17.2073C52.0888 17.8543 55.4954 18.8171 58.5951 20.2898C61.5294 21.6839 64.2439 23.6053 66.1756 26.2523C68.0824 28.8652 69.2698 31.8976 69.9098 35.0553C71.395 42.3833 69.6467 49.8694 67.6881 56.9323C67.4275 57.8723 67.1609 58.8107 66.8942 59.749C66.4657 61.2564 68.8105 61.8998 69.2382 60.3952C71.4028 52.7805 73.6512 44.8259 72.6427 36.8341C72.2066 33.3779 71.2371 29.9826 69.5094 26.9407C67.7389 23.8235 65.1844 21.2755 62.122 19.4235C59.0336 17.5558 55.5567 16.3667 52.0753 15.4743C48.3774 14.5265 44.5291 13.943 40.7204 14.4727C37.129 14.9722 33.8933 16.6749 31.3501 19.2459C28.7447 21.8797 26.9829 25.1708 25.6828 28.6104C24.249 32.4038 23.3127 36.3888 22.3263 40.3159C21.2838 44.4666 20.3112 48.6349 19.4091 52.8185C19.1899 53.835 18.9752 54.8526 18.7641 55.8708C18.6309 56.513 18.9515 57.1842 19.6129 57.3659C20.2153 57.5314 20.9742 57.1628 21.1081 56.517Z" fill="white"/>
<path id="Vector_5" d="M33.6338 31.3891C35.5293 25.6371 41.6335 22.0761 47.5435 22.4707C54.0945 22.9081 59.7726 27.6924 62.0724 33.7127C63.4391 37.2901 63.8402 41.2273 63.2657 45.0126C63.1673 45.6608 63.4291 46.3193 64.1146 46.5077C64.6892 46.6656 65.5106 46.3117 65.6097 45.6588C66.758 38.0929 64.6477 29.8489 58.6934 24.7327C55.9013 22.3336 52.4817 20.6731 48.8208 20.1759C45.3004 19.6978 41.7514 20.3494 38.6347 22.0632C35.2159 23.9431 32.5151 27.0246 31.2897 30.7429C30.799 32.2321 33.1456 32.8704 33.6338 31.3891Z" fill="white"/>
<path id="Vector_6" d="M28.4612 42.5374C27.9391 48.773 26.3674 54.939 23.8248 60.6581C23.5583 61.2574 23.6505 61.964 24.2608 62.321C24.7787 62.6239 25.6557 62.4878 25.9237 61.8849C28.6528 55.7465 30.3314 49.2332 30.892 42.5374C30.9468 41.8824 30.2941 41.322 29.6766 41.322C28.9734 41.322 28.5161 41.8805 28.4612 42.5374Z" fill="white"/>
<path id="Vector_7" d="M57.8264 49.4983C57.3043 55.7339 55.7327 61.8999 53.19 67.619C52.9235 68.2183 53.0158 68.925 53.626 69.2819C54.144 69.5849 55.0209 69.4487 55.2889 68.8459C58.018 62.7074 59.6966 56.1941 60.2572 49.4983C60.312 48.8433 59.6593 48.2829 59.0418 48.2829C58.3386 48.2829 57.8814 48.8415 57.8264 49.4983Z" fill="white"/>
<path id="Vector_8" d="M34.5814 44.6602C36.1444 38.4621 38.7342 32.5882 42.2478 27.2484C43.1102 25.9378 41.0061 24.7188 40.1488 26.0215C36.5298 31.5215 33.8473 37.6301 32.2374 44.0139C31.8547 45.5312 34.1984 46.1785 34.5814 44.6602Z" fill="white"/>
</g>
</g>
<g id="Group 33">
<path id="Vector_9" d="M53.3398 76.4081H55.2256" stroke="black" stroke-width="1.51809" stroke-linecap="round" stroke-linejoin="round"/>
<path id="Vector_10" d="M49.7988 74.2752C49.7988 87.2506 63.866 95.3603 75.1199 88.8725C80.3429 85.8616 83.5603 80.2971 83.5603 74.2752C83.5603 61.2997 69.493 53.1901 58.2392 59.6778C53.0163 62.6887 49.7988 68.2532 49.7988 74.2752Z" fill="white"/>
<path id="Vector_11" d="M49.7988 74.2752C49.7988 87.2506 63.866 95.3603 75.1199 88.8725C80.3429 85.8616 83.5603 80.2971 83.5603 74.2752C83.5603 61.2997 69.493 53.1901 58.2392 59.6778C53.0163 62.6887 49.7988 68.2532 49.7988 74.2752Z" stroke="black" stroke-width="1.3" stroke-linecap="round" stroke-linejoin="round"/>
<path id="Vector_12" d="M69.4945 82.703V77.0841H75.1206C77.2865 77.0386 78.591 74.6689 77.4685 72.8187C76.9695 71.996 76.0837 71.4854 75.1206 71.4651H69.4945V65.8474C69.4489 63.6846 67.0758 62.3823 65.2228 63.503C64.3989 64.0014 63.8875 64.8858 63.8672 65.8474V71.4651H58.2399C56.0739 71.5105 54.7693 73.88 55.8916 75.7303C56.3907 76.5531 57.2766 77.0639 58.2399 77.0841H63.8672V82.703C63.9126 84.8657 66.2857 86.1684 68.1387 85.0478C68.9629 84.5494 69.4744 83.6648 69.4945 82.703Z" stroke="black" stroke-width="1.3" stroke-linejoin="round"/>
</g>
</g>
</svg>
