<svg width="829" height="218" viewBox="0 0 829 218" fill="none" xmlns="http://www.w3.org/2000/svg">
<path d="M515.122 155.584V200.16L497.595 188.63L479.539 200.16V155.584" fill="#E4E4FD"/>
<path d="M515.122 155.584V200.16L497.595 188.63L479.539 200.16V155.584" fill="black" fill-opacity="0.05"/>
<path d="M498.113 16H362.887C354.665 16 348 22.589 348 30.717V131.283C348 139.411 354.665 146 362.887 146H498.113C506.335 146 513 139.411 513 131.283V30.717C513 22.589 506.335 16 498.113 16Z" fill="#E4E4FD"/>
<path d="M498.113 16H362.887C354.665 16 348 22.589 348 30.717V131.283C348 139.411 354.665 146 362.887 146H498.113C506.335 146 513 139.411 513 131.283V30.717C513 22.589 506.335 16 498.113 16Z" fill="black" fill-opacity="0.05"/>
<path d="M497.062 170.547C514.28 170.547 528.238 156.59 528.238 139.372C528.238 122.154 514.28 108.196 497.062 108.196C479.845 108.196 465.887 122.154 465.887 139.372C465.887 156.59 479.845 170.547 497.062 170.547Z" fill="#E4E4FD"/>
<path d="M497.062 170.547C514.28 170.547 528.238 156.59 528.238 139.372C528.238 122.154 514.28 108.196 497.062 108.196C479.845 108.196 465.887 122.154 465.887 139.372C465.887 156.59 479.845 170.547 497.062 170.547Z" fill="black" fill-opacity="0.05"/>
<path d="M500.012 158.582C508.965 158.582 516.223 151.324 516.223 142.371C516.223 133.418 508.965 126.16 500.012 126.16C491.059 126.16 483.801 133.418 483.801 142.371C483.801 151.324 491.059 158.582 500.012 158.582Z" fill="#E4E4FD"/>
<path d="M500.012 158.582C508.965 158.582 516.223 151.324 516.223 142.371C516.223 133.418 508.965 126.16 500.012 126.16C491.059 126.16 483.801 133.418 483.801 142.371C483.801 151.324 491.059 158.582 500.012 158.582Z" fill="black" fill-opacity="0.05"/>
<path d="M472.695 76.495L476.166 62.6742L526.546 19.2229L536.673 31.6045L486.477 74.8701L472.695 76.495Z" fill="#E4E4FD"/>
<path d="M472.695 76.495L476.166 62.6742L526.546 19.2229L536.673 31.6045L486.477 74.8701L472.695 76.495Z" fill="black" fill-opacity="0.05"/>
<path d="M17.8997 126.915V124.873H15.8581C15.2775 124.873 14.7024 124.759 14.166 124.537C13.6295 124.315 13.1425 123.989 12.732 123.578C12.3215 123.168 11.9957 122.68 11.7736 122.144C11.5515 121.607 11.4373 121.032 11.4375 120.452C11.4373 119.871 11.5515 119.296 11.7736 118.759C11.9957 118.223 12.3215 117.735 12.732 117.325C13.1425 116.914 13.6295 116.588 14.166 116.366C14.7024 116.144 15.2775 116.029 15.8581 116.029H17.8997V113.988C17.8997 112.815 18.3656 111.691 19.1949 110.861C20.0241 110.032 21.1488 109.566 22.3216 109.566C23.4941 109.567 24.6186 110.032 25.4476 110.862C26.2766 111.691 26.7422 112.816 26.7421 113.988V116.029H28.7838C29.3645 116.029 29.9393 116.144 30.4759 116.366C31.0125 116.588 31.4998 116.914 31.9105 117.324C32.3211 117.735 32.6473 118.223 32.8695 118.759C33.0917 119.296 33.2058 119.871 33.2056 120.452C33.2058 121.032 33.0917 121.607 32.8695 122.144C32.6473 122.681 32.3211 123.168 31.9105 123.579C31.4998 123.989 31.0125 124.315 30.4759 124.537C29.9393 124.759 29.3645 124.874 28.7838 124.873H26.7421V126.915C26.7422 128.087 26.2766 129.212 25.4476 130.041C24.6186 130.87 23.4941 131.337 22.3216 131.337C21.1488 131.337 20.0241 130.871 19.1949 130.042C18.3656 129.212 17.8997 128.087 17.8997 126.915Z" fill="#E4E4FD"/>
<path d="M17.8997 126.915V124.873H15.8581C15.2775 124.873 14.7024 124.759 14.166 124.537C13.6295 124.315 13.1425 123.989 12.732 123.578C12.3215 123.168 11.9957 122.68 11.7736 122.144C11.5515 121.607 11.4373 121.032 11.4375 120.452C11.4373 119.871 11.5515 119.296 11.7736 118.759C11.9957 118.223 12.3215 117.735 12.732 117.325C13.1425 116.914 13.6295 116.588 14.166 116.366C14.7024 116.144 15.2775 116.029 15.8581 116.029H17.8997V113.988C17.8997 112.815 18.3656 111.691 19.1949 110.861C20.0241 110.032 21.1488 109.566 22.3216 109.566C23.4941 109.567 24.6186 110.032 25.4476 110.862C26.2766 111.691 26.7422 112.816 26.7421 113.988V116.029H28.7838C29.3645 116.029 29.9393 116.144 30.4759 116.366C31.0125 116.588 31.4998 116.914 31.9105 117.324C32.3211 117.735 32.6473 118.223 32.8695 118.759C33.0917 119.296 33.2058 119.871 33.2056 120.452C33.2058 121.032 33.0917 121.607 32.8695 122.144C32.6473 122.681 32.3211 123.168 31.9105 123.579C31.4998 123.989 31.0125 124.315 30.4759 124.537C29.9393 124.759 29.3645 124.874 28.7838 124.873H26.7421V126.915C26.7422 128.087 26.2766 129.212 25.4476 130.041C24.6186 130.87 23.4941 131.337 22.3216 131.337C21.1488 131.337 20.0241 130.871 19.1949 130.042C18.3656 129.212 17.8997 128.087 17.8997 126.915Z" fill="black" fill-opacity="0.05"/>
<path d="M300.974 212.959V210.918H298.932C298.352 210.918 297.777 210.804 297.24 210.582C296.704 210.359 296.217 210.034 295.806 209.623C295.396 209.212 295.07 208.725 294.848 208.188C294.626 207.652 294.512 207.077 294.512 206.496C294.512 205.916 294.626 205.341 294.848 204.804C295.07 204.268 295.396 203.78 295.806 203.37C296.217 202.959 296.704 202.633 297.24 202.411C297.777 202.189 298.352 202.074 298.932 202.074H300.974V200.033C300.974 198.86 301.44 197.735 302.269 196.906C303.098 196.077 304.223 195.611 305.396 195.611C306.568 195.611 307.693 196.077 308.522 196.906C309.351 197.736 309.816 198.86 309.816 200.033V202.074H311.858C312.439 202.074 313.014 202.188 313.55 202.411C314.087 202.633 314.574 202.958 314.985 203.369C315.395 203.78 315.722 204.267 315.944 204.804C316.166 205.34 316.28 205.915 316.28 206.496C316.28 207.077 316.166 207.652 315.944 208.189C315.722 208.725 315.395 209.213 314.985 209.623C314.574 210.034 314.087 210.36 313.55 210.582C313.014 210.804 312.439 210.918 311.858 210.918H309.816V212.959C309.816 214.132 309.351 215.257 308.522 216.086C307.693 216.915 306.568 217.381 305.396 217.382C304.223 217.382 303.098 216.916 302.269 216.086C301.44 215.257 300.974 214.132 300.974 212.959Z" fill="#E4E4FD"/>
<path d="M300.974 212.959V210.918H298.932C298.352 210.918 297.777 210.804 297.24 210.582C296.704 210.359 296.217 210.034 295.806 209.623C295.396 209.212 295.07 208.725 294.848 208.188C294.626 207.652 294.512 207.077 294.512 206.496C294.512 205.916 294.626 205.341 294.848 204.804C295.07 204.268 295.396 203.78 295.806 203.37C296.217 202.959 296.704 202.633 297.24 202.411C297.777 202.189 298.352 202.074 298.932 202.074H300.974V200.033C300.974 198.86 301.44 197.735 302.269 196.906C303.098 196.077 304.223 195.611 305.396 195.611C306.568 195.611 307.693 196.077 308.522 196.906C309.351 197.736 309.816 198.86 309.816 200.033V202.074H311.858C312.439 202.074 313.014 202.188 313.55 202.411C314.087 202.633 314.574 202.958 314.985 203.369C315.395 203.78 315.722 204.267 315.944 204.804C316.166 205.34 316.28 205.915 316.28 206.496C316.28 207.077 316.166 207.652 315.944 208.189C315.722 208.725 315.395 209.213 314.985 209.623C314.574 210.034 314.087 210.36 313.55 210.582C313.014 210.804 312.439 210.918 311.858 210.918H309.816V212.959C309.816 214.132 309.351 215.257 308.522 216.086C307.693 216.915 306.568 217.381 305.396 217.382C304.223 217.382 303.098 216.916 302.269 216.086C301.44 215.257 300.974 214.132 300.974 212.959Z" fill="black" fill-opacity="0.05"/>
<path d="M299.054 43.3022L300.228 41.9037L297.907 39.9551C297.402 39.5311 296.986 39.012 296.682 38.4271C296.378 37.8421 296.192 37.203 296.135 36.5462C296.078 35.8894 296.15 35.2276 296.349 34.599C296.548 33.9705 296.869 33.3872 297.293 32.8826C297.717 32.378 298.236 31.962 298.82 31.6581C299.405 31.3541 300.044 31.1683 300.7 31.1112C301.357 31.0541 302.018 31.1266 302.646 31.325C303.274 31.5234 303.857 31.8435 304.362 32.2672L306.683 34.2158L307.859 32.8156C308.324 32.2616 308.893 31.8044 309.535 31.4705C310.176 31.1367 310.878 30.9324 311.598 30.8696C312.319 30.8068 313.045 30.8865 313.735 31.1043C314.425 31.3221 315.065 31.6739 315.619 32.1391C316.173 32.6041 316.63 33.1734 316.964 33.815C317.297 34.4566 317.502 35.1577 317.564 35.8782C317.627 36.5987 317.547 37.3245 317.33 38.0142C317.112 38.704 316.761 39.3443 316.296 39.8983L315.121 41.2985L317.442 43.2467C318.46 44.102 319.098 45.3272 319.214 46.6525C319.33 47.9778 318.914 49.2946 318.058 50.3135C317.635 50.8183 317.116 51.235 316.532 51.5392C315.947 51.8435 315.309 52.0297 314.653 52.0871C313.996 52.1446 313.335 52.0722 312.706 51.8741C312.078 51.676 311.495 51.356 310.99 50.9325L308.669 48.9843L307.495 50.3826C307.03 50.9365 306.46 51.3933 305.819 51.7271C305.177 52.0609 304.477 52.2652 303.756 52.328C303.036 52.3908 302.31 52.3111 301.62 52.0934C300.931 51.8757 300.291 51.5241 299.737 51.059C299.183 50.5945 298.725 50.0252 298.391 49.384C298.057 48.7428 297.852 48.0419 297.789 47.3216C297.725 46.6013 297.805 45.8757 298.022 45.1859C298.239 44.4962 298.59 43.8564 299.054 43.3022Z" fill="#E4E4FD"/>
<path d="M299.054 43.3022L300.228 41.9037L297.907 39.9551C297.402 39.5311 296.986 39.012 296.682 38.4271C296.378 37.8421 296.192 37.203 296.135 36.5462C296.078 35.8894 296.15 35.2276 296.349 34.599C296.548 33.9705 296.869 33.3872 297.293 32.8826C297.717 32.378 298.236 31.962 298.82 31.6581C299.405 31.3541 300.044 31.1683 300.7 31.1112C301.357 31.0541 302.018 31.1266 302.646 31.325C303.274 31.5234 303.857 31.8435 304.362 32.2672L306.683 34.2158L307.859 32.8156C308.324 32.2616 308.893 31.8044 309.535 31.4705C310.176 31.1367 310.878 30.9324 311.598 30.8696C312.319 30.8068 313.045 30.8865 313.735 31.1043C314.425 31.3221 315.065 31.6739 315.619 32.1391C316.173 32.6041 316.63 33.1734 316.964 33.815C317.297 34.4566 317.502 35.1577 317.564 35.8782C317.627 36.5987 317.547 37.3245 317.33 38.0142C317.112 38.704 316.761 39.3443 316.296 39.8983L315.121 41.2985L317.442 43.2467C318.46 44.102 319.098 45.3272 319.214 46.6525C319.33 47.9778 318.914 49.2946 318.058 50.3135C317.635 50.8183 317.116 51.235 316.532 51.5392C315.947 51.8435 315.309 52.0297 314.653 52.0871C313.996 52.1446 313.335 52.0722 312.706 51.8741C312.078 51.676 311.495 51.356 310.99 50.9325L308.669 48.9843L307.495 50.3826C307.03 50.9365 306.46 51.3933 305.819 51.7271C305.177 52.0609 304.477 52.2652 303.756 52.328C303.036 52.3908 302.31 52.3111 301.62 52.0934C300.931 51.8757 300.291 51.5241 299.737 51.059C299.183 50.5945 298.725 50.0252 298.391 49.384C298.057 48.7428 297.852 48.0419 297.789 47.3216C297.725 46.6013 297.805 45.8757 298.022 45.1859C298.239 44.4962 298.59 43.8564 299.054 43.3022Z" fill="black" fill-opacity="0.05"/>
<path d="M572.413 86.2085H537.194C528.964 86.2085 522.293 92.8798 522.293 101.109C522.293 109.339 528.964 116.01 537.194 116.01H572.413C580.643 116.01 587.314 109.339 587.314 101.109C587.314 92.8798 580.643 86.2085 572.413 86.2085Z" fill="#E4E4FD"/>
<path d="M572.413 86.2085H537.194C528.964 86.2085 522.293 92.8798 522.293 101.109C522.293 109.339 528.964 116.01 537.194 116.01H572.413C580.643 116.01 587.314 109.339 587.314 101.109C587.314 92.8798 580.643 86.2085 572.413 86.2085Z" fill="black" fill-opacity="0.05"/>
<path d="M623.521 163.523H569.596C561.367 163.523 554.695 170.195 554.695 178.424C554.695 186.654 561.367 193.325 569.596 193.325H623.521C631.751 193.325 638.422 186.654 638.422 178.424C638.422 170.195 631.751 163.523 623.521 163.523Z" fill="#E4E4FD"/>
<path d="M623.521 163.523H569.596C561.367 163.523 554.695 170.195 554.695 178.424C554.695 186.654 561.367 193.325 569.596 193.325H623.521C631.751 193.325 638.422 186.654 638.422 178.424C638.422 170.195 631.751 163.523 623.521 163.523Z" fill="black" fill-opacity="0.05"/>
<path d="M664.956 125.042H569.237C561.007 125.042 554.336 131.713 554.336 139.942C554.336 148.172 561.007 154.843 569.237 154.843H664.956C673.185 154.843 679.856 148.172 679.856 139.942C679.856 131.713 673.185 125.042 664.956 125.042Z" fill="#E4E4FD"/>
<path d="M664.956 125.042H569.237C561.007 125.042 554.336 131.713 554.336 139.942C554.336 148.172 561.007 154.843 569.237 154.843H664.956C673.185 154.843 679.856 148.172 679.856 139.942C679.856 131.713 673.185 125.042 664.956 125.042Z" fill="black" fill-opacity="0.05"/>
<path d="M758.691 125.042H708.119C699.89 125.042 693.219 131.713 693.219 139.942C693.219 148.172 699.89 154.843 708.119 154.843H758.691C766.921 154.843 773.592 148.172 773.592 139.942C773.592 131.713 766.921 125.042 758.691 125.042Z" fill="#E4E4FD"/>
<path d="M758.691 125.042H708.119C699.89 125.042 693.219 131.713 693.219 139.942C693.219 148.172 699.89 154.843 708.119 154.843H758.691C766.921 154.843 773.592 148.172 773.592 139.942C773.592 131.713 766.921 125.042 758.691 125.042Z" fill="black" fill-opacity="0.05"/>
<path d="M809.205 154.368V151.762H806.598C805.856 151.762 805.122 151.616 804.437 151.333C803.752 151.049 803.129 150.633 802.604 150.109C802.08 149.585 801.664 148.962 801.38 148.277C801.096 147.592 800.949 146.857 800.949 146.115C800.949 144.617 801.544 143.18 802.604 142.121C803.663 141.062 805.1 140.467 806.598 140.467H809.205V137.86C809.205 136.362 809.8 134.925 810.859 133.866C811.918 132.806 813.355 132.211 814.853 132.211C816.352 132.212 817.788 132.807 818.848 133.866C819.907 134.925 820.502 136.362 820.503 137.86V140.467H823.109C823.851 140.467 824.585 140.613 825.27 140.897C825.955 141.181 826.578 141.597 827.102 142.122C827.626 142.646 828.042 143.269 828.326 143.954C828.61 144.639 828.755 145.374 828.755 146.115C828.755 147.613 828.16 149.049 827.101 150.108C826.043 151.167 824.606 151.762 823.109 151.762H820.503V154.368C820.502 155.866 819.907 157.303 818.848 158.362C817.788 159.422 816.352 160.017 814.853 160.017C814.112 160.017 813.377 159.871 812.692 159.587C812.006 159.303 811.384 158.887 810.859 158.363C810.334 157.838 809.918 157.215 809.635 156.53C809.351 155.845 809.205 155.11 809.205 154.368Z" fill="#E4E4FD"/>
<path d="M809.205 154.368V151.762H806.598C805.856 151.762 805.122 151.616 804.437 151.333C803.752 151.049 803.129 150.633 802.604 150.109C802.08 149.585 801.664 148.962 801.38 148.277C801.096 147.592 800.949 146.857 800.949 146.115C800.949 144.617 801.544 143.18 802.604 142.121C803.663 141.062 805.1 140.467 806.598 140.467H809.205V137.86C809.205 136.362 809.8 134.925 810.859 133.866C811.918 132.806 813.355 132.211 814.853 132.211C816.352 132.212 817.788 132.807 818.848 133.866C819.907 134.925 820.502 136.362 820.503 137.86V140.467H823.109C823.851 140.467 824.585 140.613 825.27 140.897C825.955 141.181 826.578 141.597 827.102 142.122C827.626 142.646 828.042 143.269 828.326 143.954C828.61 144.639 828.755 145.374 828.755 146.115C828.755 147.613 828.16 149.049 827.101 150.108C826.043 151.167 824.606 151.762 823.109 151.762H820.503V154.368C820.502 155.866 819.907 157.303 818.848 158.362C817.788 159.422 816.352 160.017 814.853 160.017C814.112 160.017 813.377 159.871 812.692 159.587C812.006 159.303 811.384 158.887 810.859 158.363C810.334 157.838 809.918 157.215 809.635 156.53C809.351 155.845 809.205 155.11 809.205 154.368Z" fill="black" fill-opacity="0.05"/>
<path d="M629.166 98.0753L631.009 96.2323L629.166 94.3891C628.641 93.8648 628.225 93.2427 627.941 92.5575C627.657 91.8723 627.511 91.1378 627.511 90.3961C627.511 89.6544 627.657 88.92 627.94 88.2347C628.224 87.5494 628.64 86.9266 629.164 86.4021C630.224 85.3427 631.66 84.7474 633.159 84.7474C634.657 84.7474 636.093 85.3427 637.153 86.4021L638.996 88.2453L640.839 86.4023C641.898 85.3429 643.335 84.7477 644.833 84.7477C646.332 84.7477 647.768 85.3427 648.828 86.4021C649.887 87.4616 650.482 88.8987 650.482 90.3968C650.482 91.8949 649.887 93.3317 648.828 94.3912L646.985 96.2342L648.828 98.077C649.352 98.6016 649.768 99.224 650.052 99.9093C650.335 100.595 650.481 101.329 650.481 102.071C650.481 102.813 650.335 103.547 650.051 104.232C649.767 104.917 649.351 105.54 648.826 106.064C647.767 107.122 646.331 107.718 644.834 107.718C643.336 107.718 641.9 107.123 640.841 106.064L638.998 104.221L637.155 106.064C636.095 107.123 634.659 107.718 633.161 107.718C631.662 107.718 630.225 107.123 629.166 106.064C628.641 105.539 628.225 104.917 627.942 104.231C627.658 103.546 627.511 102.811 627.511 102.07C627.511 101.328 627.658 100.593 627.942 99.9077C628.225 99.2224 628.642 98.5999 629.166 98.0753Z" fill="#E4E4FD"/>
<path d="M629.166 98.0753L631.009 96.2323L629.166 94.3891C628.641 93.8648 628.225 93.2427 627.941 92.5575C627.657 91.8723 627.511 91.1378 627.511 90.3961C627.511 89.6544 627.657 88.92 627.94 88.2347C628.224 87.5494 628.64 86.9266 629.164 86.4021C630.224 85.3427 631.66 84.7474 633.159 84.7474C634.657 84.7474 636.093 85.3427 637.153 86.4021L638.996 88.2453L640.839 86.4023C641.898 85.3429 643.335 84.7477 644.833 84.7477C646.332 84.7477 647.768 85.3427 648.828 86.4021C649.887 87.4616 650.482 88.8987 650.482 90.3968C650.482 91.8949 649.887 93.3317 648.828 94.3912L646.985 96.2342L648.828 98.077C649.352 98.6016 649.768 99.224 650.052 99.9093C650.335 100.595 650.481 101.329 650.481 102.071C650.481 102.813 650.335 103.547 650.051 104.232C649.767 104.917 649.351 105.54 648.826 106.064C647.767 107.122 646.331 107.718 644.834 107.718C643.336 107.718 641.9 107.123 640.841 106.064L638.998 104.221L637.155 106.064C636.095 107.123 634.659 107.718 633.161 107.718C631.662 107.718 630.225 107.123 629.166 106.064C628.641 105.539 628.225 104.917 627.942 104.231C627.658 103.546 627.511 102.811 627.511 102.07C627.511 101.328 627.658 100.593 627.942 99.9077C628.225 99.2224 628.642 98.5999 629.166 98.0753Z" fill="black" fill-opacity="0.05"/>
<path d="M696.545 189.107L698.388 187.264L696.545 185.421C696.02 184.897 695.604 184.275 695.32 183.59C695.036 182.904 694.89 182.17 694.89 181.428C694.89 180.687 695.036 179.952 695.319 179.267C695.603 178.582 696.019 177.959 696.543 177.434C697.603 176.375 699.039 175.78 700.538 175.78C702.036 175.78 703.472 176.375 704.532 177.434L706.375 179.277L708.218 177.434C709.277 176.375 710.714 175.78 712.212 175.78C713.71 175.78 715.147 176.375 716.207 177.434C717.266 178.494 717.861 179.931 717.861 181.429C717.861 182.927 717.266 184.364 716.207 185.423L714.364 187.266L716.207 189.109C716.731 189.634 717.147 190.256 717.431 190.941C717.714 191.627 717.86 192.361 717.86 193.103C717.86 193.845 717.714 194.579 717.43 195.264C717.146 195.949 716.73 196.572 716.205 197.096C715.146 198.155 713.71 198.75 712.212 198.75C710.715 198.75 709.279 198.155 708.22 197.096L706.377 195.253L704.534 197.096C703.474 198.155 702.038 198.75 700.539 198.75C699.041 198.75 697.604 198.155 696.545 197.096C696.02 196.572 695.604 195.949 695.32 195.263C695.037 194.578 694.89 193.844 694.89 193.102C694.89 192.36 695.037 191.625 695.32 190.94C695.604 190.254 696.02 189.632 696.545 189.107Z" fill="#E4E4FD"/>
<path d="M696.545 189.107L698.388 187.264L696.545 185.421C696.02 184.897 695.604 184.275 695.32 183.59C695.036 182.904 694.89 182.17 694.89 181.428C694.89 180.687 695.036 179.952 695.319 179.267C695.603 178.582 696.019 177.959 696.543 177.434C697.603 176.375 699.039 175.78 700.538 175.78C702.036 175.78 703.472 176.375 704.532 177.434L706.375 179.277L708.218 177.434C709.277 176.375 710.714 175.78 712.212 175.78C713.71 175.78 715.147 176.375 716.207 177.434C717.266 178.494 717.861 179.931 717.861 181.429C717.861 182.927 717.266 184.364 716.207 185.423L714.364 187.266L716.207 189.109C716.731 189.634 717.147 190.256 717.431 190.941C717.714 191.627 717.86 192.361 717.86 193.103C717.86 193.845 717.714 194.579 717.43 195.264C717.146 195.949 716.73 196.572 716.205 197.096C715.146 198.155 713.71 198.75 712.212 198.75C710.715 198.75 709.279 198.155 708.22 197.096L706.377 195.253L704.534 197.096C703.474 198.155 702.038 198.75 700.539 198.75C699.041 198.75 697.604 198.155 696.545 197.096C696.02 196.572 695.604 195.949 695.32 195.263C695.037 194.578 694.89 193.844 694.89 193.102C694.89 192.36 695.037 191.625 695.32 190.94C695.604 190.254 696.02 189.632 696.545 189.107Z" fill="black" fill-opacity="0.05"/>
<path d="M157.375 63.3171H242.205" stroke="#111A16" stroke-width="5"/>
<path d="M139.34 109.456H216.202" stroke="#111A16" stroke-width="5"/>
<path d="M50.8594 109.457H127.721" stroke="#111A16" stroke-width="5"/>
<path d="M139.34 155.598H238.195" stroke="#111A16" stroke-width="5"/>
<path d="M227.906 109.456H303.85" stroke="#111A16" stroke-width="5"/>
<path d="M252.746 155.598H291.903" stroke="#111A16" stroke-width="5"/>
<path d="M306.945 155.598H346.102" stroke="#111A16" stroke-width="5"/>
<path d="M258.785 63.3171H291.921" stroke="#111A16" stroke-width="5"/>
<path d="M173.609 82.0229H258.439" stroke="#E9E6FF" stroke-width="5"/>
<path d="M155.574 128.162H232.436" stroke="#E9E6FF" stroke-width="5"/>
<path d="M67.0938 128.163H143.956" stroke="#E9E6FF" stroke-width="5"/>
<path d="M155.574 174.303H254.429" stroke="#E9E6FF" stroke-width="5"/>
<path d="M244.141 128.162H320.084" stroke="#E9E6FF" stroke-width="5"/>
<path d="M268.996 174.303H308.153" stroke="#E9E6FF" stroke-width="5"/>
<path d="M323.18 174.303H362.336" stroke="#E9E6FF" stroke-width="5"/>
<path d="M275.02 82.0229H308.155" stroke="#E9E6FF" stroke-width="5"/>
<path d="M562.515 78.7268H527.295C519.066 78.7268 512.395 85.3981 512.395 93.6275C512.395 101.857 519.066 108.528 527.295 108.528H562.515C570.744 108.528 577.416 101.857 577.416 93.6275C577.416 85.3981 570.744 78.7268 562.515 78.7268Z" fill="white"/>
<path d="M562.546 81.8447H527.326C520.818 81.8447 515.543 87.1202 515.543 93.6279C515.543 100.135 520.818 105.411 527.326 105.411H562.546C569.053 105.411 574.329 100.135 574.329 93.6279C574.329 87.1202 569.053 81.8447 562.546 81.8447Z" stroke="#111A16" stroke-width="5"/>
<path d="M613.564 156.043H559.639C551.41 156.043 544.738 162.714 544.738 170.943C544.738 179.173 551.41 185.844 559.639 185.844H613.564C621.794 185.844 628.465 179.173 628.465 170.943C628.465 162.714 621.794 156.043 613.564 156.043Z" fill="white"/>
<path d="M613.595 159.161H559.67C553.162 159.161 547.887 164.436 547.887 170.944C547.887 177.452 553.162 182.727 559.67 182.727H613.595C620.103 182.727 625.378 177.452 625.378 170.944C625.378 164.436 620.103 159.161 613.595 159.161Z" stroke="#111A16" stroke-width="5"/>
<path d="M655.077 117.558H559.358C551.128 117.558 544.457 124.229 544.457 132.459C544.457 140.688 551.128 147.359 559.358 147.359H655.077C663.306 147.359 669.978 140.688 669.978 132.459C669.978 124.229 663.306 117.558 655.077 117.558Z" fill="white"/>
<path d="M655.108 120.676H559.389C552.881 120.676 547.605 125.951 547.605 132.459C547.605 138.967 552.881 144.242 559.389 144.242H655.108C661.615 144.242 666.891 138.967 666.891 132.459C666.891 125.951 661.615 120.676 655.108 120.676Z" stroke="#111A16" stroke-width="5"/>
<path d="M748.73 117.558H698.159C689.929 117.558 683.258 124.229 683.258 132.459C683.258 140.688 689.929 147.36 698.159 147.36H748.73C756.96 147.36 763.631 140.688 763.631 132.459C763.631 124.229 756.96 117.558 748.73 117.558Z" fill="white"/>
<path d="M748.761 120.676H698.189C691.682 120.676 686.406 125.952 686.406 132.459C686.406 138.967 691.682 144.242 698.189 144.242H748.761C755.269 144.242 760.544 138.967 760.544 132.459C760.544 125.952 755.269 120.676 748.761 120.676Z" stroke="#111A16" stroke-width="5"/>
<path d="M808.259 150.663C806.903 150.663 805.799 149.56 805.799 148.203V146.204V144.333H803.928H801.931C800.573 144.333 799.469 143.23 799.469 141.873C799.469 140.516 800.573 139.413 801.931 139.413H803.928H805.799V137.542V135.543C805.799 134.186 806.903 133.082 808.259 133.082C809.617 133.082 810.721 134.186 810.721 135.543V137.542V139.413H812.592H814.591C815.948 139.413 817.051 140.516 817.051 141.873C817.051 143.23 815.948 144.333 814.591 144.333H812.592H810.721V146.204V148.203C810.721 149.56 809.617 150.663 808.259 150.663Z" fill="white"/>
<path d="M808.228 148.794C808.553 148.794 808.819 148.529 808.819 148.204V146.205V142.463H812.56H814.56C814.885 142.463 815.149 142.199 815.149 141.874C815.149 141.548 814.885 141.284 814.56 141.284H812.56H808.819V137.543V135.544C808.819 135.218 808.553 134.954 808.228 134.954C807.902 134.954 807.638 135.218 807.638 135.544V137.543V141.284H803.897H801.899C801.573 141.284 801.307 141.548 801.307 141.874C801.307 142.199 801.573 142.463 801.899 142.463H803.897H807.638V146.205V148.204C807.638 148.529 807.902 148.794 808.228 148.794ZM808.228 152.535C805.836 152.535 803.897 150.597 803.897 148.204V146.205H801.899C799.506 146.205 797.566 144.267 797.566 141.874C797.566 139.483 799.506 137.543 801.899 137.543H803.897V135.544C803.897 133.15 805.836 131.213 808.228 131.213C810.621 131.213 812.56 133.15 812.56 135.544V137.543H814.56C816.951 137.543 818.89 139.483 818.89 141.874C818.89 144.267 816.951 146.205 814.56 146.205H812.56V148.204C812.56 150.597 810.621 152.535 808.228 152.535Z" fill="#111A16"/>
<path d="M620.562 97.2591C619.089 95.7862 619.089 93.3889 620.562 91.9157L622.405 90.0725L623.728 88.7498L622.405 87.4272L620.562 85.584C619.089 84.111 619.088 81.7146 620.561 80.2421C622.034 78.7689 624.431 78.7689 625.904 80.2418L627.747 82.0851L629.07 83.4077L630.393 82.0851L632.236 80.2418C633.709 78.7687 636.106 78.7687 637.579 80.2416C639.053 81.715 639.053 84.1123 637.58 85.5855L635.736 87.4287L634.414 88.7514L635.736 90.074L637.58 91.9172C639.052 93.3897 639.051 95.7862 637.578 97.2594C636.106 98.7319 633.71 98.7319 632.237 97.2594L630.394 95.4161L629.072 94.0935L627.749 95.4161L625.906 97.2594C624.433 98.7325 622.035 98.7325 620.562 97.2591Z" fill="white"/>
<path d="M621.885 95.9364C622.629 96.6804 623.839 96.6806 624.583 95.9366L626.426 94.0934L629.072 91.4481L631.717 94.0934L633.56 95.9366C634.303 96.6798 635.512 96.6798 636.255 95.9366C636.999 95.1926 637 93.983 636.257 93.2399L634.414 91.3966L631.768 88.7513L634.414 86.106L636.257 84.2628C637.001 83.5188 637.001 82.3082 636.257 81.5642C635.513 80.8202 634.303 80.8205 633.559 81.5645L631.715 83.4077L629.07 86.053L626.425 83.4077L624.582 81.5645C623.838 80.8205 622.627 80.8207 621.883 81.5647C621.14 82.3078 621.141 83.5172 621.885 84.2612L623.728 86.1045L626.373 88.7498L623.728 91.3951L621.885 93.2383C621.141 93.9823 621.141 95.1924 621.885 95.9364ZM619.239 98.5818C617.033 96.3756 617.033 92.7992 619.239 90.593L621.083 88.7498L619.239 86.9066C617.033 84.7004 617.033 81.1242 619.238 78.9193C621.445 76.713 625.021 76.713 627.227 78.9191L629.07 80.7623L630.913 78.9191C633.119 76.713 636.696 76.7127 638.902 78.9189C641.107 81.1242 641.108 84.7019 638.902 86.9081L637.059 88.7513L638.902 90.5945C641.107 92.7994 641.107 96.3756 638.901 98.582C636.696 100.787 633.12 100.787 630.915 98.582L629.072 96.7388L627.228 98.582C625.022 100.788 621.445 100.787 619.239 98.5818Z" fill="#111A16"/>
<path d="M687.988 188.291C686.515 186.818 686.515 184.421 687.988 182.948L689.831 181.105L691.154 179.782L689.831 178.459L687.988 176.616C686.515 175.143 686.514 172.747 687.987 171.274C689.46 169.801 691.857 169.801 693.33 171.274L695.173 173.117L696.496 174.44L697.819 173.117L699.662 171.274C701.135 169.801 703.532 169.801 705.005 171.274C706.479 172.747 706.479 175.145 705.005 176.618L703.162 178.461L701.84 179.784L703.162 181.106L705.005 182.949C706.478 184.422 706.477 186.818 705.004 188.292C703.531 189.764 701.136 189.764 699.663 188.292L697.82 186.448L696.497 185.126L695.175 186.448L693.332 188.292C691.858 189.765 689.461 189.765 687.988 188.291Z" fill="white"/>
<path d="M689.31 186.969C690.054 187.713 691.265 187.713 692.009 186.969L693.852 185.126L696.497 182.48L699.143 185.126L700.986 186.969C701.729 187.712 702.938 187.712 703.681 186.969C704.425 186.225 704.426 185.015 703.683 184.272L701.84 182.429L699.194 179.784L701.84 177.138L703.683 175.295C704.427 174.551 704.427 173.341 703.683 172.597C702.939 171.853 701.728 171.853 700.984 172.597L699.141 174.44L696.496 177.085L693.851 174.44L692.007 172.597C691.263 171.853 690.053 171.853 689.309 172.597C688.566 173.34 688.567 174.55 689.311 175.294L691.154 177.137L693.799 179.782L691.154 182.427L689.311 184.271C688.567 185.015 688.566 186.225 689.31 186.969ZM686.665 189.614C684.459 187.408 684.459 183.832 686.665 181.625L688.508 179.782L686.665 177.939C684.459 175.733 684.459 172.157 686.664 169.952C688.87 167.745 692.447 167.745 694.653 169.951L696.496 171.795L698.339 169.951C700.545 167.745 704.122 167.745 706.328 169.951C708.533 172.157 708.534 175.734 706.328 177.94L704.485 179.784L706.328 181.627C708.533 183.832 708.533 187.408 706.327 189.614C704.122 191.819 700.545 191.819 698.341 189.614L696.497 187.771L694.654 189.614C692.448 191.82 688.87 191.819 686.665 189.614Z" fill="#111A16"/>
<path d="M11.0877 121.983C9.68119 121.983 8.53646 120.839 8.53646 119.432V117.391V115.521H6.66592H4.6249C3.21834 115.521 2.07422 114.377 2.07422 112.97C2.07422 111.563 3.21834 110.419 4.6249 110.419H6.66592H8.53646V108.548V106.507C8.53646 105.101 9.68119 103.956 11.0877 103.956C12.4943 103.956 13.6384 105.101 13.6384 106.507V108.548V110.419H15.509H17.55C18.9565 110.419 20.1013 111.563 20.1013 112.97C20.1013 114.377 18.9565 115.521 17.55 115.521H15.509H13.6384V117.391V119.432C13.6384 120.839 12.4943 121.983 11.0877 121.983Z" fill="white"/>
<path d="M11.0559 120.113C11.431 120.113 11.7361 119.808 11.7361 119.433V117.392V113.651H15.4771H17.5182C17.8932 113.651 18.1989 113.345 18.1989 112.97C18.1989 112.595 17.8932 112.29 17.5182 112.29H15.4771H11.7361V108.549V106.508C11.7361 106.132 11.431 105.827 11.0559 105.827C10.6808 105.827 10.3752 106.132 10.3752 106.508V108.549V112.29H6.63411H4.59308C4.218 112.29 3.91294 112.595 3.91294 112.97C3.91294 113.345 4.218 113.651 4.59308 113.651H6.63411H10.3752V117.392V119.433C10.3752 119.808 10.6808 120.113 11.0559 120.113ZM11.0559 123.854C8.61364 123.854 6.63411 121.875 6.63411 119.433V117.392H4.59308C2.1514 117.392 0.171875 115.412 0.171875 112.97C0.171875 110.528 2.1514 108.549 4.59308 108.549H6.63411V106.508C6.63411 104.066 8.61364 102.086 11.0559 102.086C13.4976 102.086 15.4771 104.066 15.4771 106.508V108.549H17.5182C19.9604 108.549 21.94 110.528 21.94 112.97C21.94 115.412 19.9604 117.392 17.5182 117.392H15.4771V119.433C15.4771 121.875 13.4976 123.854 11.0559 123.854Z" fill="#111A16"/>
<path d="M289.137 204.804C288.293 203.96 288.293 202.587 289.137 201.744L290.454 200.427L291.776 199.104L290.454 197.782L289.137 196.465C288.293 195.621 288.293 194.248 289.137 193.405C289.981 192.561 291.353 192.562 292.197 193.406L293.513 194.722L294.836 196.045L296.159 194.722L297.475 193.406C298.319 192.562 299.692 192.562 300.536 193.406C301.38 194.25 301.379 195.622 300.535 196.466L299.219 197.783L297.896 199.105L299.219 200.428L300.536 201.745C301.379 202.588 301.379 203.959 300.535 204.803C299.692 205.647 298.319 205.647 297.476 204.804L296.159 203.488L294.837 202.165L293.514 203.488L292.198 204.804C291.354 205.648 289.981 205.648 289.137 204.804Z" fill="white"/>
<path d="M290.46 203.481C290.574 203.596 290.761 203.596 290.875 203.481L292.191 202.165L294.837 199.519L297.482 202.165L298.799 203.481C298.912 203.595 299.098 203.594 299.213 203.48C299.327 203.366 299.327 203.181 299.213 203.067L297.896 201.751L295.251 199.105L297.896 196.46L299.213 195.144C299.327 195.029 299.327 194.843 299.213 194.728C299.098 194.614 298.912 194.614 298.798 194.728L297.481 196.045L294.836 198.69L292.191 196.045L290.874 194.728C290.759 194.614 290.574 194.613 290.46 194.727C290.345 194.842 290.345 195.028 290.46 195.142L291.776 196.459L294.422 199.104L291.776 201.75L290.46 203.066C290.345 203.181 290.345 203.367 290.46 203.481ZM287.814 206.127C286.239 204.551 286.239 201.997 287.815 200.421L289.131 199.104L287.814 197.788C286.239 196.212 286.239 193.658 287.815 192.082C289.389 190.507 291.943 190.507 293.519 192.083L294.836 193.4L296.152 192.083C297.728 190.507 300.282 190.507 301.858 192.083C303.433 193.658 303.434 196.213 301.858 197.789L300.542 199.105L301.858 200.422C303.433 201.997 303.433 204.551 301.858 206.125C300.282 207.701 297.728 207.702 296.153 206.127L294.837 204.81L293.52 206.127C291.944 207.703 289.389 207.702 287.814 206.127Z" fill="#111A16"/>
<path d="M291.755 41.5156C290.365 40.1262 290.365 37.8658 291.755 36.4764L293.527 34.7036L294.85 33.3809L293.527 32.0582L291.754 30.2852C290.365 28.8958 290.365 26.6354 291.754 25.246C293.144 23.8566 295.404 23.8566 296.794 25.246L298.567 27.019L299.889 28.3417L301.212 27.019L302.986 25.2447C304.376 23.8553 306.636 23.8553 308.026 25.2447C309.415 26.6341 309.415 28.8945 308.026 30.2839L306.251 32.0582L304.929 33.3809L306.251 34.7036L308.025 36.4775C309.415 37.8669 309.415 40.1273 308.025 41.5167C306.636 42.9061 304.375 42.9061 302.986 41.5167L301.212 39.7428L299.889 38.4201L298.567 39.7428L296.794 41.5156C295.404 42.905 293.144 42.905 291.755 41.5156Z" fill="white"/>
<path d="M293.077 40.1929C293.737 40.8529 294.811 40.8529 295.471 40.1929L297.244 38.4201L299.889 35.7747L302.535 38.4201L304.309 40.194C304.969 40.854 306.042 40.854 306.702 40.194C307.362 39.5339 307.362 38.4601 306.702 37.8001L304.929 36.0262L302.283 33.3808L304.929 30.7355L306.703 28.9612C307.363 28.3011 307.363 27.2273 306.703 26.5673C306.043 25.9072 304.969 25.9072 304.309 26.5673L302.535 28.3416L299.889 30.9869L297.244 28.3416L295.471 26.5686C294.811 25.9085 293.737 25.9085 293.077 26.5686C292.417 27.2286 292.417 28.3024 293.077 28.9625L294.85 30.7355L297.495 33.3808L294.85 36.0262L293.077 37.799C292.417 38.459 292.417 39.5328 293.077 40.1929ZM290.432 42.8382C288.31 40.7164 288.31 37.2757 290.432 35.1537L292.205 33.3808L290.432 31.6078C288.31 29.486 288.31 26.045 290.432 23.9232C292.554 21.8015 295.995 21.8015 298.116 23.9232L299.889 25.6963L301.664 23.922C303.785 21.8002 307.226 21.8002 309.348 23.9219C311.471 26.045 311.47 29.4847 309.348 31.6065L307.574 33.3808L309.348 35.1547C311.471 37.2778 311.47 40.7175 309.348 42.8393C307.226 44.9611 303.786 44.9624 301.663 42.8393L299.889 41.0654L298.117 42.8382C295.995 44.9602 292.555 44.9613 290.432 42.8382Z" fill="#111A16"/>
<path d="M500.653 147.361V191.937L483.126 180.407L465.07 191.937V147.361" stroke="#111A16" stroke-width="5"/>
<path d="M481.203 3H346.797C338.625 3 332 9.53833 332 17.6038V117.396C332 125.462 338.625 132 346.797 132H481.203C489.375 132 496 125.462 496 117.396V17.6038C496 9.53833 489.375 3 481.203 3Z" fill="white"/>
<path d="M481.55 4.82397H345.624C339.081 4.82397 333.777 10.1279 333.777 16.6707V118.927C333.777 125.469 339.081 130.773 345.624 130.773H481.55C488.092 130.773 493.396 125.469 493.396 118.927V16.6707C493.396 10.1279 488.092 4.82397 481.55 4.82397Z" stroke="#111A16" stroke-width="5"/>
<path d="M479.812 159.325C496.201 159.325 509.487 146.039 509.487 129.65C509.487 113.261 496.201 99.9747 479.812 99.9747C463.423 99.9747 450.137 113.261 450.137 129.65C450.137 146.039 463.423 159.325 479.812 159.325Z" fill="white"/>
<path d="M480.343 157.209C495.839 157.209 508.401 144.647 508.401 129.151C508.401 113.655 495.839 101.093 480.343 101.093C464.847 101.093 452.285 113.655 452.285 129.151C452.285 144.647 464.847 157.209 480.343 157.209Z" stroke="#111A16" stroke-width="5"/>
<path d="M480.27 145.36C489.223 145.36 496.481 138.102 496.481 129.149C496.481 120.196 489.223 112.938 480.27 112.938C471.317 112.938 464.059 120.196 464.059 129.149C464.059 138.102 471.317 145.36 480.27 145.36Z" fill="white"/>
<path d="M480.094 142.188C487.325 142.188 493.188 136.325 493.188 129.094C493.188 121.862 487.325 116 480.094 116C472.862 116 467 121.862 467 129.094C467 136.325 472.862 142.188 480.094 142.188Z" stroke="#111A16" stroke-width="5"/>
<path d="M335.922 25.1105H439.598" stroke="#111A16" stroke-width="5"/>
<path d="M454.348 25.1104H493.402" stroke="#111A16" stroke-width="5"/>
<path d="M357.125 47.5566H396.179" stroke="#111A16" stroke-width="5"/>
<path d="M357.125 74.9911H396.179" stroke="#111A16" stroke-width="5"/>
<path d="M357.125 102.426H396.179" stroke="#111A16" stroke-width="5"/>
<path d="M357.125 61.2737H447.307" stroke="#111A16" stroke-width="5"/>
<path d="M357.125 88.7085H447.307" stroke="#111A16" stroke-width="5"/>
<path d="M408.223 47.5566H447.277" stroke="#111A16" stroke-width="5"/>
<path d="M408.223 74.9911H447.277" stroke="#111A16" stroke-width="5"/>
<path d="M408.223 102.426H447.277" stroke="#111A16" stroke-width="5"/>
<path d="M457.953 61.2741L461.424 47.4534L511.803 4.00208L521.931 16.3837L471.734 59.6493L457.953 61.2741Z" fill="white" stroke="#111A16" stroke-width="5"/>
</svg>
