<svg width="80" height="80" viewBox="0 0 80 80" fill="none" xmlns="http://www.w3.org/2000/svg">
<g id="LOGO">
<path id="Polygon 9" d="M35.5631 78.1278C35.5631 78.1278 71.9423 63.0328 72.1191 44.792C72.2959 26.5511 53.2058 19.7908 42.4611 29.4925C31.7165 39.1942 35.5631 78.1278 35.5631 78.1278Z" fill="#904EFA"/>
<path id="Polygon 8" d="M35.5059 78.1307C35.5059 78.1307 3.45106 47.5662 6.81459 30.7475C10.1781 13.9289 32.2723 12.4848 40.4537 25.7009C48.6352 38.9171 35.5059 78.1307 35.5059 78.1307Z" fill="#FCEEFF"/>
<ellipse id="Ellipse 1246" cx="7.37949" cy="7.37952" rx="7.37949" ry="7.37952" transform="matrix(1 -5.66428e-09 1.78739e-06 1 6.81445 2.15576)" fill="#FCEEFF"/>
<ellipse id="Ellipse 1247" cx="7.37949" cy="7.37952" rx="7.37949" ry="7.37952" transform="matrix(1 -5.66428e-09 1.78739e-06 1 64.0038 12.2461)" fill="#904EFA"/>
</g>
</svg>
