<svg width="22" height="22" viewBox="0 0 22 22" fill="none" xmlns="http://www.w3.org/2000/svg">
<g id="Frame" clip-path="url(#clip0_8664_568)">
<path id="Vector" d="M8.33789 5.6665H12.3379C12.6915 5.6665 13.0307 5.80698 13.2807 6.05703C13.5307 6.30708 13.6712 6.64622 13.6712 6.99984V9.6665C13.6712 10.0201 13.5307 10.3593 13.2807 10.6093C13.0307 10.8594 12.6915 10.9998 12.3379 10.9998H9.67122C9.3176 10.9998 8.97846 11.1403 8.72842 11.3904C8.47837 11.6404 8.33789 11.9795 8.33789 12.3332V14.9998C8.33789 15.3535 8.47837 15.6926 8.72842 15.9426C8.97846 16.1927 9.3176 16.3332 9.67122 16.3332H13.6712" stroke="#040F16" stroke-width="1.77778" stroke-linecap="round" stroke-linejoin="round"/>
</g>
<defs>
<clipPath id="clip0_8664_568">
<rect width="21.3333" height="21.3333" fill="white" transform="translate(0.333984 0.333374)"/>
</clipPath>
</defs>
</svg>
