<svg width="22" height="22" viewBox="0 0 22 22" fill="none" xmlns="http://www.w3.org/2000/svg">
<g id="Frame" clip-path="url(#clip0_8664_573)">
<path id="Vector" d="M8.33398 5.66626H11.6673C12.1978 5.66626 12.7065 5.87697 13.0815 6.25205C13.4566 6.62712 13.6673 7.13583 13.6673 7.66626V8.99959C13.6673 9.53003 13.4566 10.0387 13.0815 10.4138C12.7065 10.7889 12.1978 10.9996 11.6673 10.9996M11.6673 10.9996H9.66732M11.6673 10.9996C12.1978 10.9996 12.7065 11.2103 13.0815 11.5854C13.4566 11.9605 13.6673 12.4692 13.6673 12.9996V14.3329C13.6673 14.8634 13.4566 15.3721 13.0815 15.7471C12.7065 16.1222 12.1978 16.3329 11.6673 16.3329H8.33398" stroke="#040F16" stroke-width="1.77778" stroke-linecap="round" stroke-linejoin="round"/>
</g>
<defs>
<clipPath id="clip0_8664_573">
<rect width="21.3333" height="21.3333" fill="white" transform="translate(0.333984 0.333252)"/>
</clipPath>
</defs>
</svg>
