<svg width="22" height="22" viewBox="0 0 22 22" fill="none" xmlns="http://www.w3.org/2000/svg">
<g id="Frame" clip-path="url(#clip0_8664_616)">
<path id="Vector" d="M13.6673 6.99984C13.6673 6.64622 13.5268 6.30708 13.2768 6.05703C13.0267 5.80698 12.6876 5.6665 12.334 5.6665H9.66732C9.3137 5.6665 8.97456 5.80698 8.72451 6.05703C8.47446 6.30708 8.33398 6.64622 8.33398 6.99984V14.9998C8.33398 15.3535 8.47446 15.6926 8.72451 15.9426C8.97456 16.1927 9.3137 16.3332 9.66732 16.3332H12.334C12.6876 16.3332 13.0267 16.1927 13.2768 15.9426C13.5268 15.6926 13.6673 15.3535 13.6673 14.9998V12.3332C13.6673 11.9795 13.5268 11.6404 13.2768 11.3904C13.0267 11.1403 12.6876 10.9998 12.334 10.9998H8.33398" stroke="#040F16" stroke-width="1.77778" stroke-linecap="round" stroke-linejoin="round"/>
</g>
<defs>
<clipPath id="clip0_8664_616">
<rect width="21.3333" height="21.3333" fill="white" transform="translate(0.333984 0.333252)"/>
</clipPath>
</defs>
</svg>
