<svg width="22" height="22" viewBox="0 0 22 22" fill="none" xmlns="http://www.w3.org/2000/svg">
<g id="Frame" clip-path="url(#clip0_8664_640)">
<path id="Vector" d="M11.0007 10.9998H9.66732M9.66732 10.9998C9.3137 10.9998 8.97456 10.8594 8.72451 10.6093C8.47446 10.3593 8.33398 10.0201 8.33398 9.6665V6.99984C8.33398 6.64622 8.47446 6.30708 8.72451 6.05703C8.97456 5.80698 9.3137 5.6665 9.66732 5.6665H12.334C12.6876 5.6665 13.0267 5.80698 13.2768 6.05703C13.5268 6.30708 13.6673 6.64622 13.6673 6.99984V9.6665C13.6673 10.0201 13.5268 10.3593 13.2768 10.6093C13.0267 10.8594 12.6876 10.9998 12.334 10.9998M9.66732 10.9998H12.334M9.66732 10.9998C9.3137 10.9998 8.97456 11.1403 8.72451 11.3904C8.47446 11.6404 8.33398 11.9795 8.33398 12.3332V14.9998C8.33398 15.3535 8.47446 15.6926 8.72451 15.9426C8.97456 16.1927 9.3137 16.3332 9.66732 16.3332H12.334C12.6876 16.3332 13.0267 16.1927 13.2768 15.9426C13.5268 15.6926 13.6673 15.3535 13.6673 14.9998V12.3332C13.6673 11.9795 13.5268 11.6404 13.2768 11.3904C13.0267 11.1403 12.6876 10.9998 12.334 10.9998" stroke="#040F16" stroke-width="1.77778" stroke-linecap="round" stroke-linejoin="round"/>
</g>
<defs>
<clipPath id="clip0_8664_640">
<rect width="21.3333" height="21.3333" fill="white" transform="translate(0.333984 0.333496)"/>
</clipPath>
</defs>
</svg>
