<svg width="22" height="20" viewBox="0 0 22 20" fill="none" xmlns="http://www.w3.org/2000/svg">
<g id="Frame">
<path id="Vector" fill-rule="evenodd" clip-rule="evenodd" d="M6.91442 1.34777C6.37221 1.34777 5.93568 1.77864 5.93568 2.3065C5.93568 2.87313 6.20712 3.36621 6.58954 3.78019C6.97218 4.19446 7.45463 4.51677 7.84621 4.73677C7.97442 4.80883 8.13084 4.80883 8.25905 4.73677C8.65063 4.51677 9.13309 4.19446 9.51572 3.78019C9.89814 3.36621 10.1696 2.87313 10.1696 2.3065C10.1696 1.77864 9.73305 1.34777 9.19084 1.34777C8.7047 1.34777 8.30291 1.69458 8.22561 2.14678C8.2113 2.23041 8.13821 2.29161 8.05263 2.29161C7.96705 2.29161 7.89397 2.23041 7.87965 2.14678C7.80235 1.69458 7.40056 1.34777 6.91442 1.34777ZM5.58481 2.3065C5.58481 1.58331 6.18175 1 6.91442 1C7.39646 1 7.81944 1.25227 8.05263 1.63082C8.28582 1.25227 8.70881 1 9.19084 1C9.92351 1 10.5205 1.58331 10.5205 2.3065C10.5205 2.99002 10.192 3.56311 9.77453 4.01504C9.3573 4.46673 8.84004 4.81012 8.43207 5.03934C8.19653 5.17166 7.90874 5.17166 7.67319 5.03934C7.26523 4.81012 6.74797 4.46673 6.33074 4.01504C5.9133 3.56311 5.58481 2.99002 5.58481 2.3065ZM13.9633 2.31521C12.7766 2.31521 11.8304 3.21778 11.8304 4.31215C11.8304 4.66253 11.8843 4.99726 11.9814 5.31644C12.2698 6.26429 12.9409 7.07933 13.7189 7.74716C14.4956 8.41387 15.3668 8.92343 16.0347 9.26275C16.1636 9.32823 16.3159 9.32823 16.4448 9.26275C16.7466 9.10949 17.0904 8.92113 17.4486 8.69891C18.1961 8.23508 18.9998 7.6276 19.6151 6.88834C20.2296 6.14988 20.6491 5.28883 20.6491 4.31215C20.6491 3.21778 19.703 2.31521 18.5162 2.31521C17.4524 2.31521 16.58 3.04194 16.4125 3.98065C16.3977 4.0637 16.3249 4.12424 16.2398 4.12424C16.1547 4.12424 16.0818 4.0637 16.067 3.98065C15.8995 3.04194 15.0272 2.31521 13.9633 2.31521ZM11.4795 4.31215C11.4795 3.0087 12.6004 1.96744 13.9633 1.96744C14.9767 1.96744 15.8548 2.54201 16.2398 3.37254C16.6247 2.54201 17.5029 1.96744 18.5162 1.96744C19.8792 1.96744 21 3.0087 21 4.31215C21 5.3934 20.5344 6.33013 19.8857 7.10962C19.2622 7.85883 18.4631 8.47094 17.722 8.93904C17.7241 8.99319 17.7252 9.04755 17.7252 9.10215C17.7252 11.6069 16.4191 13.698 14.7813 15.3358C13.1432 16.974 11.1576 18.1749 9.75912 18.903C9.50965 19.0329 9.21358 19.0319 8.96477 18.9024C7.95414 18.3761 6.63895 17.6039 5.3699 16.5994C5.35435 16.6158 5.34256 16.6355 5.33579 16.6574L4.93102 17.9566C4.7854 18.4239 4.11516 18.4239 3.96958 17.9566L3.56481 16.6574C3.55025 16.6105 3.51281 16.5733 3.46425 16.5587L2.14484 16.1601C1.67054 16.0168 1.67054 15.3541 2.14484 15.2108L3.45035 14.8165C2.05172 13.2642 1 11.3496 1 9.10215C1 6.76359 2.92516 4.86976 5.29751 4.86976C7.18109 4.86976 8.78239 6.06335 9.36256 7.72567C9.74196 6.63864 10.5579 5.75227 11.6036 5.26887C11.5235 4.96345 11.4795 4.64437 11.4795 4.31215ZM11.7078 5.60478C10.5782 6.14397 9.74979 7.19747 9.53558 8.4547C9.5213 8.53837 9.44818 8.59962 9.36256 8.59962C9.27695 8.59962 9.20386 8.53837 9.18958 8.4547C8.87667 6.61833 7.25379 5.21754 5.29751 5.21754C3.11674 5.21754 1.35088 6.95782 1.35088 9.10215C1.35088 11.1941 2.30994 12.9998 3.63263 14.4958L3.96958 13.4143C4.11516 12.947 4.7854 12.947 4.93102 13.4143L5.33579 14.7136C5.35035 14.7604 5.38779 14.7976 5.43632 14.8123L6.75575 15.2108C7.23004 15.3541 7.23004 16.0168 6.75575 16.1601L5.75944 16.4611C6.95256 17.383 8.17551 18.0985 9.128 18.5945C9.2753 18.6712 9.4493 18.6715 9.59593 18.5951C10.9791 17.875 12.9296 16.6936 14.5321 15.091C16.124 13.499 17.3572 11.5075 17.3741 9.15122C17.1007 9.31224 16.8401 9.4527 16.6049 9.57223C16.3755 9.68877 16.104 9.68877 15.8747 9.57223C15.1926 9.22571 14.2948 8.70151 13.4892 8.01007C12.7341 7.36193 12.0493 6.55764 11.7078 5.60478ZM4.59575 13.5169C4.552 13.3765 4.3486 13.3765 4.30484 13.5169L3.90007 14.8162C3.88853 14.8532 3.87277 14.8884 3.85333 14.9211C3.79018 15.0276 3.68835 15.1081 3.56656 15.1449L2.24714 15.5435C2.10428 15.5867 2.10428 15.7843 2.24714 15.8274L3.56656 16.226C3.72572 16.2741 3.85091 16.397 3.90007 16.5548L4.30484 17.854C4.3486 17.9944 4.552 17.9944 4.59575 17.854L5.00053 16.5548C5.04965 16.397 5.17484 16.2741 5.334 16.226L5.33751 16.225L6.65344 15.8274C6.79632 15.7843 6.79632 15.5867 6.65344 15.5435L5.33403 15.1449C5.17484 15.0968 5.04965 14.9739 5.00053 14.8162L4.59575 13.5169Z" stroke="#040F16" stroke-width="0.5"/>
</g>
</svg>
