<svg width="28" height="28" viewBox="0 0 28 28" fill="none" xmlns="http://www.w3.org/2000/svg">
<g id="Frame" clip-path="url(#clip0_8663_502)">
<path id="Vector" d="M22.1654 3.49997C23.0581 3.49992 23.9171 3.84102 24.5667 4.45347C25.2162 5.06592 25.6072 5.90343 25.6595 6.79464L25.6654 6.99997V21C25.6654 21.8927 25.3243 22.7517 24.7119 23.4013C24.0994 24.0508 23.2619 24.4418 22.3707 24.4941L22.1654 24.5H5.83203C4.93929 24.5 4.08026 24.1589 3.43073 23.5465C2.78119 22.934 2.39024 22.0965 2.33786 21.2053L2.33203 21V6.99997C2.33198 6.10722 2.67308 5.2482 3.28553 4.59866C3.89798 3.94913 4.73549 3.55818 5.6267 3.5058L5.83203 3.49997H22.1654ZM19.832 17.5H8.16537L8.02886 17.5081C7.74531 17.5419 7.48397 17.6784 7.29435 17.8919C7.10473 18.1054 7 18.3811 7 18.6666C7 18.9522 7.10473 19.2278 7.29435 19.4413C7.48397 19.6549 7.74531 19.7914 8.02886 19.8251L8.16537 19.8333H19.832L19.9685 19.8251C20.2521 19.7914 20.5134 19.6549 20.7031 19.4413C20.8927 19.2278 20.9974 18.9522 20.9974 18.6666C20.9974 18.3811 20.8927 18.1054 20.7031 17.8919C20.5134 17.6784 20.2521 17.5419 19.9685 17.5081L19.832 17.5ZM19.832 12.8333H8.16537L8.02886 12.8415C7.74531 12.8752 7.48397 13.0118 7.29435 13.2253C7.10473 13.4388 7 13.7144 7 14C7 14.2855 7.10473 14.5612 7.29435 14.7747C7.48397 14.9882 7.74531 15.1247 8.02886 15.1585L8.16537 15.1666H19.832L19.9685 15.1585C20.2521 15.1247 20.5134 14.9882 20.7031 14.7747C20.8927 14.5612 20.9974 14.2855 20.9974 14C20.9974 13.7144 20.8927 13.4388 20.7031 13.2253C20.5134 13.0118 20.2521 12.8752 19.9685 12.8415L19.832 12.8333ZM19.832 8.16664H8.16537L8.02886 8.1748C7.74531 8.20853 7.48397 8.34508 7.29435 8.55859C7.10473 8.77211 7 9.04775 7 9.3333C7 9.61886 7.10473 9.8945 7.29435 10.108C7.48397 10.3215 7.74531 10.4581 8.02886 10.4918L8.16537 10.5H19.832L19.9685 10.4918C20.2521 10.4581 20.5134 10.3215 20.7031 10.108C20.8927 9.8945 20.9974 9.61886 20.9974 9.3333C20.9974 9.04775 20.8927 8.77211 20.7031 8.55859C20.5134 8.34508 20.2521 8.20853 19.9685 8.1748L19.832 8.16664Z" fill="white"/>
</g>
<defs>
<clipPath id="clip0_8663_502">
<rect width="28" height="28" fill="white"/>
</clipPath>
</defs>
</svg>
