<svg width="28" height="28" viewBox="0 0 28 28" fill="none" xmlns="http://www.w3.org/2000/svg">
<g id="Frame">
<path id="Vector" d="M13.9999 2.71436C15.0418 2.71436 16.0127 3.22181 16.6073 4.06937L16.7219 4.24323L25.574 18.9647C25.8431 19.4288 25.9894 19.9533 25.9994 20.4891C26.0095 21.0249 25.8828 21.5544 25.6313 22.0281C25.3798 22.5018 25.0117 22.9042 24.5615 23.1976C24.1113 23.491 23.5937 23.6658 23.0572 23.7057L22.8444 23.7144H5.14333C4.60625 23.7083 4.07945 23.5669 3.61212 23.3032C3.14478 23.0395 2.75214 22.6622 2.47084 22.2064C2.18955 21.7507 2.02877 21.2314 2.00352 20.697C1.97826 20.1626 2.08936 19.6306 2.32643 19.1506L2.43444 18.9495L11.2823 4.23888C11.5655 3.77361 11.9644 3.38889 12.4405 3.12186C12.9165 2.85482 13.4535 2.71448 13.9999 2.71436ZM14.0108 17.199L13.8722 17.2066C13.6071 17.238 13.3627 17.3652 13.1854 17.5641C13.008 17.7629 12.9101 18.0196 12.9101 18.2856C12.9101 18.5516 13.008 18.8083 13.1854 19.0072C13.3627 19.206 13.6071 19.3332 13.8722 19.3646L13.9999 19.3722L14.1384 19.3646C14.4036 19.3332 14.648 19.206 14.8253 19.0072C15.0026 18.8083 15.1005 18.5516 15.1005 18.2856C15.1005 18.0196 15.0026 17.7629 14.8253 17.5641C14.648 17.3652 14.4036 17.238 14.1384 17.2066L14.0108 17.199ZM13.9999 9.59265C13.7327 9.59269 13.4747 9.6904 13.2751 9.86726C13.0754 10.0441 12.9478 10.2878 12.9165 10.5521L12.9089 10.6793V15.0257L12.9165 15.1529C12.9481 15.417 13.0758 15.6604 13.2754 15.837C13.4751 16.0136 13.7328 16.1112 13.9999 16.1112C14.2669 16.1112 14.5247 16.0136 14.7243 15.837C14.924 15.6604 15.0517 15.417 15.0832 15.1529L15.0909 15.0257V10.6793L15.0832 10.5521C15.052 10.2878 14.9244 10.0441 14.7247 9.86726C14.525 9.6904 14.2671 9.59269 13.9999 9.59265Z" fill="white"/>
</g>
</svg>
