<svg width="22" height="20" viewBox="0 0 22 20" fill="none" xmlns="http://www.w3.org/2000/svg">
<g id="Frame">
<path id="Vector" d="M8.37324 6.16065C8.19512 6.16065 8.05059 6.01613 8.05059 5.83801C8.05059 5.65989 8.19512 5.51536 8.37324 5.51536C8.60057 5.51536 8.80526 5.42396 8.95289 5.27631C9.10132 5.12632 9.19272 4.92165 9.19272 4.69588C9.19272 4.46855 9.10132 4.26465 8.95367 4.11622C8.80524 3.96779 8.59979 3.87639 8.37324 3.87639C8.14669 3.87639 7.94202 3.96857 7.79358 4.11622C7.64515 4.26465 7.55375 4.47011 7.55375 4.69588C7.55375 4.87399 7.40923 5.01852 7.23111 5.01852C7.05299 5.01852 6.90846 4.874 6.90846 4.69588C6.90846 4.29199 7.07252 3.92559 7.33734 3.66076C7.60217 3.39593 7.96855 3.23188 8.37246 3.23188C8.77478 3.23188 9.14118 3.39593 9.40601 3.65998L9.40758 3.66154C9.67241 3.92637 9.83646 4.29275 9.83646 4.69588C9.83646 5.09976 9.6724 5.46617 9.40758 5.73099C9.14197 5.99582 8.77556 6.15988 8.37246 6.15988L8.37324 6.16065ZM8.37324 1.00227C9.55053 1.00227 10.6169 1.47959 11.3887 2.25144C11.7449 2.60766 12.0387 3.02719 12.2512 3.49123C12.6457 3.2342 13.0746 3.02329 13.53 2.86937C14.1003 2.67563 14.7104 2.57095 15.3432 2.57095C16.9041 2.57095 18.3189 3.20452 19.3422 4.22792C20.3672 5.25209 21 6.66681 21 8.22855C21 9.79028 20.3664 11.2058 19.343 12.2292L19.3235 12.2464C18.3009 13.2596 16.894 13.8854 15.3417 13.8854C14.2284 13.8854 13.1902 13.5643 12.3152 13.0088C12.3035 14.5525 11.6723 15.9501 10.6582 16.9641C9.63405 17.989 8.21933 18.6218 6.6576 18.6218C5.09595 18.6218 3.68113 17.9882 2.65697 16.9648C1.63279 15.9407 1 14.5259 1 12.9642C1 11.6564 1.44452 10.4519 2.18901 9.49336C2.85538 8.63636 3.76394 7.97624 4.8115 7.61454C4.36542 6.94113 4.10607 6.13336 4.10607 5.26464C4.10607 4.08735 4.58339 3.02093 5.35523 2.24917C6.12708 1.47732 7.19344 1 8.37071 1L8.37324 1.00227ZM12.4793 4.11394C12.5816 4.4811 12.6371 4.86781 12.6371 5.26779C12.6371 6.44508 12.1597 7.5115 11.3879 8.28326L11.3684 8.30123C11.0801 8.58638 10.7512 8.83011 10.3919 9.02464C10.577 10.1894 11.1645 11.2221 12.0082 11.9729C12.8933 12.7627 14.0621 13.2424 15.3432 13.2424C16.7197 13.2424 17.9673 12.6885 18.8727 11.7901L18.8875 11.7737C19.7945 10.8667 20.3562 9.61281 20.3562 8.22927C20.3562 6.84573 19.7953 5.59118 18.8875 4.68482C17.9813 3.77782 16.7274 3.21612 15.3431 3.21612C14.7798 3.21612 14.2392 3.3083 13.7361 3.47861C13.2854 3.63017 12.8627 3.84577 12.4791 4.11296L12.4793 4.11394ZM9.78478 9.29192C9.34262 9.44738 8.86764 9.53175 8.37156 9.53175C7.19427 9.53175 6.12785 9.05443 5.35609 8.28258C5.31546 8.24196 5.27484 8.19977 5.23578 8.15759C4.21864 8.45758 3.3343 9.07395 2.69829 9.89111C2.03815 10.7395 1.64521 11.8074 1.64521 12.966C1.64521 14.3495 2.20613 15.6041 3.11391 16.5104C4.02091 17.4174 5.27482 17.9791 6.65836 17.9791C8.0419 17.9791 9.29645 17.4182 10.2028 16.5104C11.1098 15.6042 11.6715 14.3503 11.6715 12.966C11.6715 12.8605 11.6692 12.7637 11.6645 12.6769C11.6621 12.6246 11.6582 12.5715 11.6528 12.5176L11.5801 12.4543C10.67 11.6426 10.0231 10.5403 9.78564 9.29262L9.78478 9.29192ZM10.9308 2.7078C10.2762 2.05315 9.37074 1.64768 8.37154 1.64768C7.37234 1.64768 6.46694 2.05313 5.81225 2.7078C5.15759 3.36245 4.75213 4.26789 4.75213 5.26709C4.75213 6.26627 5.15757 7.17169 5.81225 7.82638C6.4669 8.48103 7.37234 8.8865 8.37154 8.8865C9.36446 8.8865 10.2629 8.48807 10.916 7.84278L10.9309 7.82638C11.5855 7.17172 11.991 6.26628 11.991 5.26708C11.991 4.26791 11.5855 3.36249 10.9308 2.7078ZM8.14275 11.0254C8.26852 10.8997 8.47319 10.8997 8.59897 11.0254C8.72474 11.1512 8.72474 11.3559 8.59897 11.4817L7.11465 12.966L8.59897 14.4495C8.72474 14.5753 8.72474 14.78 8.59897 14.9057C8.47319 15.0315 8.26852 15.0315 8.14275 14.9057L6.65843 13.4222L5.17489 14.9057C5.04912 15.0315 4.84445 15.0315 4.71867 14.9057C4.5929 14.78 4.5929 14.5753 4.71867 14.4495L6.20221 12.966L4.71867 11.4817C4.5929 11.3559 4.5929 11.1512 4.71867 11.0254C4.84445 10.8997 5.04912 10.8997 5.17489 11.0254L6.65843 12.5098L8.14275 11.0254ZM12.8707 8.71614C12.745 8.59037 12.745 8.3857 12.8707 8.25992C12.9965 8.13415 13.2012 8.13415 13.327 8.25992L14.4222 9.3552L17.3581 6.41852C17.4839 6.29275 17.6886 6.29275 17.8143 6.41852C17.9401 6.5443 17.9401 6.74897 17.8143 6.87474L14.6497 10.0394C14.5239 10.1652 14.3192 10.1652 14.1934 10.0394L12.8693 8.71524L12.8707 8.71614ZM8.05535 7.03184C8.02645 6.85606 8.14519 6.68967 8.32018 6.66075C8.49595 6.63185 8.66157 6.75059 8.69048 6.92558C8.71939 7.10213 8.60143 7.26853 8.42566 7.29744C8.24988 7.32635 8.08427 7.2076 8.05535 7.03262V7.03184Z" fill="#040F16" stroke="#040F16" stroke-width="0.4"/>
</g>
</svg>
