<svg width="28" height="26" viewBox="0 0 28 26" fill="none" xmlns="http://www.w3.org/2000/svg">
<g id="Frame" clip-path="url(#clip0_8663_542)">
<g id="Vector">
<path d="M24.6947 14.8022L14.0003 25.2159L3.30586 14.8022C2.60046 14.1273 2.04483 13.3161 1.67395 12.4197C1.30308 11.5233 1.12499 10.5612 1.15091 9.59378C1.17683 8.6264 1.40619 7.67478 1.82455 6.79883C2.2429 5.92289 2.8412 5.1416 3.58176 4.50416C4.32231 3.86673 5.18909 3.38695 6.1275 3.09505C7.06591 2.80316 8.05563 2.70545 9.03433 2.8081C10.013 2.91075 10.9595 3.21152 11.8142 3.69148C12.6688 4.17145 13.4132 4.82019 14.0003 5.59688C14.59 4.82583 15.3352 4.18275 16.1892 3.70789C17.0433 3.23302 17.9879 2.93659 18.9639 2.83715C19.9398 2.73771 20.9261 2.8374 21.8611 3.12998C22.7961 3.42256 23.6596 3.90173 24.3975 4.53751C25.1355 5.17328 25.732 5.95198 26.1498 6.82485C26.5676 7.69772 26.7976 8.64598 26.8255 9.61028C26.8534 10.5746 26.6786 11.5342 26.3119 12.429C25.9453 13.3238 25.3947 14.1346 24.6947 14.8106" fill="white"/>
<path d="M24.6947 14.8022L14.0003 25.2159L3.30586 14.8022C2.60046 14.1273 2.04483 13.3161 1.67395 12.4197C1.30308 11.5233 1.12499 10.5612 1.15091 9.59378C1.17683 8.6264 1.40619 7.67478 1.82455 6.79883C2.2429 5.92289 2.8412 5.1416 3.58176 4.50416C4.32231 3.86673 5.18909 3.38695 6.1275 3.09505C7.06591 2.80316 8.05563 2.70545 9.03433 2.8081C10.013 2.91075 10.9595 3.21152 11.8142 3.69148C12.6688 4.17145 13.4132 4.82019 14.0003 5.59688C14.59 4.82583 15.3352 4.18275 16.1892 3.70789C17.0433 3.23302 17.9879 2.93659 18.9639 2.83715C19.9398 2.73771 20.9261 2.8374 21.8611 3.12998C22.7961 3.42256 23.6596 3.90173 24.3975 4.53751C25.1355 5.17328 25.732 5.95198 26.1498 6.82485C26.5676 7.69772 26.7976 8.64598 26.8255 9.61028C26.8534 10.5746 26.6786 11.5342 26.3119 12.429C25.9453 13.3238 25.3947 14.1346 24.6947 14.8106" stroke="#9191E3" stroke-width="2.13889" stroke-linecap="round" stroke-linejoin="round"/>
</g>
<g id="Vector_2">
<path d="M13.9998 5.58838L9.30421 10.205C9.03689 10.4679 8.88672 10.8245 8.88672 11.1962C8.88672 11.568 9.03689 11.9245 9.30421 12.1874L10.0785 12.9487C11.0624 13.916 12.6594 13.916 13.6433 12.9487L15.0692 11.5467C15.9201 10.7101 17.0742 10.2401 18.2776 10.2401C19.4809 10.2401 20.635 10.7101 21.4859 11.5467L24.6942 14.7011" fill="white"/>
<path d="M13.9998 5.58838L9.30421 10.205C9.03689 10.4679 8.88672 10.8245 8.88672 11.1962C8.88672 11.568 9.03689 11.9245 9.30421 12.1874L10.0785 12.9487C11.0624 13.916 12.6594 13.916 13.6433 12.9487L15.0692 11.5467C15.9201 10.7101 17.0742 10.2401 18.2776 10.2401C19.4809 10.2401 20.635 10.7101 21.4859 11.5467L24.6942 14.7011" stroke="#9191E3" stroke-width="2.13889" stroke-linecap="round" stroke-linejoin="round"/>
</g>
<g id="Vector_3">
<path d="M14.7148 18.9067L17.5667 21.7107L14.7148 18.9067Z" fill="white"/>
<path d="M14.7148 18.9067L17.5667 21.7107" stroke="#9191E3" stroke-width="2.13889" stroke-linecap="round" stroke-linejoin="round"/>
</g>
<g id="Vector_4">
<path d="M18.2773 15.4019L21.1292 18.2058L18.2773 15.4019Z" fill="white"/>
<path d="M18.2773 15.4019L21.1292 18.2058" stroke="#9191E3" stroke-width="2.13889" stroke-linecap="round" stroke-linejoin="round"/>
</g>
</g>
<defs>
<clipPath id="clip0_8663_542">
<rect width="28" height="26" fill="white"/>
</clipPath>
</defs>
</svg>
