<svg width="28" height="28" viewBox="0 0 28 28" fill="none" xmlns="http://www.w3.org/2000/svg">
<g id="Frame" clip-path="url(#clip0_8647_1361)">
<path id="Vector" fill-rule="evenodd" clip-rule="evenodd" d="M5.51653 22.4853C0.830238 17.799 0.830238 10.201 5.51653 5.51472C10.2028 0.828467 17.8008 0.828425 22.4871 5.51472C27.1733 10.201 27.1733 17.799 22.4871 22.4853C17.8008 27.1716 10.2028 27.1715 5.51653 22.4853ZM8.00181 12.8C7.33907 12.8 6.80181 13.3373 6.80181 14C6.80181 14.6627 7.33907 15.2 8.00181 15.2L20.0018 15.2C20.6645 15.2001 21.2018 14.6628 21.2017 14C21.2018 13.3372 20.6646 12.8 20.0018 12.8L8.00181 12.8Z" fill="white"/>
</g>
<defs>
<clipPath id="clip0_8647_1361">
<rect width="28" height="28" fill="white"/>
</clipPath>
</defs>
</svg>
