<svg width="20" height="20" viewBox="0 0 20 20" fill="none" xmlns="http://www.w3.org/2000/svg">
<g id="Frame" clip-path="url(#clip0_9041_6405)">
<path id="Vector" d="M17.4987 11.6667L14.9987 9.16667H9.16536C8.94435 9.16667 8.73239 9.07887 8.57611 8.92259C8.41983 8.76631 8.33203 8.55435 8.33203 8.33333V3.33333C8.33203 3.11232 8.41983 2.90036 8.57611 2.74408C8.73239 2.5878 8.94435 2.5 9.16536 2.5H16.6654C16.8864 2.5 17.0983 2.5878 17.2546 2.74408C17.4109 2.90036 17.4987 3.11232 17.4987 3.33333V11.6667Z" stroke="#040F16" stroke-width="1.2" stroke-linecap="round" stroke-linejoin="round"/>
<path id="Vector_2" d="M11.6667 12.4999V14.1666C11.6667 14.3876 11.5789 14.5996 11.4226 14.7558C11.2663 14.9121 11.0543 14.9999 10.8333 14.9999H5L2.5 17.4999V9.16659C2.5 8.94557 2.5878 8.73361 2.74408 8.57733C2.90036 8.42105 3.11232 8.33325 3.33333 8.33325H5" stroke="#040F16" stroke-width="1.2" stroke-linecap="round" stroke-linejoin="round"/>
</g>
<defs>
<clipPath id="clip0_9041_6405">
<rect width="20" height="20" fill="white"/>
</clipPath>
</defs>
</svg>
