<svg width="28" height="28" viewBox="0 0 28 28" fill="none" xmlns="http://www.w3.org/2000/svg">
<g id="notif" clip-path="url(#clip0_8663_522)">
<path id="Vector" d="M16.3474 21.3506C17.2557 21.3506 17.7355 22.4258 17.1297 23.102C16.7361 23.5424 16.2539 23.8947 15.7147 24.1357C15.1754 24.3767 14.5914 24.5011 14.0007 24.5006C13.41 24.5011 12.826 24.3767 12.2867 24.1357C11.7475 23.8947 11.2653 23.5424 10.8717 23.102C10.2921 22.4552 10.7058 21.444 11.5374 21.3579L11.6529 21.3516L16.3474 21.3506Z" fill="white"/>
<path id="Vector_2" d="M13.9989 3.5C15.4248 3.5 16.6302 4.44815 17.0176 5.74805L17.0659 5.9276L17.0743 5.97275C18.2318 6.62575 19.2182 7.54366 19.9526 8.6513C20.687 9.75894 21.1486 11.0248 21.2995 12.3452L21.3289 12.6466L21.3489 12.95V16.0276L21.3709 16.1704C21.5147 16.944 21.9428 17.6358 22.5711 18.1097L22.7464 18.2326L22.9165 18.3365C23.8195 18.8478 23.5045 20.1908 22.5207 20.2937L22.3989 20.3H5.59887C4.51947 20.3 4.14252 18.8678 5.08122 18.3365C5.4813 18.1101 5.82698 17.7989 6.09399 17.4246C6.36099 17.0504 6.54286 16.6223 6.62682 16.1704L6.64887 16.0202L6.64992 12.9017C6.71394 11.5303 7.11314 10.1954 7.81257 9.01404C8.512 7.83264 9.49035 6.84069 10.662 6.125L10.9224 5.9717L10.9329 5.92655C11.0814 5.29868 11.419 4.73148 11.9 4.3015C12.3811 3.87153 12.9824 3.59947 13.623 3.52205L13.8141 3.5042L13.9989 3.5Z" fill="white"/>
</g>
<defs>
<clipPath id="clip0_8663_522">
<rect width="28" height="28" fill="white"/>
</clipPath>
</defs>
</svg>
