<svg width="24" height="24" viewBox="0 0 24 24" fill="none" xmlns="http://www.w3.org/2000/svg">
<g id="Frame" clip-path="url(#clip0_9041_8900)">
<path id="Vector" d="M5 4.00012H8.41969C8.77018 4.00012 9.08535 4.21351 9.21552 4.53893L10.7289 8.32236C10.8851 8.71297 10.7348 9.15924 10.3741 9.37569L9.1769 10.094C8.79439 10.3235 8.64879 10.8101 8.87427 11.195C9.82629 12.8201 11.18 14.1738 12.8051 15.1258C13.19 15.3513 13.6766 15.2057 13.9061 14.8232L14.6244 13.6261C14.8409 13.2653 15.2871 13.115 15.6778 13.2712L19.4612 14.7846C19.7866 14.9148 20 15.2299 20 15.5804V19.0001C20 19.5306 19.7893 20.0393 19.4142 20.4143C19.0391 20.7894 18.5304 21.0001 18 21.0001C14.0993 20.7631 10.4202 19.1066 7.65683 16.3433C4.8935 13.58 3.23705 9.90086 3 6.00012C3 5.46969 3.21071 4.96098 3.58579 4.58591C3.96086 4.21084 4.46957 4.00012 5 4.00012Z" fill="#701CF9"/>
<path id="Vector_2" d="M15 7.00012C15.5304 7.00012 16.0391 7.21084 16.4142 7.58591C16.7893 7.96098 17 8.46969 17 9.00012" stroke="#701CF9" stroke-width="1.5" stroke-linecap="round" stroke-linejoin="round"/>
<path id="Vector_3" d="M15 3C16.5913 3 18.1174 3.63214 19.2426 4.75736C20.3679 5.88258 21 7.4087 21 9" stroke="#701CF9" stroke-width="1.5" stroke-linecap="round" stroke-linejoin="round"/>
</g>
<defs>
<clipPath id="clip0_9041_8900">
<rect width="24" height="24" fill="white"/>
</clipPath>
</defs>
</svg>
