<svg width="28" height="28" viewBox="0 0 28 28" fill="none" xmlns="http://www.w3.org/2000/svg">
<g id="Frame">
<path id="Vector" d="M13.8612 2.0084L13.9982 2L14.1399 2.0084L14.2108 2.018L14.2841 2.0336L14.4175 2.0744C14.5096 2.10832 14.5972 2.15346 14.6782 2.2088L14.8032 2.3072L15.1096 2.5688C17.5334 4.57948 20.5968 5.65916 23.7474 5.6132L24.1583 5.6012C24.427 5.58896 24.692 5.66708 24.9109 5.82308C25.1299 5.97907 25.2901 6.2039 25.3659 6.4616C25.9563 8.46749 26.137 10.5714 25.8972 12.6485C25.6574 14.7255 25.0019 16.7331 23.9699 18.5522C22.9378 20.3712 21.5501 21.9645 19.8894 23.2373C18.2286 24.5102 16.3285 25.4366 14.3021 25.9616C14.1044 26.0128 13.8968 26.0128 13.699 25.9616C11.6725 25.4367 9.77232 24.5104 8.11139 23.2376C6.45047 21.9648 5.06268 20.3716 4.03049 18.5525C2.9983 16.7335 2.34278 14.7257 2.10289 12.6487C1.863 10.5716 2.04362 8.46757 2.63403 6.4616C2.70986 6.2039 2.87006 5.97907 3.08899 5.82308C3.30792 5.66708 3.57292 5.58896 3.84158 5.6012C7.13074 5.75136 10.3576 4.66999 12.8903 2.5688L13.2063 2.2988L13.3217 2.2088C13.4027 2.15346 13.4903 2.10832 13.5824 2.0744L13.717 2.0336C13.7641 2.02224 13.813 2.01382 13.8612 2.0084Z" fill="white"/>
</g>
</svg>
