<svg width="28" height="28" viewBox="0 0 28 28" fill="none" xmlns="http://www.w3.org/2000/svg">
<g id="Frame">
<g id="Group">
<path id="Vector" d="M18.3384 9.98909C18.3384 10.4736 17.9449 10.8658 17.4586 10.8658H9.37584C8.88961 10.8658 8.49609 11.2579 8.49609 11.7424V15.7585C8.49609 16.243 8.88961 16.6351 9.37584 16.6351H17.4586C17.9449 16.6351 18.3384 17.0273 18.3384 17.5118C18.3384 18.2938 19.2882 18.6859 19.8412 18.1315L23.6157 14.3702C23.9606 14.0266 23.9606 13.4733 23.6157 13.1296L19.8412 9.36832C19.2882 8.81504 18.3384 9.2071 18.3384 9.98909Z" fill="white"/>
<path id="Vector_2" d="M19.7189 2.5H8.27327C5.36373 2.5 2.99609 4.85956 2.99609 7.75872V19.7413C2.99609 22.6406 5.36393 25 8.27327 25H19.7189C22.6285 25 24.9961 22.6404 24.9961 19.7413V19.5193C24.9961 19.0404 24.6083 18.6539 24.1277 18.6539C23.6471 18.6539 23.2592 19.0404 23.2592 19.5193V19.7413C23.2592 21.6862 21.6705 23.2692 19.7189 23.2692H8.27327C6.32155 23.2692 4.73296 21.686 4.73296 19.7413V7.75872C4.73296 5.81383 6.3217 4.23079 8.27327 4.23079H19.7189C21.6706 4.23079 23.2592 5.81397 23.2592 7.75872V7.9807C23.2592 8.45961 23.6471 8.8461 24.1277 8.8461C24.6083 8.8461 24.9961 8.45961 24.9961 7.9807V7.75872C24.9961 4.85936 22.6283 2.5 19.7189 2.5Z" fill="white"/>
</g>
</g>
</svg>
