<svg width="28" height="28" viewBox="0 0 28 28" fill="none" xmlns="http://www.w3.org/2000/svg">
<g id="Frame">
<g id="Group">
<path id="Vector" d="M14 1C6.81978 1 1 6.81979 1 14C1 21.1802 6.81978 27 14 27C21.1802 27 27 21.1802 27 14C27 6.81979 21.1802 1 14 1ZM14 25.1051C11.3169 25.1051 8.86046 24.1549 6.93853 22.5731L9.29775 20.2139C8.84428 19.7118 8.47177 19.1342 8.20184 18.5025L5.52949 21.1748C3.88831 19.2421 2.89494 16.7371 2.89494 14C2.89494 7.86713 7.86712 2.89494 14 2.89494C16.7371 2.89494 19.2421 3.88828 21.1748 5.5295L19.2853 7.41903C19.8953 7.66735 20.3219 8.26663 20.3219 8.96304V9.18978L22.5731 6.93854C24.1549 8.86047 25.1051 11.3169 25.1051 14C25.1051 20.1329 20.1329 25.1051 14 25.1051Z" fill="white"/>
<path id="Vector_2" d="M18.6482 8.36905C18.3243 8.36905 18.0597 8.63358 18.0597 8.96289V13.568C18.0597 13.8649 17.8168 14.1078 17.5199 14.1078C17.2175 14.1078 16.98 13.8649 16.98 13.568V7.95334C16.98 7.62943 16.7101 7.36487 16.3861 7.36487C16.0568 7.36487 15.7923 7.62943 15.7923 7.95334V13.568C15.7923 13.8649 15.5493 14.1078 15.2524 14.1078C14.9555 14.1078 14.7126 13.8649 14.7126 13.568V7.3595C14.7126 7.03556 14.448 6.76562 14.1187 6.76562C13.7948 6.76562 13.5248 7.03556 13.5248 7.3595V13.568C13.5248 13.8649 13.2873 14.1078 12.985 14.1078C12.6881 14.1078 12.4451 13.8649 12.4451 13.568V8.45001C12.4451 8.1207 12.1806 7.85617 11.8567 7.85617C11.5273 7.85617 11.2574 8.1207 11.2574 8.45001V15.6951C11.2574 15.9948 11.0161 16.2349 10.7175 16.2349C10.5016 16.2349 10.318 16.1107 10.2317 15.9272C10.2263 15.9272 10.2263 15.9218 10.2209 15.9218C10.1906 15.8512 10.1777 15.7522 10.1777 15.6951V13.8271C10.1669 13.4438 9.85376 13.1307 9.47044 13.1307C9.07635 13.1307 8.75781 13.4492 8.75781 13.8433V15.803C8.75781 18.5941 10.8579 21.0343 13.6382 21.2179C16.6939 21.423 19.242 18.999 19.242 15.9866V8.96289C19.242 8.63358 18.9775 8.36905 18.6482 8.36905Z" fill="white"/>
</g>
</g>
</svg>
