<svg width="28" height="28" viewBox="0 0 28 28" fill="none" xmlns="http://www.w3.org/2000/svg">
<g id="icon">
<g id="Rules">
<path id="Vector" fill-rule="evenodd" clip-rule="evenodd" d="M6.50084 7.80106L3.14581 16.5213H9.85788L6.50084 7.80106ZM16.2362 23.2512C17.2021 23.2512 17.985 24.0342 17.985 25H14.9874H13.0126H10.0158C10.0158 24.0342 10.7987 23.2512 11.7646 23.2512H13.0126V7.34355C12.489 7.10504 12.0708 6.68111 11.847 6.15959H7.13364L11.1247 16.5213L12.0029 16.5233C12.0029 18.9549 9.96741 20.9418 7.47702 20.9418H5.52468C3.03389 20.9418 1 18.9549 1 16.5213H1.88023L5.87005 6.15412C4.78755 6.05029 4.82393 4.3971 5.97918 4.3971H11.847C12.1996 3.57578 13.0302 3 13.998 3C14.9678 3 15.7984 3.57578 16.1514 4.3971H22.0188C23.1733 4.3971 23.2108 6.04872 22.1299 6.15412L26.1218 16.5213L27 16.5233C27 18.9549 24.9653 20.9418 22.4753 20.9418H20.5226C18.0318 20.9418 15.9983 18.9549 15.9983 16.5213H16.8773L20.8664 6.15959H16.1514C15.9272 6.68111 15.5102 7.10387 14.9874 7.34277V23.2512H16.2362ZM21.4992 7.80106L18.1437 16.5213H24.8562L21.4992 7.80106Z" fill="white"/>
</g>
</g>
</svg>
