<svg width="20" height="20" viewBox="0 0 20 20" fill="none" xmlns="http://www.w3.org/2000/svg">
<g id="Frame" clip-path="url(#clip0_9041_6381)">
<path id="Vector" d="M12.5 16.6667H4.16667C3.72464 16.6667 3.30072 16.4911 2.98816 16.1786C2.67559 15.866 2.5 15.4421 2.5 15V7.50004C2.5 7.05801 2.67559 6.63409 2.98816 6.32153C3.30072 6.00897 3.72464 5.83337 4.16667 5.83337H5C5.44203 5.83337 5.86595 5.65778 6.17851 5.34522C6.49107 5.03266 6.66667 4.60873 6.66667 4.16671C6.66667 3.94569 6.75446 3.73373 6.91074 3.57745C7.06702 3.42117 7.27899 3.33337 7.5 3.33337H12.5C12.721 3.33337 12.933 3.42117 13.0893 3.57745C13.2455 3.73373 13.3333 3.94569 13.3333 4.16671C13.3333 4.60873 13.5089 5.03266 13.8215 5.34522C14.134 5.65778 14.558 5.83337 15 5.83337H15.8333C16.2754 5.83337 16.6993 6.00897 17.0118 6.32153C17.3244 6.63409 17.5 7.05801 17.5 7.50004V9.58337" stroke="#040F16" stroke-width="1.2" stroke-linecap="round" stroke-linejoin="round"/>
<path id="Vector_2" d="M12.4789 10.5101C12.4096 9.97945 12.1719 9.48507 11.8007 9.09964C11.4295 8.7142 10.9444 8.45805 10.4167 8.36885C9.88911 8.27964 9.34678 8.36209 8.86949 8.60408C8.39221 8.84606 8.00516 9.23481 7.76527 9.71315C7.52539 10.1915 7.44532 10.7342 7.53684 11.2614C7.62836 11.7887 7.88664 12.2726 8.2737 12.6421C8.66076 13.0117 9.15618 13.2472 9.68709 13.3142C10.218 13.3812 10.7564 13.276 11.2231 13.0142" stroke="#040F16" stroke-width="1.2" stroke-linecap="round" stroke-linejoin="round"/>
<path id="Vector_3" d="M15.832 18.3334V18.3417" stroke="#040F16" stroke-width="1.25" stroke-linecap="round" stroke-linejoin="round"/>
<path id="Vector_4" d="M15.832 15.8334C16.2056 15.8322 16.568 15.7057 16.8612 15.4742C17.1544 15.2426 17.3614 14.9195 17.4492 14.5563C17.5369 14.1932 17.5003 13.8111 17.3452 13.4713C17.1901 13.1314 16.9255 12.8534 16.5937 12.6817C16.2622 12.5119 15.883 12.4592 15.5177 12.5323C15.1525 12.6054 14.8227 12.7999 14.582 13.0842" stroke="#040F16" stroke-width="1.25" stroke-linecap="round" stroke-linejoin="round"/>
</g>
<defs>
<clipPath id="clip0_9041_6381">
<rect width="20" height="20" fill="white"/>
</clipPath>
</defs>
</svg>
